<?xml version="1.0" standalone="no"?>
<!DOCTYPE svg PUBLIC "-//W3C//DTD SVG 1.1//EN" "http://www.w3.org/Graphics/SVG/1.1/DTD/svg11.dtd" >
<svg xmlns="http://www.w3.org/2000/svg" xmlns:xlink="http://www.w3.org/1999/xlink" version="1.1">
<metadata></metadata>
<defs>
<font id="gessoregular" horiz-adv-x="160" >
<font-face units-per-em="2048" ascent="1638" descent="-410" />
<missing-glyph horiz-adv-x="424" />
<glyph horiz-adv-x="0" />
<glyph unicode="&#xd;" horiz-adv-x="424" />
<glyph unicode=" "  horiz-adv-x="424" />
<glyph unicode="&#x09;" horiz-adv-x="424" />
<glyph unicode="&#xa0;" horiz-adv-x="424" />
<glyph unicode="!" horiz-adv-x="424" d="M96 1728h112q18 0 16 -24l-8 -120q10 -168 48 -168l24 72l-8 8q0 72 48 72l16 -24v-216q0 -24 -72 -24v-8q72 0 72 -16v-24l-128 -16v-8l96 -8l24 8v-8l-16 -40l24 -24q-40 -4 -40 -24h-48l-40 -8l-16 80l8 24h-112l-16 16v344l80 -24h24v32q-18 34 -104 80v32zM336 1728 v-8l-16 -24q24 0 24 -16v-80h-8q-48 0 -48 64l-8 56l8 8h48zM96 1216h24l-8 -64l8 -24h24l-8 40l16 48h24l16 -16v-64q0 -24 -72 -32l-8 -32h16l40 8q48 -44 48 -96q16 0 24 64q46 32 72 32l-8 8v8l8 8h16l16 -16v-16l-8 -8v-8l-8 8h-32v-16q40 0 40 -16l-216 -224l-32 -8 l-8 8v168h8l24 -16q42 0 48 24v24l-40 8l-24 -16h-16v200zM336 968l8 -8v-208q0 -24 -88 -24l-16 16q0 -18 -40 -48q-12 -48 -24 -48q26 -88 48 -88l-8 -8l16 -112l-8 -8h-112q-14 0 -16 24l-8 152l8 8h16l8 -8l8 8h8l24 -8l-8 56h-8v-32h-40l-16 16v40q62 88 88 88 q56 0 56 -16l40 16l8 -24l16 16v8q0 12 -72 32q0 64 112 160zM288 488h16q24 0 24 -32l-8 -24h-16l-16 16v40zM96 272h48l8 -8l8 8h32l8 -8l8 8h16l16 -16q-20 -80 -32 -80h-72l-8 8l-24 -8l-24 8v72zM296 272h32l16 -16v-8l-16 -16l-8 8h-8q0 -18 -40 -24l-8 8v8 q16 36 32 40zM256 208v-24h-16v8zM96 168h8l16 -16v-48l8 -96l-8 -8h-32v8l8 8v8l-16 16v112zM168 168l8 -8l8 8h24q16 0 16 -64h8v48h16v-16l-8 -8q26 -70 64 -120l-8 -8h-144l-16 16v24q48 32 48 64l-48 56l8 8h24z" />
<glyph unicode="&#x22;" horiz-adv-x="704" d="M80 2000h144v-8q0 -20 -80 -24l8 -8l-8 -40v-64l-16 -16h-40zM256 2000h56v-16h-56v16zM528 2000v-8q0 -16 -48 -24l-16 16q-8 -70 -24 -88q16 0 16 -72h8v32h8l32 -32v-16h-40l-32 -8q-48 0 -48 192l8 8h136zM560 2000h64v-16h-64v16zM320 1968v-8q0 -104 -40 -104 l-64 -8l-8 32l-8 -8h-24l-16 16v32l8 8l-8 8v8q0 14 24 16zM624 1968v-48l-16 -48q-136 18 -136 40v32q0 24 152 24zM192 1864v-8l-16 -16l-16 16l8 8h24zM296 1840l8 -8v-24q0 -24 -88 -24v-16h8l24 8v-8l8 8h24l16 -16q0 -160 -24 -160h-144q-18 0 -32 184l8 8h32 q128 0 128 24h-8l-136 -16v16zM528 1800l8 -8v-24l-112 -120h-8l-8 136l8 8h72zM464 1768v-8h32v8h-32zM568 1736q32 -16 32 -40q0 -96 -56 -96h-88v8q0 16 72 16v8h-48v8z" />
<glyph unicode="#" horiz-adv-x="1560" d="M1040 1728h240l8 -8h8l-40 -224l-88 16l-8 -8l-32 8l-96 -8v-8q0 -24 128 -24h32l56 8v-8q0 -160 -56 -160h-24q0 -24 48 -24v-24h264q-10 -132 -32 -200l-8 8h-16l-88 -72l-8 8v24l24 32l-16 32l16 88q-32 0 -32 32q-48 32 -144 40l-24 -8l-24 8l-16 -16l-24 24l8 8v8 l-8 8h-24q-8 -48 -24 -48q-80 12 -80 40v8h8l32 -24v8l-40 40q44 304 72 304l24 24l-32 8v8h40v8q-40 0 -40 16v16zM624 1704l16 -16v16h24l16 -16l-32 -24h-8l-32 32l8 8h8zM584 1696q56 -26 56 -120h-8q-96 96 -96 112l8 8h40zM528 1544q32 -36 32 -56l-32 -24h-8l-16 16 q6 64 24 64zM608 1400h8l16 -80l-48 -16v-56h8l48 32l8 -24l-8 -24h8l24 -24v-8q-46 -56 -88 -56l-8 8v8l8 72q-30 -24 -56 -24l-56 72zM536 1304v-16h16q0 16 24 16v16h-8zM552 1280v-16h8l16 16h-24zM256 1264l8 -8v-24l-48 -8l-8 8v8q8 24 48 24zM944 1264h8l16 -16 l-8 -8h-32v8zM416 1224q62 0 72 -32l-80 -16q0 16 32 16v8h-24v24zM992 1216l40 -40v-32l-16 -16l-72 80l8 8h40zM1032 1208h48v-16l-40 -8l-8 8v16zM336 1152h8l48 -56v-16h-32v-8q96 -6 96 -64l-24 -16h-136l-32 24l-48 -16q0 22 -40 24v8q24 0 56 32h8q48 -34 48 -56h8 l8 56v16l-8 40zM704 1152l40 -64v-72l-16 -16v48h-8v-16h-8q-46 34 -64 72q0 14 56 48zM880 1128q136 -140 136 -184h-8l-104 24v24h-80q-44 0 -72 64v8l24 8l8 -8v24h8q16 0 16 -24l16 16q0 24 32 24zM752 1112h8l16 -16v-16h-24v32zM808 1032v-8h56v8h-56zM488 968h8 l32 -32v-8h-8l-56 8v8zM904 944q104 0 104 -40h8q0 24 16 24h16q20 -10 64 -88h8q0 24 16 24h8v-24l-152 -136q-76 68 -112 128q8 88 32 88l-8 8v16zM432 920h24l8 -8l8 8h8q88 -8 88 -32v-8h-16v-8q46 0 72 -48v-8l-24 -8l-80 8h-24v-8l160 -32l-16 -96h48l16 -16 q-14 0 -24 -40l-128 -24v-16q0 -24 88 -24h48l8 -8l24 8l-16 64l8 8l40 -8h40l-40 48l8 8h88l16 16q88 -14 88 -32l-72 -56l-8 8l-8 -8h-8l-56 16q0 -72 -48 -72h-32l16 -48q-32 -92 -168 -104v-8l16 -24v-8l-48 -48l-48 32l-24 -24q0 -24 40 -24v-8q-16 -32 -40 -32l-8 -8 l-8 8v40h-8l-8 -48l8 -8v-8l-144 -128h-16l48 304h-248v8q0 124 18 198q16 66 38 66h96q16 0 16 -24h16q0 24 16 24h96q4 104 24 104h8q0 -24 16 -24v16l-8 8v8l8 32l-24 40q14 56 32 56zM864 752h16l48 -48l-8 -8h-8q-48 8 -48 24v32zM272 648l16 -56l-8 -8l48 -8v8l8 8v8 q-10 64 -32 64h-16zM1304 672h8l-40 -40h-8zM1248 624h8l-40 -40h-8zM1368 592l8 -8q-26 -176 -40 -176h-168v8l24 24h64l40 8v8l-16 16h-40v8zM1184 568h8l-24 -24h-8zM792 560h24l-16 -16h-8v16zM1144 536h8l-24 -24h-8zM784 520h8v-40h-8l-8 8h-8v-16h-16l-8 24z M1072 472h8l-32 -32h-8zM1024 432h8l-24 -24h-8zM464 408v-8l16 -16v8zM960 376h8l-24 -24h-8zM1056 328l8 -8q-48 -304 -64 -320h-240l-8 8h-8q0 88 88 88h24v8h-48v8l72 64h112v16l-8 -8l-40 8h-32v8zM864 104v-16l16 -16h32l8 40l-8 8h-32zM264 32h16v-24h-16v24z" />
<glyph unicode="$" horiz-adv-x="1024" d="M416 1864h32l8 -8l8 8h16l8 -8l8 8h16l8 -8l8 8h16l16 -16l-96 -96h24q96 60 96 72l-16 32l8 8h8l40 -8v-96q0 -18 56 -24l64 -40l-8 -8v-8q90 0 144 -144h-48l-8 -8l-8 8h-48q-112 -62 -112 -88h-8q-54 72 -120 72h-32q-28 0 -64 -32l-24 8l-48 -8l-64 8q0 -18 -88 -24 l16 -24v-8h-40v-8h32v-24h-16v-8l16 -40l-24 -16h-72l-8 8h-8q0 92 80 248l40 -8h24q0 16 -40 16l-8 8v8q102 104 200 128v16h24v-48l32 32v8l-56 24l16 16v-8q32 12 32 24v8l-24 8l-16 -16h-8v32zM496 1712v-24l8 8h8l8 -8h8v16l-8 8v8zM664 1696v-8l80 -32h8v8l-72 32h-16 zM344 1688v-8l80 -8h32v8l-88 8h-24zM672 1608l8 -24h56l16 16v16l-48 16zM480 1616v-16l72 -8v16h-56l-8 8h-8zM824 1528h8l8 -8l8 8h32q30 0 56 -160l-8 -8h-24q-16 0 -16 32l-112 40l-64 -64l56 -16h56v-16h-8l-144 -16v16q0 20 32 24v8q-48 6 -48 48q168 54 168 88v24z M152 1504v-8h32v8h-32zM376 1352l24 -128q-94 -80 -128 -80h-120q-18 0 -32 64l8 8h16l8 -8h8l8 8v8l8 -8h8l72 8q0 58 -144 72v16l136 8l16 -16v-8l-8 -8v-8l48 -32l56 40l-8 40zM184 1104v-8l8 8h32l16 -16l-48 -32q-18 0 -24 40l8 8h8zM416 1104h56l184 -176 q6 -56 32 -56h16l8 8h8q224 -234 224 -440q0 -168 -40 -168q-72 18 -72 40v8h40v8q-96 0 -96 56q-18 18 -88 24q-24 110 -80 224v8q28 40 64 40l-32 40v8q0 12 32 24l-16 80l16 16l-40 40v8l8 8v8l-72 48q-144 -22 -144 -64h-8q-14 0 -24 72l-32 16l-40 -32q0 -68 72 -104 v-8l-8 -8h-8q-128 126 -128 152q140 120 168 120zM144 496h32q18 0 24 -40h-8l-40 16h-8v-8q24 0 24 -16l-32 -8v-16q32 -4 32 -24l-16 -16q-64 0 -64 40l-8 40zM192 312q44 0 80 -48l-8 -40l8 -32h24l24 16h40q0 -28 120 -64q104 -96 192 -96l16 -24l-64 -16v-120h-16l-8 8 l-48 -16h-136l-16 16v104l-112 56q0 20 -120 128l-40 88zM192 256v-8h16l8 -8l16 16v8l-8 8h-16zM888 256h8l16 -16l-8 -8h-8l-8 8v16z" />
<glyph unicode="%" horiz-adv-x="1360" d="M288 1808q224 -32 224 -224v-64l-16 -16l-56 16l-72 -8v56l-16 88q32 16 32 48q-40 -22 -40 -48q-88 0 -88 64q0 28 -32 64q0 16 64 24zM1048 1800h120q16 0 16 -24l-64 -128q-40 0 -40 72v24h-8v-72h-48l-24 24v8q0 46 48 96zM176 1768l56 -80q-56 -28 -56 -72l40 -24 v-232q0 -16 -48 -24v8l-8 -8h-64l-16 16v8l32 32l-32 48h16l8 -8l72 24v16l-24 8l-72 -16v40q0 24 72 24v8q-72 0 -72 24v32q0 112 96 176zM952 1600l40 -64v-16h-16l-56 8v16q0 44 32 56zM464 1504l24 -8v-16h-120v16h24zM504 1456l8 -8v-24l-56 -8v8l-8 -8q-80 8 -80 24 l8 8h72zM1016 1440q0 -42 -24 -48h-56v-16h48q0 -50 -120 -248q-32 16 -32 40l-40 -8l-8 24l-24 -16q-16 0 -16 24q18 64 64 64h8v8l-32 8q48 144 104 144zM424 1400l16 -16h8l56 8l8 -8v-288l-16 -96h-8l-48 40h-24v-8l32 -96q-36 -32 -56 -32l-48 16h-24q-32 -16 -32 -40 q-136 26 -136 64q-50 0 -72 120v176q0 16 24 16v16q-24 0 -24 16v16l16 16h56l56 8l8 -8v-224q0 -48 48 -72h32q58 0 80 88l32 16q0 16 -32 16l-8 8v160q0 16 48 16v8q-48 0 -48 24v32h24l8 -8h8zM880 1344v-8h40v8h-40zM128 1144v-8l8 -8v-8l-16 -16l40 -8h16q-8 48 -24 48 h-24zM720 1128h8v-48l-24 8v24zM760 1056h24l40 -32q-18 -48 -32 -48l-72 24l-24 -8q0 -34 72 -56v-8q0 -40 -120 -256h-8l8 -8v-8l-24 -24q-96 96 -96 112l136 288l64 -16q16 36 32 40zM1040 920l8 -8l8 8l8 -8v-8l-8 -8v-8h16l8 32q54 -6 112 -48l-8 -8v-16l8 8h16 q72 -54 72 -184v-144l-16 -16q0 14 -56 48h-8v-8l48 -64v-8h-56l-56 -8l-8 200v56q-40 42 -40 72h-8q0 -32 -72 -32q-24 -26 -24 -72l-80 -16v8l-8 -8h-56v32q50 208 200 208zM1128 880l-8 -48h24v48h-16zM1176 736l-16 -16v-32q24 0 24 -24h16l32 24l-8 48h-8l-8 -8l-8 8 h-24zM904 656h64l16 -16v-8l-8 -8l8 -8v-32l-8 -8l8 -8v-8l-8 -32l8 -32v-8q0 -16 -56 -16v-8q56 -6 56 -24l-8 -8h-8l8 -8v-8l-16 -16h-40l-8 8l-8 -8h-48l-16 16v216q6 24 64 24zM456 480h16l56 -56q-118 -288 -152 -288l-24 -8l-8 8h-8q-56 -20 -56 -56q18 -44 56 -64 q-16 -48 -32 -48h-128l-16 16q152 336 185 336t39 48l-8 40l16 16l-8 32l24 16h16v-16h56v8h-24v16zM1200 464v-8l24 8l8 -8h8l8 8h8l24 -8l-8 -24l8 -40v-168q0 -88 -24 -88l-88 168l-8 8h-8l-8 -56h-16v184q0 16 72 24zM856 376h112l16 -16v-32l-8 -88l8 -32h-8l8 -8v-8 l-16 -16l-8 48h-8q0 -64 -40 -64q0 -24 -48 -48q-24 44 -24 88l8 8h8l8 -24h8v8l-32 64l8 8l-8 40v56zM880 296l16 -16h16l56 8v16h-32zM976 168h16q0 -24 24 -24l8 -8v-8l-24 -120h-8q-52 0 -120 88v16q72 26 104 56zM1088 144l8 -8v-8h-16l8 -24q-6 -112 -24 -112l-8 8h-8 q20 144 40 144z" />
<glyph unicode="&#x26;" horiz-adv-x="1184" d="M456 1808l144 -8l48 -48l-40 -104v-8l88 80q184 -92 184 -272v-8q0 -184 -216 -416l-56 8h-232l-48 8l-8 -8h-8l-32 8l-8 -8h-8q-54 0 -104 192l8 24q-24 0 -24 16h8q-24 44 -24 128q0 340 328 416zM488 1760l-56 -8v-8h40l80 8v16l-8 -8h-56zM296 1696v-16 q6 -20 128 -112q-48 -78 -48 -152v-16q0 -62 72 -256q184 200 184 312q-22 152 -128 152l-64 -24q-28 0 -112 112l-8 -8h-8l-8 8h-8zM648 1584l8 -8v-8l56 8v8h-64zM664 1512v-16h32l104 32v16h-24zM168 1504v-8h40v8h-40zM144 1480v-8l56 -8l40 8v8h-96zM744 1472v-8l48 -8 l8 8v8h-56zM832 1408v-8h32l-8 8v8zM600 1312l8 -32h24l40 -8q-14 40 -72 40zM528 1224q-10 -56 -32 -56q16 -80 32 -80h32l16 16v24q0 68 -48 96zM248 1016h72l72 -8l8 8l56 -8h192v-8q-58 -94 -80 -104l96 -200h-40l-8 8l-232 -32v-8q170 -6 184 -32l-8 -8h-8l-8 8l-40 -8 h-64q-16 0 -16 24h-8q-16 0 -16 -24l-8 -8h-8l-8 8l-8 -8h-24q-34 30 -128 64q0 26 24 56l-24 64l64 104v8l-32 96v8zM864 872q232 -52 232 -64v-8q-70 -304 -128 -304l-8 -8h-40l-80 8l-16 -16h-16l-24 16h-72v-8h16v-8l-8 -8v-8l200 -16l40 8l16 -16q-16 -36 -32 -40 l-136 8l-8 8l-8 -8h-32l-96 -8l8 56q-56 -52 -56 -88h-16q-144 188 -144 232l24 -16h8l24 16h32q16 0 16 -24h8l48 32l-8 8v8q0 14 48 24l24 -8l24 8l56 -80h8q0 28 40 56h-16v16l16 16h56l56 8v-8l96 16q0 24 -192 24l-8 8zM328 768v-32h32l24 24v16l-24 24zM200 656v-16 h-16l8 -8v-8l-16 -16h-48v-16l8 8h8l64 -16l128 8v8l-88 8l16 32l112 -48q-48 -100 -48 -192v-56l-56 -16l-24 8q-8 -24 -48 -24v16q0 144 -24 144l-32 -168v-72l16 -16l40 72l8 -8h8q0 16 120 48h8q0 -60 104 -96v-32h16q0 48 80 48l80 88q0 26 40 48q80 -40 184 -40l32 8 q72 0 104 -48l-32 -8v-8h16v-8q-62 -46 -176 -72q8 -32 48 -32l128 16l8 -8h8l112 40l8 -8v-184q0 -16 -24 -16q-116 0 -296 136l-56 -56q-58 208 -112 208v-8l-8 -8q8 -100 56 -240q-104 -56 -184 -56h-32q-270 0 -360 312l-8 104v24q0 16 24 16v8h-24q20 176 80 176 q0 14 40 24zM800 576q0 -16 -24 -16v-8h16l16 24h-8zM560 544l112 -72v-8h16v16zM712 544v-8h40v8h-40zM184 200h32l16 16h-32zM888 112v-8h24v16z" />
<glyph unicode="'" horiz-adv-x="392" d="M80 2000h144l40 -40l-8 -24l8 -8v-8l-8 -8l8 -88h8l8 40l-8 8v16q24 0 24 16t-24 16v16l16 16l24 -56l-24 -280l-32 -16l-40 8l-72 -8h-16q-22 0 -40 296l160 -8v8q-168 18 -168 32v72zM120 1792v-8l136 -16l-24 24l-8 -8l-40 8h-64zM240 1616l8 -8h8l8 56v40 q-18 0 -24 -88z" />
<glyph unicode="(" horiz-adv-x="680" d="M440 1960q152 -66 152 -80q-264 -586 -264 -936l24 -200h-8l56 -240h-8q-280 110 -280 144l-24 152h8q16 0 16 -24h8v24l-40 96v88q0 436 344 976h16zM264 1608v-8h48v8h-48zM128 600h8l64 -24v-16h-56l-16 16v24zM152 552h72l184 -72v-16l-24 8h-16v-8q44 0 56 -32 l-224 -72q-24 30 -24 72q26 16 80 16v8h-24v16h24v8l-32 8l-72 -16v32l8 8v8q-24 0 -24 16zM320 496v-8l24 -8h8v8l-24 8h-8zM432 392l32 -96q0 -32 -88 -48l-8 8l-24 -8q0 -24 -32 -24v-16l80 8l8 -8q0 40 72 40q22 -8 112 -256l16 -24q-122 -72 -152 -72h-24 q-32 16 -32 48l64 32l32 -40v16h8l-8 8v24l24 32q-50 0 -72 48l-16 16v-8l24 -64q-42 -32 -72 -32q-128 216 -128 264h56v8l-56 8q-30 22 -40 64zM336 72v-8h16q44 0 64 32v8q-80 -14 -80 -32z" />
<glyph unicode=")" horiz-adv-x="680" d="M248 1960q352 -558 352 -1016l-8 -32v-8q0 -254 -72 -256q-104 -4 -160 -48l-64 -8v8l48 280l-8 8v8l8 8l-8 8v8l8 24l-8 48l8 8q-72 508 -264 872v8q140 80 168 80zM408 1008v-8l56 -8l48 8l-16 16h-48zM408 776v-8h8l32 8v8h-16zM528 784l-16 -40v-8h8l16 40v8h-8z M528 616h24q-28 -198 -200 -544l-144 72h-8v-8q124 -50 144 -88q-86 -168 -104 -168q-160 72 -160 96l40 80q56 -28 56 -40q-24 -48 -48 -48q0 -22 88 -56l-56 48v8q18 48 32 48l24 -8l-96 64q80 190 168 480zM392 496v-8h16l40 16v8h-16zM304 280h8q30 24 104 24v8h-16v8 l-8 -8h-8l-8 8q-72 -24 -72 -40z" />
<glyph unicode="*" horiz-adv-x="832" d="M128 1544q40 -24 40 -56h-8l-40 8l-8 -24h-16q16 72 32 72zM456 1480q128 -14 128 -56l-8 -24l24 16l8 -8h8q0 40 16 40h16l8 -8l80 16l16 -24l-24 -8l-24 8v-8q0 -44 -176 -64l-8 -8l-8 -24h-8l8 -8l-8 -40q64 -90 64 -112h-8q-110 0 -144 88l-8 8q-22 -54 -48 -72l-8 8 l-16 -16l-8 8h-8q0 -16 -24 -16l-8 8h-8l-48 -16h-16v48l8 8v8l88 -24v8l-96 88l32 24v-16h8q128 0 128 40q-14 14 -96 24l-24 -8v8q0 42 24 72l40 -16q92 48 128 48zM104 1456h8l32 -16v-32l-16 -16q-48 8 -48 24v8l24 24v8zM536 1304q106 0 152 -80l-56 -48h-16 q-2 38 -80 128z" />
<glyph unicode="+" horiz-adv-x="1056" d="M432 1296h72l8 -8l8 8h24l56 -56l-144 -144h-8q-24 8 -24 48v112zM616 968h8v-16h168l56 -16v16h40l88 -88v-48l-8 -8l8 -8v-24l-24 -24h-16l-8 8l-8 -8h-40l-8 8l-8 -8h-8l-8 8h-8l-48 -8v32h-24q0 -32 -24 -32v8l-8 -8h-16l-8 8h-8l16 112l-16 64l-24 -24v-112 q0 -42 -24 -48v8l-32 -8v-296l-112 32l-72 -8v-16l-16 16v272h-16v8l120 128l56 -8h48l8 -8h8v8l-56 64zM96 952l8 -8v-16h-24v8zM184 952h88l16 -16v-8q0 -26 -32 -24q-72 2 -72 24v24zM152 848l8 -8h8l24 8l8 -8v-8l-72 -72l-8 8l-16 -16h-8l-16 16v56q0 16 72 24z M760 808v-8l56 -8l8 8v8h-64zM296 784l88 -16v-16h-16l-8 8l-8 -8h-24l-8 8l-8 -8h-16l-8 8l-8 -8h-8l-8 8l-8 -8h-8l-16 16l8 8h8l40 -8l8 8v8zM568 440v-16l-56 -16h-80v16h8zM608 432l8 -8v-16h-40v16z" />
<glyph unicode="," horiz-adv-x="424" d="M256 252h72l16 -16v-248l-16 -16q-10 22 -72 56v96l-8 56h-8q0 -40 -16 -40h-64l-16 16v40l-32 8q-10 -40 -24 -40h-8v16l8 8l-8 8v16h72l16 -16l8 8l104 -16l24 8v8l-40 8v16h24v8h-32v16zM168 132l8 -8l40 8h16v-16q0 -18 -40 -24l-8 8q0 -24 -32 -40h-16v48 q0 12 32 24zM264 76v-8h56v8h-56zM240 20q0 -40 16 -40v16h16q30 -24 56 -24q-36 -120 -88 -184h-88l-16 16l64 208z" />
<glyph unicode="-" horiz-adv-x="936" d="M96 988h136v-16h-16v-24l8 -8l24 -8v-8q88 8 152 40v-112l8 -40l8 8l8 24h8l-8 8v8l8 8l-8 8v56q0 40 16 40l24 -8v8l16 16h360l16 -16v-240l-16 -16h-120l-8 8h-8l8 40v24l-16 136h-8l-8 -80l8 -120l-8 -8h-496q-16 0 -24 56l8 8q-88 0 -88 32v96q16 32 48 32v8h-8 l-32 -16l-8 8v32zM680 948v-16h8q56 0 88 -16l64 8v8l-88 24zM328 844v-8h32v8h-32zM720 756q12 -32 24 -32l16 72l-8 24q-24 -4 -24 -64h-8z" />
<glyph unicode="." horiz-adv-x="424" d="M96 252h24l24 -16l16 16h64l16 -16v-16l-16 -16v8l-8 -8h-24l-8 8l-8 -8h-16l-8 8l-8 -8h-48l-16 16v16zM272 252h56l16 -16v-48l-8 -8l8 -8v-56q0 -16 -24 -16q-72 2 -72 24l8 8l-8 40v8l16 24l-16 16q12 32 24 32zM96 196l8 -8l8 8h112l16 -16v-24l-16 -24l-8 8h-120 l-16 16v24zM88 132l8 -8h136v-16l-136 -8l-16 16l8 8v8zM96 92h120v-16h48l16 -16h-8l8 -8v-8q-4 -24 -56 -24v-8q56 -2 56 -16l8 8h48v-16h-240l-16 16v72zM328 52l16 -16l-8 -8h-32l-16 16l8 8h32z" />
<glyph unicode="/" horiz-adv-x="1088" d="M824 1828l8 -8l8 8h48l8 -8l8 8h56l8 -8l8 8h16l16 -16l-592 -1544h-8q-144 144 -144 160q504 1344 536 1400h24zM192 260h16l32 -32h-48v32zM184 220q88 -10 88 -24l8 8h96l8 -8h8q-56 -160 -80 -160l-32 8l-32 -8l-16 16h-88l-8 8h-8zM112 -4h152v-8l-48 -48h-136 q0 44 32 56z" />
<glyph unicode="0" horiz-adv-x="984" d="M544 1748l40 -40l32 24q40 -10 40 -24l-8 -8v-8q80 0 80 -24v-48l8 -56l8 8h8l24 -16q32 0 32 32h16q80 -128 80 -224l-24 -32q-68 0 -168 128l-56 56q48 56 48 96h-16l-64 -56h-8l-160 160l-80 -8l208 -216v-16l-16 -16q-40 24 -80 24h-8q-136 -20 -136 -136l-8 -8h-96 v-24l16 -16h40l40 8v-536l-16 -16l-8 8l-64 -24q0 -20 80 -24l8 -8v-8l-8 -8v-8l-80 24h-80l-80 -8l-8 8v216q0 16 24 16v8q-24 0 -24 16v80l16 16l16 -16q60 30 64 48v16l-16 16h-16q-26 0 -56 -24h-8v264q26 200 88 200q0 62 144 144l8 8h8l8 -8v-16l-16 -16l-16 16v-8 q0 -40 80 -136h16q0 86 -48 136q16 64 120 64h72zM144 1340l8 -8v-24l-8 -8l8 -48q26 20 56 152l-8 8v48h-8q-34 -6 -48 -120zM608 1468q144 -112 144 -208q24 -78 64 -120v-8h-24l-40 -8l-8 8q0 -24 -32 -24v-8q52 -32 112 -32l80 16v-72h-8l-24 24l-8 -8h-8l-64 24v-72 l-40 8l16 -72l-8 -8h-64l-56 -8l-8 8v432q0 52 -40 96v16zM176 1236l16 -16h56l16 16l-8 8h-40zM848 1196h8l40 -40l-24 -24h-40zM664 948v-8h40v8h-40zM832 956l72 -48v-384l-8 -8v-8q-40 16 -120 16l-80 -16v-8l56 -16h152v-120l-24 -24q-220 120 -248 152v72l8 8l-8 8v72 l16 24l-16 48v64q0 16 24 16v8q-24 0 -24 16v16q0 24 80 32v-8l8 8l40 -8l24 8l8 -8q0 16 24 16l-8 8q8 64 24 64zM752 716v-24l72 8q0 20 -32 24zM96 652l16 -16h56l144 16l24 -32v-48h-16l-8 8l-72 -24v-24h40l56 16v-56l-16 -24q18 -18 24 -120l-8 -8q76 -88 128 -88h64 q0 -104 80 -152h24l8 40q0 74 -96 88l-16 32l64 32l8 -8h8l-8 8v16q32 36 32 112v32h8l176 -96v-8q0 -18 -72 -24q-54 -24 -72 -48v-16h16l32 8l24 -8q0 18 120 56h8l24 -16q-116 -320 -384 -320h-40q-248 0 -376 288l-16 96v32l128 64q0 18 80 32q0 24 -120 24l-40 16 l-32 -8l-16 16v96zM328 212v-40h8v40h-8zM368 164v-48h8v48h-8z" />
<glyph unicode="1" horiz-adv-x="648" d="M472 1724h64v-16l-8 8h-8l-24 -24q0 16 -24 16v16zM488 1644h16v-56h16v-8l-8 -8l8 -24l-8 -32q10 -32 56 -80v-8l-8 -8l8 -40v-32q0 -16 -64 -24l-8 8h-8l-24 -8l-8 8v8l24 72l-16 16v16l8 8v8q-16 0 -16 40l-8 8h-8l8 40v8q-34 0 -48 32q56 56 88 56zM536 1644l16 -16 l-24 -16l-8 8v8zM288 1604l16 -16l-16 -16h-24v8zM232 1564l8 -8v-32q0 -18 -40 -24v8l-8 -8h-48v-16q32 0 32 -16l-72 -72l-24 8v88q6 18 112 48zM312 1252h8l24 -8l32 8q120 -4 120 -16l8 8h48l16 -16v-96l-8 -48l8 -40v-32q-6 -18 -128 -88l-56 -48v-32q42 40 112 40 l-16 24l80 48l8 -8v-16l-8 -8l8 -8v-40l-8 -8l8 -8v-72l-8 -32l8 -8v-8l-8 -8l8 -56v-80l-16 -16l-64 72v8q24 0 24 16v8h-56q-128 106 -128 160q-32 0 -32 24v96q0 16 32 16v8q-32 0 -32 16v120l16 16q144 0 144 24q-26 16 -104 16v8l-8 -8h-32l-16 16v40zM312 740 q256 -254 256 -280l-8 -8l8 -40v-16l-16 -16l-144 32q-62 -56 -80 -56v-8l120 -104q0 -72 16 -72v16h8l-8 8v24l8 8v8l96 -64v-160l-16 -16h-8l-248 248v480zM552 556l8 -8h8l-8 -48h-8v56zM312 204l192 -200l-8 -8h-48l-104 48v16l16 16l-8 8v48h-8l-40 -32h-8v88zM320 36 l48 -24v-16h-56l-16 16z" />
<glyph unicode="2" horiz-adv-x="1000" d="M336 1684q34 0 216 -200v-8h-64q-84 0 -128 -128h-16q0 32 -24 32q-48 -16 -48 -32q12 -32 64 -32v-16q-110 -72 -144 -72q0 -28 -32 -40h-16l-56 32v8l8 8v8l24 -8l64 8v8q-32 0 -32 16t32 16v8q-24 0 -24 16h-48l-24 16q0 186 208 352zM256 1468l8 -8v-8 q-32 -10 -48 -40l16 -16h40l-8 8v8l24 40l-24 16h-8zM680 1364l96 -104l-96 -32l-8 8v8l8 40l-16 72l8 8h8zM280 1212h48l16 -16l-8 -8h-96v16zM864 1196h32q24 0 24 -32q0 -78 -56 -136l8 -8q0 -76 -88 -128v-8h16q-36 -136 -128 -136h-8v-8l32 -8l8 8l8 -8 q-46 -84 -88 -120h-40l-104 104v8h32v8q-72 0 -72 24v8l48 64h8l8 -8h8l8 24l8 -8h8l32 8l8 -24q96 20 96 80q-28 32 -56 32l-64 -16l48 120h56v24h72l32 -8q104 16 104 32v16h-40v16h40l-24 40v8h16l-8 8v8zM376 660l96 -104v-16h-8l-152 40q32 62 64 80zM376 508h40 l16 -16l-8 -8l48 -8l40 24h8l24 -16q-56 -98 -72 -104h-8l-8 8h-8l-8 -56h-8q-52 58 -120 88l-48 -16q-16 32 -16 88l8 8h16l8 -8l8 8h56l8 -8h8zM416 468l-8 -32h16l8 32h-16zM200 420h16v-8l-8 -8l16 -88h24l8 56h16q0 -42 56 -88v-56l-16 -16l-24 48h-8v-8l8 -48v-8 l-16 -16l-128 120l-8 -8h-16v16zM544 260h176v-16q-24 0 -24 -16q46 -72 80 -72l64 40l72 -80v-104l-16 -16h-32q-54 62 -64 104q-24 0 -40 24q-72 0 -152 80l-64 40v16zM80 36h16l32 -32v-8h-32l-16 16v24z" />
<glyph unicode="3" horiz-adv-x="992" d="M480 1748l8 -8v-8l-40 -16l-40 8v16zM464 1708h8l16 -16v-24l-8 -8v-8l120 -40v-16q-34 0 -64 -24l-72 64l8 40zM264 1660l96 -80v-8q-112 -14 -112 -40v-16q0 -14 48 -24q40 0 112 56l56 -48q-36 -40 -56 -40l-40 16l-8 -8v-8q0 -16 40 -16v-24l-16 -24l-40 16h-8v-8 q32 0 48 -32v-24l-48 -48h-88l-8 -8h-8l-8 8l-8 216v96zM792 1636q120 -124 120 -288l-8 -8v-8l8 -48l-8 -8h-8q0 16 -24 16l-8 8v8l24 8v8l-8 8v8l8 8l-72 24q0 -18 56 -24v-16h-16q-72 8 -72 72l-40 -8l-88 80h8l112 -32h8q-34 48 -64 56l-40 -8l-72 16v16h40l8 -8h8 l16 32l-24 40v8l40 -8q52 0 96 48zM288 1484l16 -16h40v16h-56zM688 1332l48 -48v-8l-40 -8l16 -48v-8h-24l-24 24l16 24l-8 8v48zM616 1092q16 0 16 -24q0 -26 -32 -72v-32l16 -24v-8l-32 -40v-8l24 16l16 -16l-8 -8l24 -40l-16 -16h8l8 8h8l8 -8v-8q0 -32 -64 -96l-40 32 v184l-8 56h-8l-8 -48l8 -8v-8l-8 -8l8 -8v-112l-8 -8l8 -8v-8l-8 -8v-8q-144 20 -144 40v112q0 16 48 16v8q-48 0 -48 16v40q0 48 92 64q116 20 140 40zM464 860l16 -16h32v16h-48zM328 460l32 -152l-104 -96l-8 8v128q28 22 40 88h-16l-8 -8h-8l-8 8v8zM96 444h48l16 -16 v-216h-16q0 74 -56 112l-8 32v72zM704 444l24 -8v-8l-16 -16l-16 24zM664 436h16l16 -40l-32 -32l-8 8l8 8v56zM384 284q48 -32 144 -40v-8l-8 -8v-8l-128 24q-32 -10 -48 -40v-8l24 -32v-8h-24l-24 8v-8l-16 -32l8 -8v-32h-16v-16l16 -24l-8 -8v-8q-84 40 -96 72l8 8h8 l32 -16v8l-8 56l128 128h8zM896 260v-8q-32 -104 -64 -104l-16 24v8zM424 164h32v-8l-40 -40v8zM792 156l24 -24v-8q-82 -90 -152 -112l-8 8v8zM392 100v-8l-56 -56q0 16 -24 16v16q0 16 80 32zM480 100q0 -16 40 -16l8 -8v-80l-16 -16h-16v8l8 8q0 38 -64 64l-24 -8v-8 l48 -56v-8h-8q-58 0 -72 48v16q0 56 96 56zM560 76l40 -24l8 8l32 -48q0 -24 -80 -24l-8 8v64l8 8v8z" />
<glyph unicode="4" horiz-adv-x="920" d="M744 1724v-8l-136 -136h-8l-56 48l-8 -32h-16l-24 24q0 48 64 48l8 8v8q0 16 -24 16l-8 8v8l8 8h200zM800 1716h8v-184h-16q-6 48 -48 48v-8q0 -32 -24 -32q0 16 -24 16t-24 -40h-8l-32 32q152 168 168 168zM496 1588h32l8 -40v-40l-24 -24h-8v16h-24l-8 -32l8 -24 l-56 -48h-8v8q56 184 80 184zM536 1452h8q0 -16 88 -104q0 -16 -40 -16q0 -44 -192 -216l-24 16h-8q0 -74 -104 -152q-20 0 -24 32q122 314 176 320q0 14 120 120zM648 1452h16l8 -48h-16l-8 40v8zM800 1180l8 -8v-120l-16 -16l-16 16l-32 -8q-36 16 -40 32q12 38 96 104z M640 1020h16l16 -16v-136l-16 -16h-88l-24 24v48zM800 1004l8 -8v-352q-32 -48 -64 -48l-40 40v104l16 24l-16 16v32l8 24l-8 40v96h56zM552 844l56 -8h64v-48l8 -40h-8l8 -24l-8 -8v-8l8 -32l-16 -16l-120 104v64l8 8v8zM368 748h8l-40 -112h72l8 -8h8q-18 -48 -32 -48 l-112 72v8zM296 596l104 -32q0 -48 -40 -48v-8h16v-24l-32 -16h-8v8l8 8v8q-46 26 -64 56h16l-24 32zM616 572h8l24 -8v-16h-16l-16 16v8zM192 548q60 -10 64 -32v-32h-8l-56 56v8zM160 524l48 -56q-36 -16 -40 -32v-40l56 -8h24v-16h-152l-16 16v32l8 8l-8 8v16 q56 72 80 72zM640 516h24l16 -16l-16 -16l-24 24v8zM624 500h8l48 -32v-40q0 -80 -112 -80l-16 24h8l8 -8h8q12 136 48 136zM832 420l8 -8v-8l-24 -24h-8l-16 16q0 18 40 24zM280 396l8 -8v-8l-8 -8h-16v8zM800 268l8 -8v-248l-16 -16h-56l-32 32v16q16 32 40 32v24 q-40 6 -40 24v40l24 24l24 -16q0 78 48 96zM608 60q36 -14 64 -56l-8 -8h-88l-16 16z" />
<glyph unicode="5" horiz-adv-x="976" d="M528 1724h256v-8l-96 -128h8q82 118 112 136h48l16 -16q-64 -114 -64 -168h8l56 16v-80l-16 -16h-248l-8 8l-8 -8h-200v16q64 8 64 64h8l56 -8l-40 56v8l32 48l-8 8h-8q18 72 32 72zM128 1716h8l16 -16q-6 -104 -24 -104q80 -160 112 -160l48 -8h40l40 8l8 -8v-232 l-16 -16l-40 8h-16v-8q40 0 40 -16q-16 -48 -80 -48v-8l8 -24l-136 -128l-24 24v8l8 8v8l8 -8h8q40 22 40 64l-64 48v592zM664 1564l-56 -80h8l56 80h-8zM216 1284q0 -16 80 -32h8v8l-72 24h-16zM520 1196h56q160 0 240 -112q0 -42 -40 -64h-32l-8 8l-88 -24v-8 q144 0 144 -24v-104l-16 -16h-40l-32 8l-32 -8q-56 34 -80 88q-40 40 -104 40q-90 0 -112 -136v-48l-16 -16h-48l-128 128v16q154 166 208 200l56 -8h48l80 8v8h-160v8q14 24 104 56zM696 948v-8h72v8h-72zM880 908h8v-80l-88 -240h-112v-8h112l8 -8v-8l-16 -72l-40 8h-104 l-24 24v16l8 8l-8 8v72l16 16h56q0 24 24 24l-16 16h-48v-16h-16l-16 16v8q0 24 184 24v8h-176l-8 8v32l8 8l-8 8v32q0 14 24 16l136 8v-8l-16 -48l8 -8l8 8h16v-40h8q58 166 72 168zM888 492h8v-64q0 -208 -56 -208l8 -8v-8q-44 -96 -168 -176q-50 -32 -96 -32 q-16 0 -16 24h-8q0 -40 -16 -40h-48q-16 0 -16 24h-8q0 -24 -24 -24q-120 0 -232 104q32 12 32 24q-16 16 -72 16l-24 32q0 16 24 16l8 8v8q-96 0 -96 168l-8 64l32 24l8 -8l8 8h16v-16q-32 0 -32 -16l176 -8h40q18 0 40 -96q50 -56 96 -56h8l96 16l24 -8l72 8h8l40 -8 q0 30 88 48l-16 16l8 8v16q-112 32 -112 64v16h8l8 -8l48 8v8q-120 0 -120 32l16 16h144l16 -16h-8l8 -8v-8l-8 -8l8 -24h24zM272 356v-40l16 -16h16v40l-16 16h-16zM336 212v-8h72v16h-8l-24 -8v8zM656 212v-8h40v8h-40zM792 212v-8h32v8h-32zM256 132l16 -16l112 16v16 h-80zM280 60h16q52 20 56 40h-16q-56 -28 -56 -40zM360 100l16 -16h48v16h-64z" />
<glyph unicode="6" horiz-adv-x="952" d="M472 1748h56q14 0 24 -72l-8 -32l8 -40q16 0 40 120h8q120 0 240 -232q0 -44 32 -144h-8l-32 24l-8 -8l-40 8h-8l-40 -16v-24l72 -8l40 8v-16l-24 -24h-160l-32 8l-32 -8q0 192 -136 192q-96 0 -128 -128l8 -8v-344q58 48 88 48h8v-8q-106 -72 -144 -72l-8 8v8l16 16 l-96 48l-8 -8v-16q0 -38 56 -96l-32 -16v-24h72q40 0 40 -16l8 8h88v-16h-40l-80 -8v-8q88 0 88 -16l-24 -16h-152l16 -16h120l-16 -48l-40 8h-120l-40 -8v8l-8 -8h-40l-16 16v8q0 16 80 16v8q-80 0 -80 16v520q0 286 288 392l40 8l-8 -56l8 8h8l24 -8v8q12 56 32 56z M800 1540l-8 -32v-8h8l8 32v8h-8zM152 1484l8 -8v-8l-16 -88h8l24 -16l64 128l-8 40h-24q-36 -48 -56 -48zM648 1516v-8l32 -8l24 8v24h-40zM184 1324l-32 8h-8v-24l24 -24h24q32 14 32 56zM512 1068l-24 -24h-8l-16 16l8 8h40zM792 932h8l16 -16q-18 0 -40 -72l48 48h8 l8 -40q0 -36 -80 -104q0 -24 -16 -24l-8 8l-8 -8h-120q-18 0 -24 56l-40 56v16l24 24h16l16 -16q72 8 160 48v-8q32 0 32 32zM848 812h8l8 -80l-24 -8l-56 8v8zM96 740l96 -8l144 8l8 -8v-8l-8 -8l8 -8v-40q0 -24 -104 -24l-8 8l-8 -8h-8l-8 8l-40 -8v-8l40 -8h88l40 8l8 -8 v-200q0 -16 -48 -16q0 -14 48 -32l16 -72q-48 -16 -48 -32v-32q120 0 120 -80l-8 -24q56 10 56 24v56h16l24 -40v-8h8l8 24l-8 8v8l16 40h-16l-24 -16h-16v16q104 22 104 152l16 16q66 -30 208 -48l48 -40v-8q0 -16 -32 -16l-8 -8v-8q24 0 24 -32q-106 -280 -368 -280h-72 v56h-8v-24l-80 24q0 -18 40 -24v-16q-192 82 -192 144l8 24h-8l-8 -8h-8q-72 100 -72 224v344zM592 708h200v-16q-80 0 -160 -56l-40 -8v80zM816 708h40v-16h-40v16zM624 244l-24 -48q14 -136 48 -136h16q24 8 24 48v16q0 120 -64 120zM192 132h8l48 40h-8zM240 140v-8 q48 -8 48 -24v-8l-8 -8v-8h8l24 24l8 -8h16v8q-16 0 -16 32h-8v-16h-8l-56 16h-8z" />
<glyph unicode="7" horiz-adv-x="944" d="M96 1724h120q0 -16 24 -16q0 -70 144 -240l-8 -8h-104l-24 16h-40l-24 -16h-88l-16 16v232zM672 1724v-16h-16v-8q34 0 56 -48v-8q-48 0 -48 -16v-16h8l8 8h8l8 -8v-8l-32 -8l16 -16l40 40h8l8 -8q40 -18 40 -56l8 8q48 -6 48 -16l8 8h8l16 -16v-56q0 -46 -64 -288h-16 q-108 164 -176 224l-8 32l8 8q-40 2 -136 144v16h16v8l-80 56l-24 32l8 8h280zM88 1668q20 -48 72 -48q32 8 32 48q-30 24 -56 24q-24 0 -48 -24zM496 1660v-16h56l16 16v8h-16zM568 1244l16 -48h-24l-16 16v8zM616 1180l136 -192l-8 -8q-48 32 -80 32v-8q0 -22 -72 -48 l-88 96q16 120 56 120zM568 1148v-8l40 -8h16l-16 16h-40zM512 1020l64 -88q-24 -18 -24 -56q-40 -24 -40 -56l8 -8l-8 -8h-8v8l-56 -16l-8 8l48 144l-8 8v8q14 56 32 56zM448 780q88 0 88 -120q24 -18 24 -40h8q0 24 16 24q24 0 24 -32l8 8h8l24 -40q-26 -128 -56 -128 q-72 32 -88 56l24 24l48 -8h32v8q-72 0 -72 24v8q0 16 32 16v8q-22 0 -56 40l-48 8h-8l-56 -8q0 96 64 96v24q-32 0 -32 24l8 8h8zM304 244h8q10 0 32 -80q80 0 80 -48l8 -40h48l24 24v8l-40 40q16 36 32 40l40 -16q-22 -176 -48 -176l-8 8l-56 -8h-176v8q8 88 32 88 q52 -24 152 -40h8v8q-168 40 -168 64z" />
<glyph unicode="8" horiz-adv-x="1008" d="M520 1748q170 0 256 -104v-8l-8 -8l8 -32h48q72 -98 72 -168l-8 -8l16 -16v-48h-8q-16 0 -192 160q48 34 48 72l-8 8l-72 -48h-8l-224 192l8 8h72zM384 1732q64 -40 256 -216l-40 -48q-42 32 -72 32h-48q-58 0 -112 -56l-8 8h-8l-24 -8v-24l16 -16l-8 -96v-24 q0 -240 160 -240l104 24v-208q0 -16 -24 -16l-8 -8v-8q32 0 32 -16v-8l-48 -48l-24 48h-16l-16 -16l8 -40q-138 0 -160 -176v-8h-16l-176 224q10 26 128 128l8 40l-48 48h-16v-8l24 -56h-8q-86 72 -88 112h8l32 -8q0 32 48 32q80 42 80 64l-32 -8l-72 8q-72 -12 -72 -72 q-24 0 -48 136h8l-8 8v112q0 266 208 384h24q0 -52 72 -152h16v24q0 78 -40 112l-8 -8h-8l-24 24q8 24 48 24zM592 1708l16 -16h48v16l-24 8zM552 1660v-8h64v16l-40 8h-8zM672 1492l232 -200l-16 -16h-24q0 22 -48 32l-32 -8v-16q120 -20 120 -32q0 -98 -32 -184h-16l-8 8 l-8 -8h-8l-136 56h-8v-8q12 -36 104 -104v-32h-16l-8 8l-40 -16l-104 112v16q52 80 48 168t-48 192zM160 1396v-8l56 -8l40 8v8h-96zM240 1364v-16h88l-16 16h-72zM184 1316q0 -24 72 -24h8v8l-72 16h-8zM408 1044v-8l8 -56q-72 -86 -72 -184l8 -8h8q34 80 80 80l32 -8l8 8 v8q0 18 -64 40v8l16 88l-8 32h-16zM616 1036h16l104 -104l-104 -104h-16v208zM552 956q0 -24 -16 -24l-8 8h-8v-8l16 -16h32v24zM720 900h16q56 -30 56 -72v-64h32l24 16q24 0 56 -104v-8h-16l16 -24q-138 -160 -184 -160l-8 -8q0 -24 -16 -24h-8q-36 0 -40 184l-40 64 q8 136 48 136l8 -8v-8l-8 -8v-8q24 0 24 -16q56 8 56 24v32q-32 0 -32 24l-8 -8h-16zM432 788v-24h8l40 8v16h-48zM592 780l8 -8v-32l-16 -16l-24 24zM744 644v-8h40v8h-40zM80 612h8q30 -18 56 -64v-8h-48l-16 16v56zM880 556h8l40 -48v-88q-24 -264 -96 -264 q0 -50 -96 -112q-34 26 -160 200v24l16 16h16l8 -8l8 8h8q102 -80 128 -80h8v16q-16 0 -104 80l80 16l56 -72h8q42 0 48 24v24q0 12 -64 40v-16h-16q8 72 24 72h104q-12 96 -40 96l-16 -16l16 -56h-72l-16 16v16l88 88l8 -8h8v32zM96 420l8 -8v-8h-8q12 -32 40 -48l120 48 l48 -64q-98 -54 -104 -80h8q42 0 112 56q104 -108 104 -136q-28 -64 -40 -64l-72 8h-16v-8l80 -16l-8 -56v-16h-24l-120 160l8 8l24 -8l40 8l56 -8v16q-64 0 -88 24l-8 -8h-8l-32 16l-8 -8h-8q-120 126 -120 168v8zM104 308l216 -280v-8h-8q-106 48 -168 160q-26 0 -56 120 l8 8h8zM432 124h16v-24h-16v24zM440 84q12 0 40 -80l-24 -24l-64 8q26 96 48 96z" />
<glyph unicode="9" horiz-adv-x="952" d="M472 1748h48l16 -16l-40 -40v-8h8l48 56q104 0 232 -152l-16 -24q56 0 56 -48q24 0 48 -184h-8l8 -8v-16l-8 -32l8 -24l-8 -8h-24q-110 32 -160 32h-48q-20 0 -24 32l8 8v8l-32 104q-48 48 -104 48h-16q-112 0 -112 -176v-40q-20 -32 -168 -64l-24 -32l72 -8q64 14 64 32 q56 -8 56 -24v-72h-16l8 8v8h-8l-104 -8l-72 8l-32 -8l-48 56v24q6 24 64 24h32q0 18 56 64v16q-72 12 -72 24l-8 -8h-8l-8 8l-8 -8h-24v8q86 112 160 112h16v16l-8 40l80 80h-8l-120 -120l-112 -104l-24 -16l-8 8v56l40 56v8q-24 0 -24 16l8 8h8l-8 8v8q114 264 368 264z M360 1692v-16l16 -16h56l16 16l-24 16h-64zM368 1580v-16l120 104v16zM624 1564l-8 -8v-16h8l8 24h-8zM784 1284l48 -16q0 16 24 16v16l-24 8q-48 -10 -48 -24zM272 1268v-8l40 -8l8 8v8h-48zM848 1196h24v-8l-8 -8l8 -40v-8l-16 -16h-8q0 24 -24 24l-8 8v8l32 32v8z M88 1164q0 -24 80 -24q-4 24 -64 24h-16zM680 1148q50 -16 56 -40l-96 -16v8l-8 -8h-8l-16 16v16q0 18 72 24zM672 1084l32 -8h24v-16l80 8l16 -16l-8 -8v-8q36 0 56 -32v-48l-8 -8l8 -8v-16l-8 -8l8 -8v-104l-8 -8l8 -8v-104l-8 -48l8 -40q0 -62 -40 -80q-36 14 -64 56 q0 16 24 16l-8 8v24l16 24l-8 8l24 8l-16 32q0 32 48 32q0 12 -64 40v8l8 8v8q0 40 -32 40q-18 74 -112 168l-40 64q0 16 64 24zM160 1028l208 -176v-8l-40 -80v-104h-8q-128 0 -216 216l-8 40v16l88 -16l32 8q-8 24 -48 24h-80l-8 48q34 32 80 32zM344 996 q40 -112 112 -136v-24h-8l-168 144v8h48l8 8h8zM248 876v-8l8 -24l-8 -8h-8v16h-8v-16l8 -8h24v32zM224 804l16 -16h40v16h-56zM400 812q42 0 96 -72v-8l-8 -32l16 -32l-48 -16l-80 88zM720 548h8l40 -32v-8h-64v24zM752 476h40v-8q-160 -182 -160 -232l-8 -32l-88 16v-16 h-24l-16 32v8q48 0 104 72h16l-16 24q0 48 64 48q32 0 32 16v8l-40 48v8zM840 444h8l24 -24q-8 -176 -48 -192h-8l-8 8l-8 -8h-64l-24 24v32q0 42 128 160zM96 436h72l96 -64q-20 0 -40 -24q-40 0 -40 -48h-40v-8q28 0 32 -56l-16 -16l24 -24l-8 -8v-8l8 -48v-16 q-14 0 -48 56l16 16q-56 0 -72 168l8 8h8l8 -8h8q64 8 64 24q0 18 -96 32v8zM720 212h104q0 -44 -80 -120h-8v8zM184 116l40 -32l8 8h16l16 -16v-32h-8l-72 64v8zM504 116q8 -40 72 -40l40 -56v-16l-120 -24h-32l-120 16v48h16v-24h8l8 48l56 -16q0 64 72 64zM624 108 l16 -80l-8 -8h-8l-40 56zM296 76h8l16 -16q-16 -32 -48 -32v8q6 40 24 40z" />
<glyph unicode=":" horiz-adv-x="432" d="M96 980h136l16 -16v-8l-16 -16h-24l-120 -8l-8 8v24zM280 980h56l16 -16v-24q0 -42 -80 -104l-16 16v40l8 8l-8 8v8l8 8l-8 8v24zM96 924h136l16 -16h-8l8 -8v-48l-16 -16l-16 48h-16l-24 -48l8 -8v-32q0 -16 -88 -16v-8h88l8 -8v-8l-40 -40h-56l-16 16l8 8v8l-8 8v8l8 8 l-8 40v96zM240 820l8 -8v-8l-8 -8h-8l-8 8v8l8 8h8zM344 820l8 -24l-8 -8v-8l8 -24h-8l8 -8v-8l-16 -16h-40v48zM272 748h8l8 -24l-8 -8h-32v8zM128 252l16 -16l-16 -16l-16 16zM176 252h56l16 -16v-8l-40 8h-32v-16l-16 16zM272 252h16l16 -32v-8h-8l-8 8l-8 -8h-8l-16 16 v8zM280 204h48q18 0 24 -56h-8l8 -8v-8l-8 -48l8 -24l-40 8v-8l40 -56l-16 -16h-200l-16 16v40q24 0 24 32v8h-8v-16h-16v80l16 16l8 -32h8q0 32 16 32l-8 8v8l16 16h56l8 -8h8l-8 -8v-8l8 -48q0 -16 -72 -16v-8q72 0 72 -16l8 8h16l8 -8h8l-8 -40v-40q16 0 24 88h16v8 q-64 8 -64 24v56zM136 196l8 -8v-8l-8 -8h-8l-8 8v8l8 8h8z" />
<glyph unicode=";" horiz-adv-x="424" d="M96 980h40l16 -16v-8l-24 -24h-32l-16 16v16zM176 980h64v-40h-64l-16 16v8zM272 980h48v-8l-64 -64l-8 8q8 64 24 64zM336 948l8 -8v-208l-16 -16h-160l-24 16l-16 -16h-8v8l88 88h24l8 -8h8l16 16h8v-8l-8 -8v-8l8 -8h8l-8 -8v-32l16 -16q0 64 24 64h24v8h-40v8l8 8v8 q-48 8 -48 24v8zM96 924h128l16 -16v-16l-152 -152h-8v168zM288 252l16 -16v-16l-8 -40h-8q-14 2 -48 64l8 8h40zM336 252l8 -8v-8l-16 -16l-8 8v8zM128 244l8 -8v-16l-16 -16l-8 8v16zM336 212l8 -8v-32l-16 -16l-16 32zM232 180q16 -6 72 -96l-8 -8h-16v16q-80 0 -80 16 q22 72 32 72zM336 148l8 -8v-24h-8l-16 16zM264 84v-16h48l32 -32l-8 -8h-8l-32 8l-24 -8v-8h16v-8l-8 -8v-8q64 0 64 -16l-24 -24h-8l8 -8v-8l-24 -56h-8l-8 8h-8v-16h-16v88h8l24 -8v8q0 30 -120 64q0 -12 64 -48l8 -8v-56l-8 -8l8 -8q-6 -112 -24 -112h-8l-8 8h-8l8 40 v56h-8l-16 -64h-8q-16 0 -16 24l40 136h-64l-16 16q50 80 152 80zM152 -180l24 -24l-8 -8h-16l-16 16z" />
<glyph unicode="&#x3c;" horiz-adv-x="1032" d="M944 1320l8 -8v-8l-16 -48l16 -16v-8l-128 -184h-8l-8 8h-8q-10 -26 -72 -48l-8 8v8q96 116 96 144q94 152 128 152zM880 1288v-8q-188 -312 -248 -312l-24 -8q0 92 -88 176q0 14 352 152h8zM944 1200l8 -8v-8q0 -88 -16 -88l-80 -32v8zM832 1144v-8l8 -8v-8l-16 -16v-8 h8l16 16v16zM488 1128l8 -8v-8l-40 -128q24 0 24 32h16v-96q0 -12 -128 -56q0 -14 72 -40v-8l-8 -8l8 -8h-16l-8 8h-8v-8l16 -24l-64 -64v-8h8l56 40l56 -136v-16h-8q-382 164 -392 184v168q50 48 112 48l16 -24l48 8l-16 40q62 40 248 112zM432 1040v-32h8v32h-8zM520 1032 h16l24 -64q-10 -40 -24 -40l-16 16v88zM336 912l-8 -8v-16h64v16zM504 800q24 0 24 -32h32q216 -72 216 -96l-144 -136l-16 16v8q40 0 40 56v16h-8q-44 0 -72 -48v-8l8 -8v-8l-8 -8h-8l-16 16l24 136h-8l-24 -16h-8l-16 16v64h-16l-8 -8h-8l-8 8q12 32 24 32zM840 656h8 l24 -24q-30 -32 -64 -32l8 -40q-42 -88 -64 -88q-64 28 -64 40zM944 608h8v-144l-8 -8l8 -8v-8l-8 -8l8 -8v-24h-16q-42 0 -56 32q28 118 64 176zM856 496h8l24 -24l-24 -24l-8 8v40z" />
<glyph unicode="=" horiz-adv-x="1048" d="M96 1176h120v-8l-128 -128h-8v120zM304 1176h16l8 -8h8l-8 -96v-40l-8 -8l8 -8v-24l-16 -16h-56q-16 0 -16 24l8 8v8l-8 8v8l8 32l-8 24h8l-8 8v16zM376 1176h216v-8q0 -20 -104 -24v-8l56 -8v-16q-24 0 -24 -24l-104 -96h-8v64h-8q0 -80 -16 -80q-24 8 -24 48h8l-8 24 l8 48l-8 64zM672 1176h64v-16q-20 -40 -80 -40v-8q24 0 24 -16v-8q-24 -30 -24 -56l56 48h8v-24l-16 -24v-8q24 0 24 -24h16l8 24l80 -24v-8l-16 -16h-256l-16 16v56q68 88 112 88l-8 8v8zM776 1176h176l16 -16v-88l-8 -8v-8l-72 16l-24 -8l-8 24l72 24v8q-70 8 -88 24 l-16 -16q-32 8 -32 32h-8q0 -24 -16 -24h-16v8q12 32 24 32zM800 1104q40 -4 40 -48l-24 -16h-48l-16 16v16q0 16 48 32zM208 1088l16 -104l-8 -8h-120l-16 16l8 8h8l16 -16zM504 1008l8 -8v-8l-16 -16l-16 16zM848 992h112v-16h-96zM96 800h104q0 -44 -112 -136h-8v120z M296 800h136l16 -16l-8 -8v-8l8 -40h8l8 56l-8 8l8 8h488l16 -16v-24l-16 -24l16 -16v-24l-8 -8v-8l-64 16h-16q-16 0 -16 -24q-16 0 -16 24h-8q0 -32 -16 -32h-56l-16 16q6 48 24 48h136l16 16q-176 14 -176 32v16h-8q0 -48 -88 -48v-8q64 -8 64 -24v-32l-16 -24 q24 0 24 -32h16l8 24q72 -32 208 -32v-16h-400q-16 0 -32 136h-8l-8 -56v-64l-16 -16h-400l-16 16l8 8h8l16 -16q0 22 96 104l16 -88l24 16l-8 8l8 40l-8 8v8l8 8v8l-8 8v8q14 36 56 64zM488 768v-8l40 -8h72l56 8v8l-72 8zM416 696v-64h8l8 40v24h-16z" />
<glyph unicode="&#x3e;" horiz-adv-x="1024" d="M96 1320q126 -50 192 -96q-80 -80 -104 -80q-48 78 -48 120l-8 -8h-8l-40 8v40zM352 1208q220 -88 272 -128q-72 -68 -72 -144l8 -24q38 12 88 136l24 16q160 -54 160 -72q-48 0 -80 -104l-72 -104h8l96 16h16q46 0 88 -32q24 30 24 56q-80 100 -80 160v8h8 q104 -28 104 -48v-48l-8 -88l8 -48l-464 -200q-72 32 -72 88h16l24 -16v32l-16 16q-24 0 -24 -24l-32 40q14 0 72 72l208 80v16q-136 44 -136 66t-16 22l-16 -16l-136 56q-24 0 -24 16v176zM312 1168l8 -8v-136q0 -16 -24 -16q-46 16 -64 56v24zM80 1152h16l8 -56h-8l-16 16 v40zM544 784l-8 -8v-16l8 -56h-8l40 -88h8q0 30 24 64q0 64 -64 104zM288 704h32v-8l-16 -16h-16v24zM336 704l56 -72v-8h-8l-48 24v56zM272 688q24 -24 24 -56h24v-128q0 -24 -120 -56h-16l-72 16l-24 -8l-8 8v136q48 44 192 88zM344 640q82 -72 112 -72v-8 q-78 -56 -120 -56h-8v120zM160 608l-16 -48l16 -16h32l8 56zM80 424h8l16 -16l-16 -16l-8 8v24z" />
<glyph unicode="?" horiz-adv-x="984" d="M464 1760l8 -8l32 8q180 -18 200 -56v-8q-76 0 -96 -104v-48l16 -24q176 36 176 96h8q96 -116 96 -296q0 -262 -256 -512l-88 232h8q50 -36 160 -64l24 32l-8 8v8l8 24q-98 144 -136 144v40q18 48 96 48v8q-88 8 -88 32v56q-22 144 -136 144q-124 0 -160 -208h-8 q-144 22 -144 40l-16 32q10 88 24 88l-8 8v8l8 8v8l-24 24q-30 0 -48 -80v-80l-16 -16q-16 0 -16 24q0 184 192 328q66 38 192 56zM352 1632l8 -48h32v40l8 8q-10 48 -24 48q-16 0 -16 -48h-8zM832 1280v-24l32 -8v32h-32zM568 1104h16l8 -40h-32zM504 992h8v-112l-8 -8 l8 -8v-8l-8 -48l8 -32h-8l8 -8v-8l-8 -8l8 -24l-8 -8q16 -72 16 -192v-72l-16 -16h-8l-24 16l-16 -16h-72v8l24 32v8q-16 16 -16 64h-8q0 -48 -32 -48l-32 -8v-16q24 0 40 -32v-8h-40l-16 16v104q0 226 96 304q0 28 104 128zM472 936v-80h8v80h-8zM416 736v-56h8v56h-8z M536 528h16v-80h-16v80zM320 264h24l24 -16l16 16h72l16 -16v-8l-24 -24l-8 8l-8 -8h-24l-8 8l-8 -8h-72l-16 16v16zM496 264h56l16 -16v-232l-16 -16h-232l-16 16v176l16 16h128l16 -16v-56q0 -16 -40 -16l-8 -8v-8l48 -8l72 8v8q-56 6 -56 24v64l8 8l-8 8v32zM504 88v-24 l-8 -32l8 -24h8l8 32l-8 24l8 24h-16z" />
<glyph unicode="@" horiz-adv-x="1912" d="M904 1812h192q62 0 160 -120l-16 -24v-32l24 -80q-124 40 -224 40h-24l-8 8l-8 -8h-32q-456 0 -648 -512q-12 -88 -32 -88l8 -8l-8 -256l8 -56l-48 -16v-8q60 0 88 -160q-64 -16 -168 -16v-8l80 -8h88l104 -160q212 -256 560 -256q252 0 512 184l72 -96l-24 -8l-224 -16 v-8l128 -16l24 8l24 -8l8 8h8l24 -8l8 8v-8q-20 -40 -56 -40l8 -8v-8l-24 -16h-24l-80 8v-16h40l96 -8q24 40 72 40l-16 24l32 24h8l16 -16v-16q-156 -124 -240 -128q-46 80 -152 80l-8 -8v-8l88 -88v-16l-184 -40v8q-36 -16 -104 -16q-436 0 -672 248v8h32v8q-64 0 -64 16 h96v8l-56 16l-64 -8l-64 96l24 8v8q-68 0 -96 104q-88 188 -88 376l24 16l-8 8v8l32 32l-8 8v48h-16l8 80q-24 0 -24 48q0 86 64 136l24 -24l8 8h8l24 -8q120 96 120 176l-24 16l-64 -16v8l72 104v16l-8 -8h-16v8l16 40q-104 -88 -104 -112h-16v8q2 18 48 56q36 128 104 128 l16 -16q60 84 304 272l56 8h8l-8 -24l24 -32h32v16l-8 56l40 8h8l24 -16h16q0 32 48 32zM1328 1764q280 -122 416 -392q64 -188 64 -256l-200 -56q-46 254 -144 352l-48 48l8 8v8q-20 0 -24 32l8 24h8l240 -232v8l-8 32l24 8q0 46 -208 232l-16 32v8h16q-56 46 -56 80h-56 l-40 40v8zM840 1460l-24 -96q56 -20 56 -40v-8q-74 -62 -112 -216l-24 -24q0 40 -88 40v-8q0 -20 64 -32h24v-8q-56 -248 -80 -248l-88 -16v-8l88 -8v-16l-8 8h-8q-8 -24 -48 -24q-88 0 -88 24v8q46 6 88 56l-16 16h-8l-176 -56v8q0 252 232 544q112 92 216 104zM856 1460 h56q118 0 176 -88l16 -16l40 -8v8l16 16h32l24 -32l72 16l24 -8l80 64h8l8 -8h8q-48 -336 -64 -336l-32 -8l-16 16l-56 -8v-8l24 -32l-48 -40v-16h8l112 24l8 -8q0 -64 -56 -64v-8l24 -8l8 8l8 -8v-8q0 -96 -48 -96l16 -40h-8q-40 14 -40 40l8 56l-32 32q0 16 40 16l8 8v8 q-56 6 -56 40l-64 -16l-24 8l-24 -8v8l-40 -8v-16l64 -8l-8 8v16q96 -12 96 -40v-8l-144 -32l-24 8q2 40 16 40l-8 8v120q0 16 48 16q24 30 24 56v8q0 24 -80 24q-44 96 -144 96v24l64 72v40l-40 40l-40 -8q-16 32 -40 32v16zM1808 1044v-8l-208 -184l-8 8q0 80 64 80 q32 0 32 16q-80 0 -80 16v8q0 26 200 64zM216 1028v-8h72v8h-72zM584 1004v-8h64v8h-64zM1784 836l16 -24q-34 -192 -88 -192h-8v-8q24 0 24 -16q-44 -112 -96 -112h-32v-8l40 -8v-16q-34 -72 -128 -72v-8q32 -4 32 -24q0 -18 -40 -24v8q0 26 -56 72q-56 66 -56 96 q18 0 120 120h168v16h-120l-16 16q36 32 72 32v-8l24 8v8h-32v8q136 136 176 136zM1056 820l64 -72v-8h-8l-8 8l-24 -8v-16h56v-16h-112v8q12 104 32 104zM664 756l8 -8v-16l-8 -8l8 -8v-8l-8 -8q0 -272 184 -272q40 -56 40 -96l-56 -16l-40 8l-64 -16q0 -18 112 -24l32 8 l56 -8l40 8v-16l-88 -40l-8 8h-8l-48 -16h-64q-164 0 -280 168q30 16 40 48h-16l-40 -8l-32 56l216 56l-16 24q0 16 24 16v8q-48 0 -48 16l-8 -8h-8l-8 8l-8 -8h-152q-24 8 -24 48v40zM1232 756v-40l-56 16v16zM1024 692q56 -6 56 -16l8 8h16l16 -16l-8 -40l48 -16l56 16 l40 -48v-16q-34 -46 -72 -64h-8l-8 8l-8 -8l-48 8l-168 -8v16q32 40 72 176h8zM1264 668h32v-24l-16 -16zM168 580v-8l16 -16q56 18 56 40h-8zM552 580v-16l-136 -32l-8 8v16l16 16h48zM632 476v-8l96 -32v16q-56 12 -56 32zM920 484l136 -8l8 -8l8 8q128 0 128 -64v-8 l-24 -64l160 128l32 -40v-16h-16v-8q94 -64 104 -96v-16q-82 -64 -208 -64h-56q-80 0 -128 64l8 8h8q8 -24 48 -24v40l-8 32l8 32l-168 32l-32 -32l-48 56v8zM1296 372v-8l40 -8h8v8l-32 8h-16zM1568 260l80 -24h8v8h-24v16h96v-8l-72 -72h-40l-56 72zM1784 260h32l16 -16 q-26 -24 -48 -24l8 -8v-8q-56 -78 -80 -88h-40l-16 16q50 72 104 72v8h-16v8zM448 220v-8l24 -8v16h-24zM480 140l16 -16l16 16v16h-16zM1200 60v-8h104v8h-104zM640 52v-8h72v8h-72zM664 12v-8h40v8h-40z" />
<glyph unicode="A" horiz-adv-x="1096" d="M384 1724h336q20 0 56 -248l-216 -208l-16 16l-8 -8v8l-48 -8v-8h56v-16q-66 -96 -152 -96v-16q24 0 24 -16l-16 -16h-8l-40 8v-16q24 0 24 -16l-128 -128h-8v8q0 72 64 72v8l-48 8q0 64 40 104l-16 24q80 544 104 544zM768 1460h8l32 -200l-8 -8q14 0 32 -112l-40 -8v-8 q56 0 56 -104l8 -56l-184 24v16h32v16l-48 -16v-8h-16l-48 48v8h8l96 -8l24 8v8q-144 10 -144 56l-16 144zM728 1292l-8 -8v-8h56v8h-16v8l-8 -8h-8l-8 8h-8zM528 1220h8v-8q0 -96 -24 -96l-40 56zM704 1148v-8h32v8h-32zM392 1092q74 0 120 -48q-14 -148 -48 -224l16 -16 q-6 -88 -24 -88h-16q-36 32 -112 32h-40v-8q128 -22 128 -40l-8 -8v-8l48 -16v-16h152l16 -16v-80h16q0 52 48 72l16 32q-64 0 -64 24l-40 256h8q312 -294 312 -328l96 -608l-8 -8h-248q-24 0 -80 400h-264q-58 -390 -72 -400h-88l-16 16l48 32v8l-24 24h-16l-48 -16 l-96 104l128 736l192 -24v8q-70 24 -160 24h-16l-16 16q84 104 128 104v-8l40 8v8l-24 8l-8 -8h-16v8zM736 1060l40 -40l8 24l-24 32h-8zM456 980v-88l16 -16v104h-16zM688 964q144 -16 144 -32h-8q12 -32 24 -32h8v16h16v-8l-8 -8q16 -18 32 -152h-8l-168 168v8h16v8 q-56 0 -56 24zM488 548l8 -8v-8l32 8v8h-40zM520 412h24l56 8l-16 16h-16q-48 0 -48 -24zM96 108h8l96 -104l-8 -8h-96l-16 16z" />
<glyph unicode="B" horiz-adv-x="1040" d="M96 1724h240l8 -8h8l-8 -8v-152h16v144l24 24h152q48 0 48 -24l-32 -88h-16v32h-8q0 -62 -40 -160l8 -24h-96q-16 0 -16 48h-8l-8 -120v-160q0 -16 -40 -16l-8 -8v-8l32 -8l8 8l8 -8v-64q-64 -48 -64 -96l8 8h8q48 -32 96 -32l144 40q68 -152 104 -152v24l-72 120h80 l16 16q-6 26 -72 32v8q32 100 40 184h24v8q-48 0 -48 72l-40 64v24q0 68 72 176l8 24h-8l-56 -88v16q0 72 32 128q126 -50 160 -96l-136 -152h16v-8q24 0 112 56q56 12 56 32h-40l24 24h16q80 -142 80 -288v-48l-8 -8l8 -8v-16l-8 -8v-8l-96 32l-104 -8v-16l128 -24l8 8h8 l8 -8l8 8h24l16 -16q0 -118 -160 -240h-8v-8q68 0 88 -104l8 8h8q68 0 104 -296v-40q0 -316 -248 -432q-64 -40 -216 -40q-22 0 -88 80v8l8 32l-8 32h8q-16 32 -16 88v16l16 16q24 0 24 -104h8q0 88 32 100l104 28q54 -102 104 -136h8l8 32q-64 48 -64 88q20 0 24 32l-24 64 q32 120 48 120l8 -8v16q-40 0 -40 144q-38 128 -240 128h-48q0 -34 -32 -48l-16 24l8 48v8h-8q-6 -40 -24 -40h-24v16h-8q-44 -32 -80 -32l-8 8v96q0 16 24 16v8q-32 0 -32 24v192l-8 -8l-8 -24h-8l8 -8l-24 -304h-48v344q0 16 40 16l-8 8v8l-8 -8h-8l-16 16v208q0 16 32 16 v8q-32 0 -32 16v16q0 16 40 16v8q-40 0 -40 16v272zM456 1708v-72h8v72h-8zM224 1396l-16 -72l16 -16q-26 0 -32 -88q14 -64 24 -64l-8 -40v-144l-8 -8l8 -8v-80h16v192l8 8l-8 8v40q30 20 48 168h8v16q-40 0 -40 72l8 8l-8 8h-16zM672 1348l16 -16h8q112 0 112 32v8l-8 -8 h-8l-8 8zM792 1292l16 -16l32 8v16zM344 964v-8h32v8h-32zM232 796q80 76 80 120v16q-80 -88 -80 -136zM512 868l-16 -72v-16h16l16 88h-16zM624 844v-8h40l56 8v8h-40zM352 820v-8h56v16zM864 748v-24h16l8 24h-24zM120 708l8 -8v-16l-24 -24h-8l-16 16v8q0 14 40 24z M696 676v-40h-16v-8l40 -8q112 18 112 40h-16l-56 -8l-8 8v8l8 24h-8l-24 8zM728 476v-8q70 -24 160 -24h48l16 16l-72 16h-152zM704 412v-8l16 -16h48v24l-24 8zM240 420h24l96 -32v-16l-8 -8l8 -8v-8l-16 -48l8 -48l-8 -40l16 -16l-8 -40h16v-32h-8l-160 160q2 40 16 40 l-8 8zM176 204h16l176 -176v-16l-16 -16h-72q-18 0 -24 104h-8q-4 -104 -24 -104h-120l-24 24v136h8l40 -40q48 62 48 88z" />
<glyph unicode="C" horiz-adv-x="984" d="M504 1748q110 0 176 -56l-224 -216l-24 16q0 -24 -88 -80l8 -8q-4 -72 -16 -72l8 -8v-16l-8 -8l8 -8v-64l-32 -32h-8l-8 40l32 24v8l-72 16l-48 -32l-8 8h-8q0 -22 -40 -40q18 -48 56 -48v-16h-24l-32 24h-8l32 -40q0 -16 -32 -16l8 -8v-8l-8 -8l-40 8h-8q0 -12 56 -40 v-8l-24 -8v-8l16 -16l-16 -32l8 -24l-16 -16h16v-16h-8q-48 8 -48 24l16 16v8l-16 24v160q8 24 48 24l8 -8v16h-40l-16 16v136q0 218 232 344l24 -8v-56l16 -16h24l32 32v16l-32 40q0 40 128 40zM728 1668q20 0 72 -64q0 -16 -24 -16v-16l88 -48q40 -100 40 -160v-152h-16 q0 24 -16 24l-48 -16h-32l-8 8l-88 -16l-24 8v-16h-24l-16 16v48l16 16l8 -8l16 16h16l8 -8h8q0 24 32 24l8 8v16l-40 8h-32v-24h16v-16l-40 8l-8 -8l-16 96l40 48l-40 32l-64 -16l-24 8v16q170 184 192 184zM672 1468h8l8 8h8l16 -16l8 8v8l-16 16zM760 1284l8 -8v-8l-8 -8 h32l-8 24h-24zM728 1252v-8h32v8h-32zM88 924l56 -24v-16h-48l-16 16v8l8 8v8zM88 788l56 -8h48l40 8q84 -70 112 -120l-8 -8l8 -40v-40l-32 -32h-8q-98 84 -144 96q-26 -4 -72 -56l-8 8v176l8 8v8zM736 636h40q16 0 16 -24q26 0 56 24h40l16 -16v-24q0 -26 -144 -40h-8 l-16 72v8zM632 612h8q18 0 24 -56l-8 -56q0 -30 48 -56l16 16l184 -40v-48q0 -16 -24 -16l-40 8q0 -16 -64 -40l-40 -56l16 -16q-24 -24 -24 -56l-16 -16l16 -32l-8 -24q16 0 16 -40h16v-8q-94 -96 -224 -96h-56q-162 0 -256 120l24 8v8h-32v24l16 24q-128 30 -128 112 l208 200h24l16 -16l-8 -8v-8l8 -32l-8 -8l8 -40v-24l-8 -8v-8q24 0 80 -64l40 -8h56q84 0 120 128v232zM88 524l64 -24h80l16 -16l-112 -112l-56 56v8q0 16 64 16v8q-64 8 -64 24v24l8 8v8zM96 364h8l16 -16l-32 -24l-8 8v16zM352 172v-32h8v32h-8z" />
<glyph unicode="D" horiz-adv-x="984" d="M96 1724h40l-8 -88q22 -72 48 -88l24 32l8 8h8q0 -14 48 -24l48 -168l24 16h8v-88q0 -16 -40 -16v-16q32 0 32 -16v-8h-16l-32 8l-32 -8v-8q88 0 88 -16v-104q0 -16 -40 -16q0 -46 -48 -72h-32q-30 0 -64 40h-8q-28 0 -64 -32h-8v56q0 16 24 16v16q-24 0 -24 16v104 q0 16 80 16l-8 8v8l-8 -8h-24l-16 16l144 152h-48l-112 -104l-8 8v344zM152 1724h48q12 0 40 -104l-24 -16l-32 88l-8 -8h-8l-16 16v24zM512 1724q168 0 280 -136l-176 -176h-8q-56 34 -56 48l72 144q-10 40 -24 40q-64 -122 -64 -184l-8 -8h-168l-16 16v16l16 16 q-8 38 -48 72v16l24 24l-64 104l8 8h232zM400 1476l8 -8h24l16 56v16l-16 16q-22 0 -32 -80zM824 1540h16q64 -114 64 -256v-56l-40 -32h-120l-80 -24v-8l72 -32h56l8 -8l96 24l8 -8v-232l-16 -16h-8l-24 8l-152 -24q0 -24 88 -24h48l56 8l8 -8v-408q0 -326 -312 -432 q-68 -16 -176 -16h-168l-16 16l272 256q108 0 120 80q16 0 16 72q42 40 72 40h16l8 -8q88 14 88 32l-16 16l-8 -8l-40 8h-24v8l112 120h-24l-96 -88v8q78 96 104 96l-32 24q-48 -8 -48 -24v-8h24v-16h-16v-8l-80 16l-32 -32h-8v16l8 8l-8 8v64q0 14 56 24v8q-52 0 -56 24 v336l8 8v8l40 -8h16l24 24l-72 16l-8 -8l-8 8v120l16 16l8 -8h8v8q0 16 -24 16l-8 8v56q0 20 184 192zM768 1436l32 -24l8 8h8l8 -8h8q0 24 24 24v8l-40 8h-32zM168 1308v-16h96l-24 24l-8 -8h-16l-8 8zM280 1212v-8h32v8h-32zM336 1052h8v-264l-16 -24l16 -48v-40l-24 -24 l-8 8l16 56l-24 64h-32q0 -32 -24 -32h-8l8 8v8h-56q0 -24 -64 -24v8l-8 -8h-24l-16 16v112h16v-48zM664 1004v-8h40v8h-40zM104 980l64 -8v-8l-32 -32h-8q-42 0 -48 24v8q0 16 24 16zM96 916l8 -8v-8l-16 -16h-8v16zM80 676h88l48 -8l32 8l8 -8v-8l-8 -32l32 -24l24 16 q40 -10 40 -24v-168l-24 -32l24 -32v-72l-256 -256h-8v16l8 8l-8 8v192l32 32l-8 8v8q0 24 64 24l-16 40q18 56 56 56v8q-32 0 -32 16v8q24 40 48 40l88 -16l16 24v8q-92 32 -176 40q-8 56 -48 56l-24 48v16zM704 524h8l-24 -24v8zM184 404q0 -16 24 -16h16v8zM832 340 l16 -16h24v16h-40zM432 252h8l-48 -48v8zM344 164h8v-8l-152 -152h-16z" />
<glyph unicode="E" horiz-adv-x="904" d="M96 1724h80q12 0 40 -64h40l24 16l-8 8v24l16 16h344l192 -192v-56l-16 -16h-456v-104l-8 -8v-8l8 -8l-8 -8l-8 8l-64 -8v-8q80 0 80 -48l-8 -32l8 -40h-8l8 -8v-32l-8 -8l8 -8v-144h328l16 -16v-232l-16 -16h-336l8 -8v-8l-8 -8l8 -8v-80q0 -16 -80 -16v-8q80 0 80 -24 v-24l-264 -264h-8v248l8 8l-8 8v72l16 16l40 -8q0 16 24 16l24 -8q0 32 -40 32l-64 16v704q0 12 104 48q0 20 32 56v32q0 28 -88 40l-48 -16v160zM776 1724h32l16 -16v-8l-16 -16l-32 32v8zM504 1580v-8h96v8h-96zM296 1468v-64h24l8 40l-24 24h-8zM184 964v-32l40 -16 q64 14 64 32q-4 24 -64 24zM624 916v-8l40 -8l8 8v8h-48zM248 564v-8h80v8l-24 8zM336 300h16v-32h456l16 -16v-240l-16 -16h-712l-16 16v32zM368 172v-32h8v32h-8z" />
<glyph unicode="F" horiz-adv-x="904" d="M96 1724h560v-24l40 8h56v-16l-80 -80h-8v80h-8v-104l-120 -120l-32 -8h-120l-8 8l-32 -8v-216h-16l-248 248v216zM816 1708h8v-232l-16 -16h-24l-16 16v96q0 16 48 16v8q-48 0 -48 32v8h-8q0 -40 -24 -40v-8q24 0 24 -16v-96l-16 -16h-168v8zM184 1620l-16 -40l24 -32 q32 8 32 48v8q0 18 -40 24v-8zM408 1524v-40h8l8 32l-8 8h-8zM80 1348h8l256 -256v-96h72q16 0 16 -24h8v16h8l32 -24l16 16l56 -56l-24 -8q24 -30 24 -56v-8q0 -16 -24 -16l-8 -8v-24q0 -40 32 -40v-8l-24 -24h-128v8l8 8v8q-16 48 -32 48l-8 -8v16l32 16h24l72 -32v8 l-72 64v8l16 24q-32 0 -32 16v8l8 8v8h-8l-32 -8l-16 32l-8 -8h-24l-8 8h-8l-24 -24h-8l-8 8h-8l-8 -56l8 -24l-8 -8h-8q-8 24 -48 24l-40 -16q-80 8 -80 24v456zM168 1148l8 -8v-8l24 8v8h-32zM616 996h16q14 0 32 -48l8 8h8l16 -16v-32l-16 -16l-80 72v16zM584 860 l112 -120l-8 -8h-104l-16 16v8l8 72l-8 24l8 8h8zM264 844h16q56 0 56 -40l-8 -56l16 -16v-584l-120 -152h-128l-16 16v776l16 16h24v-16l-8 -8v-8h16l24 8l16 -32l80 40v40zM248 652v-8h40v8h-40zM216 516v-16l8 -8v-8q72 20 72 72q0 12 -32 24q-48 -16 -48 -64zM96 516v-8 q24 -48 48 -48l-16 -24q24 -28 32 -152q54 -122 104 -152l40 32l-8 40v16l8 8l-8 8l16 192l-72 48l-8 -8h-16z" />
<glyph unicode="G" horiz-adv-x="992" d="M504 1748q232 0 360 -232l-8 -8q32 0 48 -112l-264 -264l-8 8v104h16q6 -40 24 -40l64 72v24q0 26 -24 56l8 8v8h-8l-64 -64h-8q-10 134 -72 144v24l8 8v8h-8l-24 -16l-40 8l-56 -8l-24 8l-64 -80l-16 -72v-88l-56 -56h-24q-30 24 -56 24q0 -80 -64 -80l-40 24h-8l32 -40 v-8q-24 -18 -24 -56h-16l-8 40h8l-8 8v16l8 56l-8 72v56q0 328 312 432zM592 1524q0 -16 24 -16l56 16v16l-48 8zM776 1436l-8 -8v-16h8l8 24h-8zM904 1372l8 -8v-120l-16 -16h-128v8zM168 1292l16 -16q56 8 56 24l-8 8h-48zM744 1212h144v-8l-72 -72h-40l8 40h-8l-24 -8v8 l8 8v8l-24 -16l8 -40h-72v8zM96 1044l8 -8v-8l-8 -8h-8l-8 8v8l8 8h8zM704 996h120q0 -24 24 -24l8 -8v-16q0 -16 -48 -24l-8 8h-16v-8q22 0 40 -40q24 0 24 -24h8q0 104 48 104l8 -8v-136l-8 -8l8 -8v-192l-80 8q-48 -8 -48 -24l16 -16h72l24 16h16v-72l-16 -16 q-42 32 -88 32h-24q-62 0 -88 -48v-16q60 -64 144 -64l72 32v-32q0 -198 -112 -296q-184 170 -184 192l24 104h8q110 -80 144 -80l-8 8v24h40q0 16 -80 32l-112 96v32l8 8l-8 8v184h-128l-16 16v216l16 16q60 -72 120 -72l8 -8l8 8l8 32q-64 8 -64 24l8 8h8l8 -8 q68 10 96 40zM96 924q16 0 16 -24l-8 -24l16 -16l-8 -8v-8h8l24 8l16 -24v-8l-32 -32q-48 28 -48 72v48zM160 804h8q24 0 24 -32q24 0 24 -24h24v-16l-24 -24h-8l-72 72zM672 724v-16h16v-8l24 8v16h-40zM256 724h8q24 -8 24 -48h-8l-8 8h-8l-32 -8l-8 8v8zM320 636h24v-40 l-16 -16l-24 32v8zM80 476h8q282 -266 488 -488l-8 -8h-104q-256 0 -368 312q-16 34 -16 128l8 32zM664 348v-64l16 -16h16l8 40v24l-16 16h-24zM272 204h16l16 16v8z" />
<glyph unicode="H" horiz-adv-x="1000" d="M96 1724h56l16 -16v-16q-16 0 -80 -64h-8v80zM232 1724h96l16 -16v-96h-8l-104 104v8zM664 1724h24l24 -16h24l64 16h104l16 -16v-40l-16 -16l-80 24v8l-40 -8h-16l-48 8l-48 -16h-8l-16 16v24zM176 1692h8l160 -160v-24q-14 -32 -72 -32v-8q72 -2 72 -24v-16l-16 -16h-8 l-32 8l-32 -8h-16l-24 16q0 -18 -40 -24v-8l40 -8h112l16 -16v-248l-112 -120q48 0 48 -16l-24 -24h8l72 72h8v-40h208v-24l-8 -8l16 -64h16v16l-8 80h80v40l8 8l-8 8v40l8 8l-8 8v32h16l8 -80v-80l-8 -96l40 32h8q0 -52 -40 -128q32 0 32 -16v-72l8 -32l-8 -8v-8l24 -184h8 q16 144 32 144q0 -24 24 -24l8 -8v-48q22 0 80 -40l24 8l8 -8v-8l-8 -8l8 -8v-24h-16v-8q24 0 24 -16v-408l-16 -16h-240l-16 16v368l8 8l-8 8v144q0 16 24 16v8l-24 32v88l8 8l-8 8v8l8 8v8h-96l-32 32v16l8 8v8q-112 44 -200 40q-136 -6 -136 -48q18 -26 144 -56v-712 l-16 -16h-232l-16 16v288h32v8q-32 0 -32 16v56l16 16h144q0 24 -88 24v8l-48 -16h-24v576q0 16 24 16v8q-24 0 -24 16v32l16 24l-16 16l8 8l56 -8h88l48 16q0 48 -120 48v8l-72 -16l-8 8v216q0 16 24 16v8q-24 0 -24 16v176zM120 1612l8 -56l-8 -8h16l-16 -64l8 -24h16 l16 16v40l-8 8v8l64 64v32q0 16 -48 24q-48 -16 -48 -40zM912 1564l8 -8v-24l-48 -32v-8l48 -40v-24h-40l-8 8l-40 -16l24 -64v-8h-8l-136 -8v-8q112 -6 112 -24l-56 -16l16 -24l-56 -48q-80 58 -80 112h8l-8 8v8l8 32l-8 24l8 8v8l-8 48l8 8l-8 8v16l8 8l-8 8v16 q6 24 64 24h120zM664 1220l24 -32v-8l-32 -24l-8 56l8 8h8zM808 1020h24q88 0 88 -24v-288l-112 -40l-32 -48h-24v16l8 48l-8 32l32 16q0 24 -24 24v8l16 48q-24 8 -24 48v104zM872 852l8 -8v-8l24 8v8h-32zM848 724v-16h40l-16 16h-24zM720 396v-8h56v8h-56zM664 356v-16 h32v16h-32zM688 332v-8l24 -8h8v8l-24 8h-8zM760 252v-8h48v8h-48z" />
<glyph unicode="I" horiz-adv-x="424" d="M232 1724h104v-16h-104v16zM96 1700h40v-8l-48 -48l-8 8v32zM336 1612h8v-216l-8 -48l8 -40v-40l-16 -16h-120l-56 -8l-8 24h-16q0 -32 -24 -32h-8l8 -8v-8l8 8l136 -8h32l56 8l8 -8v-160q0 -16 -64 -16v-8q64 -8 64 -24v-304l-16 -16l-8 8q-80 -14 -80 -40 q0 -16 104 -40v-88l-8 -8v-8q-64 0 -64 64q-16 0 -16 -40l-8 -8h-8l-8 8h-8l-8 -8q-56 6 -56 16l-8 -8h-40l-32 32v312l8 8v8l88 -8l80 8v8l-16 16h-40l-72 8l-8 -8h-8l-32 16l8 8l-8 40v48l32 56q-32 0 -32 24v24q0 16 40 16v8q-40 0 -40 16v80l16 16l8 -8q56 20 56 32h-8 l-8 -8q-64 8 -64 24v40q74 104 160 104h16v16l-40 8v8zM208 1132v-8h40v8h-40zM272 828l8 -40h16l16 40q-16 0 -16 40q-16 0 -16 -40h-8zM336 428l8 -8v-408l-16 -16h-232l-16 16v64q0 16 24 16v24l-24 120v152l16 16l8 -8l8 8h32l8 -8z" />
<glyph unicode="J" horiz-adv-x="736" d="M640 1724l16 -16v-264l-16 -16l-80 104q80 20 80 32l-80 16l16 24q-28 24 -96 24l-32 -8l-8 8v16h96l56 16v24l-96 24h-32l-40 -8v8l-8 -8h-8l-16 16l8 8h240zM408 1652l32 -32v-16h-16l8 -8v-16h-24l-16 16v40zM416 1556l88 -16v-8q-8 -24 -48 -24v-8q132 0 168 -56v-24 h-40v-16q72 -6 72 -24v-8h-8l-224 8l-24 -8l-8 8v32q0 16 80 16v8q-80 0 -80 16v80zM408 1340l168 -8l72 8l8 -8v-88l-8 -8v-8l-96 8h-40v8l8 32l-8 24h-40l-8 8l-56 -24l-16 16v24zM592 980h8v-16l-112 -112q-16 0 -72 -72l-8 -8h-16v176h8l8 -8h8l-8 -56v-8l16 -16 q42 0 72 48v8q0 16 -64 16l16 16h16l8 -8l8 8h8l8 -8l8 8h56q0 18 32 32zM648 868h8v-248l-32 -8l-16 16q0 -16 -80 -24l-8 8l-40 -8h-88v8q48 64 96 64v8l-16 16l56 48h8v-16h8v8l-8 24zM392 756h16v-56h-16v56zM560 708v-16q18 0 24 -40h8v8l-24 48h-8zM400 548l184 -16 l8 8h8l24 -8l24 8v-16l-24 -32v-16l32 -40v-80l-216 -312h-8l-8 8l-96 -64l-104 -8l-16 16h-8l-16 -16q-104 14 -104 32q18 184 40 184l8 -8l24 24h24q136 0 192 88q24 38 24 80v152l8 8v8zM528 380l16 -32q56 6 56 56v8l-32 8q-32 0 -32 -40h-8zM400 220v-24l16 -24 q48 16 48 64l-8 8h-32z" />
<glyph unicode="K" horiz-adv-x="1064" d="M144 1724h184l16 -16v-136l-16 -16h-24l-96 96q0 16 88 16l8 8v8q-160 12 -160 32v8zM664 1724h24v-8l-40 -40l-8 8h-8q16 36 32 40zM704 1724h56q0 -44 -40 -64v8l-24 -8v-32q0 -38 -104 -168h-16q-14 0 -32 48l64 8v8l-48 16q52 136 144 136l8 8h8zM888 1724h16l24 -24 q-28 -56 -40 -56h-24l-24 24q34 56 48 56zM96 1668h24l-8 -40v-16q8 -24 48 -24l32 24l24 -32v-8l-8 -8v-8l32 -16h16v-16h-24v-8q80 0 80 -32l-136 -136h-80l-16 16v40q0 16 32 16v16q-32 0 -32 16v200zM872 1612l-160 -344h-16l-56 80v24q94 112 192 240h40zM528 1404 l8 -8l8 8l8 -8v-8l-24 -32l-8 -8h-8l-32 32q8 24 48 24zM336 1356h8v-72l-16 -16h-40q0 -32 -16 -32h-48v8zM448 1332h16q24 0 24 -32q-18 -46 -72 -96h-8l-8 32zM608 1316h16l56 -112l-8 -8h-8q-80 64 -80 88q12 32 24 32zM552 1236h8l32 -32v-8h-56v24zM96 972h32l32 -8 l8 8q88 -8 88 -24l-160 -240h-16v160q0 12 96 32v16q-96 8 -96 32v8zM384 940h16v16h80l8 -8l8 8q136 0 136 -56l16 -32q0 -16 -56 -16v-8q72 0 72 -16q-30 -60 -48 -64h-72l-24 16h-32l-40 -8v-8l24 -40h40l8 -8l8 8l56 -16q-88 -146 -104 -152q-20 0 -56 136 q-16 0 -80 -152h-16l-8 8l-8 -8h-8l-8 8q-32 -12 -32 -24l8 -8l8 8h16l8 -8l8 8h16l16 -16v-144q0 -22 -176 -288h-24v16h-8v-16l16 -16l-48 -64h-16v8l16 24v16q-24 0 -24 16v96h16v8l-16 24v208h16l32 -8l24 8v16h-16v8l-8 -8h-48v104q0 46 136 208h8l-8 8v8 q134 216 168 216v-16zM352 836q8 -48 96 -48q78 0 128 88q0 36 -96 48q-32 -24 -72 -24zM744 620h8l176 -440l-40 -72l-184 120l-8 -40l168 -112l32 8l8 -32h8q24 0 24 32l8 8h24l16 -48l-32 -48h-8l-40 40q0 -24 -32 -40h-168q-26 0 -144 344v16q164 254 184 264zM168 284 v-16l32 -8l16 48l-8 8h-8zM184 220l16 -16h24v16h-16v8z" />
<glyph unicode="L" horiz-adv-x="872" d="M96 1724h232l16 -16v-264l-16 -16h-96l-32 8l-48 -16v-8h176l16 -16v-128l-8 -96l8 -8l-8 -8l-40 8l-24 -8l-56 8h-120l-16 16v16l8 8v8l56 -8h72l40 8v8h-96l-16 16l8 8v8q0 24 -72 48v32l8 8l-8 8v248l8 32l-8 32l16 16h48v16h-48l-16 16zM152 1652l8 -24h8l8 56v32 q-16 0 -24 -64zM120 1580v-16l88 -24h24l24 24zM296 1004h16q0 -24 24 -24l8 -8v-576l-8 -216l8 -8h8q16 0 48 96h376l16 -16v-240l-16 -16h-536l-24 16l-16 -16h-104l-16 16v432l16 24l-16 64v80l112 80l8 32q-8 48 -80 48l-32 -8l-8 8v160l8 8v8l8 -8q98 18 152 48l24 -8 l16 16l8 -8v16zM208 868v-88l64 -24l8 8v24q-64 0 -64 48v32h-8zM192 572v-72l16 16v56h-16z" />
<glyph unicode="M" horiz-adv-x="1368" d="M96 1724h216v-8l-8 -8v-8l40 -8l8 32h24q0 -44 30 -50q50 -14 52 -16q30 -22 30 -102l24 -136l-8 -8h-88l-32 -16v-8l96 -8h32q20 0 40 -152l-8 -8l-336 32l8 -8v-8q0 -16 -32 -16q0 -24 168 -24v-8l8 8h32l8 -8l72 16q96 0 96 -56l16 -88l-48 -16v-24l40 -32l16 16 q40 -142 96 -488h8q116 650 136 648q296 -20 296 -40h-128l-176 -8v-16l192 -8l32 8l16 -16q0 18 80 24l-8 8v16q152 0 152 -32v-1088l-16 -16h-232l-16 16v472q24 0 24 24l40 8l8 -8h8l24 8v-24q-24 0 -24 -16q0 -22 72 -40l80 32l-16 24l40 16q0 10 -72 32q-20 48 -88 48 q-44 0 -88 -24l-8 8v472h-8q-82 -462 -104 -464q-96 -6 -96 -40q0 -12 80 -64v-8q0 -78 -40 -168l-64 8q-110 0 -152 -56v-8q0 -24 56 -24l16 -16l8 8h8l8 -8l8 8h48q48 0 48 -24q0 -64 -48 -64q-32 0 -32 -16q56 -18 56 -32q-6 -80 -24 -80h-192q-16 0 -160 640l24 48 q-46 0 -80 192q20 0 40 56l-8 8l8 8q-32 0 -32 16h8l-8 8v16h24q16 0 24 -48l8 8h8l8 -8h8q0 16 24 16v16q-34 24 -120 56l-216 80q0 16 -32 16l-8 8v8l-8 -8h-8l-24 24v280q0 16 64 24v32q-64 8 -64 24v56q0 12 56 40h48v16h-48l-8 8l-8 -8h-8l-32 8v40h56q0 14 -56 24v8z M1272 1724l16 -16v-328h-16q0 24 -40 24v8l8 40l-16 16v56q-40 0 -40 24l8 24q-96 -72 -96 -152h-8l8 -8l-16 -96l8 -56l-16 -16v-16q32 0 56 -48q42 44 152 48l8 -8v-56l-16 -16l-224 16v24l-8 40h-24v-40l-16 -16q-176 14 -176 32l80 440l16 48h40v8q-40 0 -40 16l8 8h344 zM1152 1652q0 -28 56 -40q48 16 48 32q-40 24 -80 24zM384 1588v-8h32v8h-32zM360 1548q0 -16 -24 -16q8 -32 48 -32q42 0 48 24q0 18 -72 24zM136 1532v-8h168v16h-48zM200 1436l80 -8l48 8v8l-56 8h-56zM168 1396v-16h72v8l-56 8h-16zM168 1340l96 -24v16l8 8l-8 8l-72 8 h-8zM1272 1348h16v-96l-16 -16l-64 8v16l16 24l-8 8v8q56 20 56 48zM432 1332v-8h88v8h-88zM952 1276v-8h32v8h-32zM1176 1060v-64l8 -8v-8l24 8v48zM824 1036v-32h8v32h-8zM96 964l32 -8l24 8l8 -8v-8l-64 -64v-24q0 -56 104 -56v-8l136 40l8 -8v-96q0 -16 -48 -16l-8 -40 q0 -20 56 -40v-256l-8 -8v-8l-72 24h-64l-40 -24q12 -56 136 -56l48 16v-312l-16 -16h-232l-16 16v936zM808 924v-8h8l8 32q-16 0 -16 -24zM536 940l-16 -24l8 -8l-8 -8l8 -8h56l16 16l-32 32l-24 -8zM912 924v-32h8v32h-8zM1216 740v-8h48v8l-24 8zM504 652v-8h40v16z M1152 316l-24 -40l24 -16h8l8 48l-8 8h-8zM1184 148q10 -88 56 -88q32 88 32 128l-24 96h-16q-40 -16 -48 -136z" />
<glyph unicode="N" horiz-adv-x="1056" d="M96 1728h272q12 0 64 -176l-344 -64l-8 8v216zM728 1728h56l104 -104v-8l-168 -24l-8 8v48h24v8l-24 32v24zM824 1728h136l16 -16v-24h-16v-16h16v-24l-24 -24h-32l-96 96v8zM960 1616l16 -16v-24h-8l-32 32l8 8h16zM912 1608l64 -72v-440q0 -20 -112 -32q0 -16 -48 -24 v-16q0 -20 88 -32l64 8l8 -8v-48q0 -24 -32 -24v-16q32 -4 32 -24v-176l-24 -24q-234 168 -240 184v152l16 24l-16 24v112l16 16h8l8 -8l24 8v8q-56 0 -56 16v352q0 20 200 40zM432 1536q80 -238 80 -280l-16 -48h8l8 8h8l40 -104l-8 -8l16 -16q0 -16 -24 -16l-8 8l-40 -8 h-16l-8 8h-8l-16 -16l-48 8h-8v-8q24 0 24 -32q36 -26 184 -48l16 -64q-86 -18 -136 -72h-16q-64 0 -80 128q-12 2 -32 96h-8v-208q0 -30 -96 -40l-32 8l-24 -8l-8 8q0 -24 -32 -24q0 -28 88 -40l96 16l8 -8v-352q0 -42 -24 -48h-16l-16 16v8l-8 -8h-48v-16l64 -8 q-56 -48 -56 -104v-16q18 -48 104 -64v-40q-4 -16 -40 -32v-8q0 -16 32 -16l8 -8v-64l-16 -16h-232l-16 16v96q0 14 48 32v8q-48 8 -48 24v1288q0 20 352 72zM424 1272v-8l40 -8l8 8v8l-24 8zM784 1088v-16l40 -8l40 8v16h-16v8l-8 -8h-8l-24 8zM104 984v-8h24q80 16 80 40 h-16q-88 -12 -88 -32zM896 880v-8h72l-16 16zM632 848q24 -36 64 -200q-56 -10 -56 -32v-8l48 -8l56 16q0 16 -24 16l-8 8v136l8 8v8l8 -8h8l56 8l152 -120l-128 -112l-16 16q-8 -40 -72 -96h-24l-8 8q-96 -18 -96 -56l8 -8l-8 -8q-60 0 -88 160l-64 192q104 18 104 40 l-16 16v8zM720 840l40 -32l-8 -8h-8q-18 0 -24 40zM480 744q0 -16 24 -16l24 8v8h-48zM112 656l-8 -8v-8h40v8zM512 648l16 -16h40l40 8v8l-56 8zM216 624q0 -16 40 -16v-8l8 8h48v16l-40 8zM672 400v-8q-18 -56 -64 -104q-32 50 -32 104l8 -8zM968 264h8v-160 q-32 0 -32 -16v-8l8 8h24v-72l-16 -16h-16q-86 0 -136 56l-24 -24l8 -24l-8 -8h-64v8zM928 56v-8l32 -16v8l-24 16h-8z" />
<glyph unicode="O" horiz-adv-x="984" d="M464 1752l16 -16l-8 -8h-16l-16 16l8 8h16zM512 1752h32v-16h-48zM392 1736l8 -8v-8l-72 -16v16zM608 1736q296 -126 296 -368v-16q0 -16 -72 -16v-8q72 0 72 -16v-32q0 -24 -64 -32l8 -8v-16h-16v-8q66 -6 72 -32l-120 -32h-56v-16q32 -2 32 -32l80 -16l56 8l8 -8v-56 q0 -18 -120 -40v24l8 8v8q-16 0 -160 160v48q0 16 64 24q0 20 64 32l-8 8v8q0 22 40 24v8q-50 0 -64 48l-8 -8h-8l-56 16v16l40 -8l-8 24l32 40l-8 24h8l24 -8h8v8q-40 4 -40 88q-24 14 -24 56q-22 0 -48 48q-24 0 -40 24h-8v8zM560 1728v-16h-56l-8 -120v-88l-16 -16h-24 l-16 16l8 64l-8 32l8 72v32q0 24 112 24zM392 1704l8 -8v-232l-64 -80l-24 8q-32 -12 -32 -24v-16h8l56 8v-72l-8 -8l8 -8v-104l-8 -8l8 -8v-40l-16 -16q-56 42 -88 96q-24 0 -48 40v8l40 8l8 -8l16 48l-56 16h-80l-40 40q42 360 312 360zM328 1648v-16h40v8zM152 1248 l40 -48v-8h-40v-8q86 0 160 -104l32 -32v-40l-8 -8l8 -8v-8l-24 -24v8l-112 -48v8l-112 -64h-16v16q24 28 24 120l-8 24l8 8l-24 112v32q0 16 24 16l8 8v8l-8 32zM656 1184v-8h32v8h-32zM632 1128h16q48 -72 48 -96h-40l-8 -8h-8l-8 8v96zM872 992h16l16 -16v-16l-16 -16 l-16 24v24zM848 928l48 -16v-16l-56 -56l-32 32v24q4 16 40 32zM896 768h8v-40l-16 -16l-16 24zM832 696h8v-40q26 0 56 24h8v-152h-8l-112 112v8q0 16 40 16l-8 8v8zM744 640q20 0 112 -104v-8h-16l-24 16h-24q-16 -16 -96 -24v-16l112 -16h96v-128q0 -146 -104 -224 q0 -24 -16 -24t-24 48h-8q0 -40 -16 -40t-16 24l-24 -16l-40 8v-16q0 -44 40 -56l16 56q32 -12 32 -24q-70 -96 -144 -96l-344 352v8l128 -88l8 8h8q42 -24 80 -24h8q144 0 144 184v40q16 0 16 40q56 24 56 40h16l-8 8v8q0 34 32 64zM216 568q4 -40 64 -40v-16q24 0 24 -16 l8 8h16l16 -16v-32l-16 -16h-104l-56 -8l-48 56zM96 472l56 -56l-16 -16v-8h40l16 -16l-48 -16q8 -32 48 -32h32v-16l-72 -56l8 -24l-8 -8h-24v8l8 8l-16 112h-16q0 -24 -16 -24h-8v128zM312 392q32 0 32 -40l40 -56v-8h-8l-120 88v8h16l8 -8zM272 288h8l288 -288v-16h-88 q-190 0 -296 152q0 26 -48 64q70 24 136 88zM536 248v-40q0 -48 80 -104h16l8 40q0 46 -64 96l-8 -8h-8z" />
<glyph unicode="P" horiz-adv-x="976" d="M96 1728h32q16 0 40 -104h-8l-80 80v8zM464 1728h56q224 -28 224 -88l-8 -8v-16h8v16h8q16 0 16 -32l24 16l8 -24l-8 -24h8l24 8q48 -60 48 -96l-24 -16l-56 8h-8l-40 -8v-16q0 -44 64 -80l80 32l8 -8v-32l-208 -24v8q32 42 32 72v56l8 8l-8 8v16l8 8v8h-8l-32 -8 q-10 40 -24 40q-40 -72 -72 -72v-24l8 -8v-8l-8 -8l-64 24h-168l-24 -16l-96 104v8h8l24 -24l8 8h8l8 -8h8l24 8l40 -8q18 48 32 48h16l8 -8h8v16l-8 40l24 8l8 -8h16v8l-32 8v16l8 8v8q-24 0 -24 16v8zM80 1608h8q184 -166 184 -200q0 -24 48 -24v-16q-18 -34 -64 -48 l-40 8q-82 0 -128 -16l-8 8v8l40 24h128l16 32q0 18 -72 40l-104 -24l-8 24l8 8l-8 40v136zM888 1288v-8l-48 -56h-24l8 8v8l-16 16v8zM336 1248l16 -48l-16 -16h-8l-8 8l-8 -8h-8l-32 8l-48 -8l-8 8v8q18 18 120 48zM656 1240h72v-16h-16l-8 8l-8 -8h-40v16zM104 1200h8 l16 -16v-8l-24 -24h-8l-16 16v8zM176 1152h8l-32 -144h-24v-8q24 0 40 -32v-8l-8 -8l24 -64v-8h-8q-96 0 -96 24v152zM232 1144l48 -8l64 8l8 -8v-40q0 -16 -40 -16v-8q32 0 32 -24h8l-8 -40l8 -56q-88 -8 -88 -24v-8l56 -8h24l-16 -80l8 -24q0 -34 -80 -40l-24 8l-24 -8 l-8 8v8l112 24v8h-32l-8 80h-8v-40l-56 8v8q24 36 24 72h8l-8 8v8l8 8v8l-8 40l8 24l-24 96l8 8h8zM680 1120l40 -8h24v-8l-32 -32l-40 40zM744 1048l24 -56q0 -68 -184 -80l-16 -24l16 -16l8 8h8l112 -24l8 -8h24l24 16h64v-8l-160 -168l-40 8l-32 -8q-36 26 -72 168h-8 q0 -48 -16 -48l8 -8v-24l-16 -16l-16 16l8 8l-8 40v64l-8 8v8l8 8h48v-16h8q0 20 64 56q0 16 88 16v8l-56 16l8 48h16l64 -56q6 64 24 64zM888 1016h8q0 -96 -32 -96l-48 16q0 22 72 80zM288 1000v-8h32v8h-32zM592 800v-8l40 -8l32 8v8h-72zM96 776h80v-8q0 -16 -32 -16 v-16l48 -40l24 8q0 -20 120 -64l16 -80h-8l8 -8v-80l-8 -8l8 -24l-8 -8v-8l8 -8v-8q0 -64 -96 -120l-56 24l-8 -8h-24l-24 16q0 -24 -32 -24l16 -32l-8 -8h-8l-32 40v136q64 46 64 88l-40 32l-8 -8h-8l-8 8v208zM88 624q0 -16 48 -16v-8l8 8h48v16l-40 8zM248 616l16 -16h32 l16 16v8l-40 8h-8zM192 480q0 -16 24 -16h16v8zM136 392v-8h40v32q-40 -10 -40 -24zM96 384v-8l8 -40h8v32zM80 248q30 0 80 -64l-72 -80q24 0 40 -96l-8 -8h-16l-24 24v224zM208 248h8v-8l-40 -40l-16 16v8z" />
<glyph unicode="Q" horiz-adv-x="1032" d="M368 1728v-8q-122 -136 -144 -136v-8l-40 8h-8l24 -32l-88 -88h-8q0 100 200 240zM640 1728l40 -16v-16l-48 -48h-8v8zM856 1528q56 -74 56 -184l-16 -16l16 -16v-8l-8 -8v-8l-128 24l16 88h-8l-24 -16l-16 16v16zM360 1480h24l16 -16l-32 -32h-16l-24 24zM800 1376v-8 h40v8h-40zM264 1336h16l8 -8l8 8h16v-8l-96 -96h-88v16q32 64 136 64v24zM904 1280l8 -8v-32q0 -22 -96 -40l-32 8l-24 -8l-8 8l-24 -32q0 -38 88 -40q42 -2 88 24l8 -8v-8l-40 -32l8 -32h-48q-170 0 -192 -24l-8 8v24l8 8l-8 24l8 8v8l-8 24l8 48l-8 8v8q0 40 136 40 l32 -32h32q26 48 72 48zM144 1224h40v-16h-40v16zM160 1192l8 -8v-8l-8 -8h-16l-16 16zM112 1184h8l-16 -16h-8zM96 1144l8 -8v-16l-16 -16l-8 8v16zM704 1128v-8h32v8h-32zM656 1120l-8 -8v-8l40 -8l8 8v8zM648 1016h8v-24h-24v8zM336 1008l8 -8v-128l-16 -24l-40 8h-32 l16 -16l-8 -8v-24l40 -40q0 -22 -168 -32v8l-48 -16l-8 8v16l192 192l32 -8l24 8l-8 56l8 8h8zM648 952l80 -16v-8q0 -18 -88 -24v32l8 8v8zM872 912q32 -12 32 -24q0 -16 -72 -24l-8 8v8q0 16 48 32zM232 872h24v16h-8zM696 880h8l8 -8l8 8h16l16 -16l-80 -88h8l64 64h8 v-16q-8 -28 -88 -72q0 -40 -24 -40l-8 8v8l16 16l-8 8v16h16l-16 24v8q24 0 24 16q-32 0 -32 16t48 16zM208 840v-32h8v32h-8zM752 808l72 -80q72 10 72 32h16v-224l-8 -8v-8l-120 8h-32q0 24 -32 56l-8 -8h-8l-8 8h-8q0 -16 -24 -16l-8 -24q32 -4 32 -24l-8 -24l8 -8h8 l24 8l88 -8h48v-16h-8l-8 8h-8l-8 -8v-16l24 -8l32 16l-8 24h8l24 8l8 -8v-48q0 -16 -32 -16v-8q32 0 32 -24q0 -128 -80 -128l-80 -40q-10 40 -24 40v-8l8 -40l-96 -40l-56 64l40 56q-24 0 -24 16q24 0 40 112l-8 8v56l8 8l-8 8v24l8 8l-8 8v32q0 16 24 16l-24 32v64l32 40 l40 -8h8l8 24l-8 32zM344 696v-64q-40 -6 -40 -24v-8q40 0 40 -16v-16h-8l-24 16q-72 -20 -72 -48h-40q-14 0 -40 80q-48 16 -48 32l24 16h80q58 0 128 32zM344 552v-160l8 -56l-24 -8v-8q88 -20 88 -64l8 8h16q80 -24 80 -48l-8 -40l48 -16v-16q-200 -80 -200 -104v-16h64 l16 -16l-8 -8l8 -8l-8 -8q-116 12 -256 144q-80 126 -80 168h8l24 -8v8q0 56 48 56l24 -8v8l16 16v8l-16 24v8l8 8l-8 8v8q0 16 24 16l-8 8v8q0 30 72 40q0 48 56 48zM272 456v-56l16 -16l8 64l-8 24zM688 456l-24 -64l40 -8h40v8l-8 24h8l88 16l-24 24h-8q-26 0 -56 -24h-8 l-32 24h-16zM256 104l72 -40h16l24 56q-12 80 -56 80q-26 0 -56 -96zM864 184q24 -24 80 -24l8 -8v-152h-40l-8 -8l-24 24h-8q-48 0 -48 -64l-32 -16q-16 0 -120 88q-80 -40 -136 -40l-8 8v8q0 72 80 72l128 56l8 -48h16l16 16v16q-24 0 -24 16q0 22 112 56zM896 80l-16 -56 l32 -16q24 36 24 72h-40z" />
<glyph unicode="R" horiz-adv-x="1032" d="M96 1724h16l8 -8l8 8h264l8 -56h8q0 56 16 56h120v-16q-52 0 -56 -24v-48q16 -32 40 -32v-16l-72 -72h-8q-122 56 -152 56h-48q-18 -72 -40 -72l-8 56h-8q0 -72 -16 -72l-8 8l8 8v8q0 66 -96 72v128zM112 1436h8l16 -16l-24 -24l-16 16v8zM80 1404h16v-24h-16v24z M888 1132l16 -16l-16 -16l16 -16v-8q0 -120 -56 -120l-8 -8q0 -24 24 -24v-16q-120 10 -120 40q64 0 64 24l-8 8h-72q0 -32 -24 -32q-16 0 -16 -24h-32l-40 -8l-16 24v8q0 16 80 24v8h-40v8l48 32l40 -8h24q0 24 56 24l16 24q-24 0 -24 16l80 48zM80 940h8l32 -24l24 24h8 v-8l-16 -40h-16v16h-8l-24 -24q48 0 48 -40q40 0 40 -48l8 8h16l56 -48h8v16h16v-32l-16 -24l16 -16l-8 -8v-8l16 -16v-16l-8 -8v-8q12 0 40 -104l8 -8q0 -24 16 -24v-16h-8l8 -80v-64l-16 -16l-96 24q-96 -14 -96 -64q100 -40 152 -40l48 16l8 -8v-152h-8l-80 16l-88 -48 v-16h-8q6 -22 40 -40h48l64 16l16 -24l-8 -8h-8v8l-8 -8h-8l-8 8l-8 -8h-8l-32 8l-8 -8h-8l-40 8l-32 -8v8l-8 -8h-16l-8 8l-8 -8h-8l-24 8v936zM848 868v-8q-12 -42 -120 -136q6 -32 64 -80l8 -72l-80 -16q0 -16 24 -16l8 -8v-8l-16 -16l16 -32l32 24h-8l-24 -8v8l16 16h16 q64 0 64 -96l-216 -264l-40 152l96 56l-48 48l16 48v16q0 12 -32 24q-48 -14 -48 -72h-16l-32 144q80 8 80 24h-64l-8 -8h-8l-8 8v24h8l8 -8h8q0 24 56 56h8q16 0 16 -40q20 -24 48 -24l48 64q-24 80 -40 80h-16l-24 -16l-8 8v32l32 64l-16 16l8 8h8l24 -8zM128 748v-24h40 l8 -8l56 16v8l-24 24h-64zM104 684h72v16h-56zM144 476v-8l24 -8h16v8l-32 8h-8zM184 436v-40l32 8v24l-8 8v8zM232 388l16 -16h40v32h-40zM704 164h32q16 0 16 -24l8 8h16v-16l40 8h16l8 -8l40 16v-8l8 8h16q24 0 48 -144l-24 -8l-64 24l-40 -24h-24l-8 8l-8 -8h-16l-8 8 l-8 -8h-16l-8 8l-8 -8h-16l-8 8l-8 -8h-8q-16 0 -24 48l32 32l-32 32q14 36 48 56z" />
<glyph unicode="S" horiz-adv-x="1024" d="M512 1748q290 0 400 -272v-24l-8 -8l-96 8h-128q-16 0 -16 24l-40 -16q-42 48 -104 48q-108 0 -136 -152q-24 0 -24 -24l-40 -8l-8 8h-8l-8 -8h-8l-32 16q-56 -14 -56 -32l16 -16l-16 -24l24 -40l-104 -24v8l-8 48v96q0 268 272 376zM864 1420h48l16 -16l-16 -16h-48v32z M672 1412h32v-16l-24 -8l-8 8v16zM872 1372h48l16 -16q0 -24 -256 -48v8l-8 24l8 8h96zM368 1244h16l16 -16l-8 -8h-40v8zM416 1156h8q32 -16 32 -48h-24l-16 16v8h16zM176 1076l136 -24l8 8h56l8 -8l8 8h8q100 -98 264 -144q0 -20 32 -24q248 -256 248 -448v-32 q0 -312 -272 -416l-120 -16h-16l-24 24l8 24q-28 40 -48 40q-56 -20 -56 -72h-16q-122 0 -256 216l-8 32q100 96 160 96q96 -32 128 -72l-8 -56v-56l16 -16q32 46 40 88h64q96 20 96 56q40 28 40 104l8 8q0 16 24 16v16q-34 0 -48 104l-184 216q-8 64 -32 64h-8l-24 -16 l-88 88l40 -8h16v88l-24 24h-24q-24 0 -24 -88q-30 16 -96 112l8 8v8l-40 40v8zM448 1068h40l80 -72h-16l-104 64v8zM416 908v-24h16l-8 -40h8q104 0 104 -16q104 16 104 32v8l-64 8v16h24v16h-8q-40 0 -40 -32h-48v8l8 8q0 24 -32 24v8zM672 836v-8h32v8h-32zM704 820v-8 l16 -16h16v32zM600 820l-16 -48q6 -24 64 -24q0 24 32 24l8 8v8zM712 708v-8q64 0 64 -16v-64q0 -16 -56 -24l-16 -24q8 -32 48 -32h8q36 32 56 32q0 24 -24 24l-8 8v80l16 24h-88zM304 492l8 -8v-24q-40 -34 -64 -88l-24 -24q-144 0 -144 120l8 8h72l40 8v-8l8 8h80l8 8h8z M824 420v-8h64v8h-64zM744 228l16 -16h8l-16 16h-8z" />
<glyph unicode="T" horiz-adv-x="976" d="M96 1724h704q16 0 16 -40l48 -32q32 0 32 -16v-160l-16 -16h-48l-8 8l-8 -8h-200v-104l-8 -8l8 -8v-8l-16 -24l16 -24h-8l8 -8v-16h-48l-200 8l-8 -8l-8 8v96l8 32l-8 32v32h-256l-16 16v232zM144 1652v-8l24 -32q64 28 64 80l-8 8h-16q-44 0 -64 -48zM592 1548v-8 l24 -24h64l8 40l-64 16q-32 -12 -32 -24zM136 1540l-8 -32h40v8l-8 24h-24zM160 1492v-16h32v16h-32zM472 1348v-8h96l-16 16zM368 1252l232 -8l8 -8h8l-8 -8l8 -40v-168q-20 -48 -56 -56l-8 8h-8l-48 -16v8q14 112 48 112l-16 16q16 80 72 128h-16l-8 8l-8 -8l-8 -32h-40 v24l-8 -8h-8l8 -8v-16h-32q-128 0 -128 24v32zM496 1156l8 -8q-10 -64 -32 -64h-120v40l24 24h64zM368 1068l24 -24h16l32 24h24l8 -8h8l-112 -384h-16v376zM496 940v-16l-24 -80h-16q20 96 40 96zM448 772l16 -16l-8 -40q32 0 32 -40q24 0 24 -64h8q0 24 16 24l16 -16 l-8 -40v-16h8q0 48 56 64h8v-616l-16 -16h-16l-8 8l-8 -8h-16l-8 8l-8 -8h-40l-8 8l-8 -8h-16l-8 8l-8 -8h-32l-8 8l-8 -8h-16l-8 8h-8l-8 -8l-8 8v240l16 24l-16 16v184q40 34 40 64v16h-16v16q44 208 72 208zM520 428v-16l24 16l8 -8v-8l-8 -8h16l16 16l-8 32h-24z" />
<glyph unicode="U" horiz-adv-x="984" d="M96 1724h224v-8l-224 -232l32 -8l200 200h8v-416q0 -44 -40 -64h-24q-30 24 -56 24q0 -22 -40 -40v-8l8 -8v-8l-8 -8h-24l-32 24h-8l32 -40v-8q0 -16 -32 -16l8 -8v-16q0 -16 -24 -16v-8q24 0 24 -16l-24 -8l8 -40v-8l-8 -8l8 -8v-16l-8 -8v-8l32 -24l-16 -24 q16 0 16 -32q52 0 64 -72q28 0 64 -48q18 0 80 -80v-16l-16 -16l-16 16q-56 -40 -56 -72h-24q-38 32 -64 32l-24 -8l-16 16l-24 -40h-16v768q0 16 32 16v8q-32 0 -32 16v40q48 0 48 16v32h-8l-32 -24h-8v152l24 24l-24 40v48zM640 1724h248l16 -16l-40 -40l40 16v-648 q-40 -32 -80 -32q-60 0 -96 72q-64 6 -64 16l-8 -8h-32v8l8 8l-8 8v24l8 8l-8 8v32q0 46 32 72v24h-32v40l8 8l-8 8v8l8 8v8l-8 48v16l8 8l-8 8v272zM680 1708l-32 -40q40 -54 40 -80v-32l-16 -72l168 168q-72 0 -160 56zM720 1348l32 -32q64 0 72 64l-24 64zM672 1012v-16 l-8 -8l8 -8v-16q0 -24 -32 -24v-24l72 -16l32 16l48 -16h32l64 16l16 -16v-152q0 -18 -120 -32l-8 -8l-40 -16l-32 -32v-8q144 -36 144 -48l-72 -72v-8q30 0 40 -32v-16l-472 -472q-256 134 -256 320l-8 8v8h8l-8 8v16q0 104 16 144l104 -48v-8l-16 -24l16 -16l-8 -8h24 l-8 8v16h8l8 -8h8v16l-8 8v8l8 8h8l32 -16l8 8h40l16 -16v-8l-8 -8l16 -64l-24 -8v-8q40 -2 40 -24v-8h-56v-8q52 0 152 -48h32q2 -72 24 -72q16 66 104 144q6 64 16 64l-8 8v136l8 48l-8 40h8l-8 8v360q8 24 48 24zM672 700l-8 -8v-8l24 -8l24 8v8zM736 596v-8h32v8h-32z M640 444v-32h8q120 108 120 128l-8 8q-46 -32 -80 -32q0 -26 -40 -72zM328 548l8 -8v-48h-8l-24 24zM896 492h8v-128q0 -24 -40 -24v-8q32 0 32 -32q0 -110 -184 -256q-100 -64 -224 -64l-80 8v8l224 224q0 -24 48 -24v-40q128 64 128 144q24 44 24 88v32l-160 -152h-24v8 l176 176l16 -16zM656 260v-8l-16 -16l-8 8v8l8 8h16zM152 244v-8h48v8h-48zM272 212v-16h8l16 16v8z" />
<glyph unicode="V" horiz-adv-x="1136" d="M344 1724l16 -16v-16l-8 -8v-8q30 0 64 -312l8 -32q-96 -26 -96 -48v-8l40 -16l40 8v-8l8 8h8l16 -16v-16q-80 -96 -112 -96q-72 -28 -72 -64q0 -46 -40 -64q-16 30 -56 280q22 0 96 64v8q0 56 -120 72l-16 88l8 56q-26 0 -48 136l8 8h256zM808 1724h168v-16h-40l-8 8h-8 l-104 -104l-40 40q12 72 32 72zM1000 1724h24v-16h-24v16zM296 1676l-16 -16l-24 8l-80 -88l24 -8l-8 -8v-16l64 -8l80 120v8zM1048 1668h8q-104 -616 -120 -632h-8l8 -24q0 -88 -24 -88l8 -8v-24l-200 24q0 -18 56 -24v-8q-38 -56 -80 -56v-32l64 32l-8 8v8l40 40h8l16 -16 q-32 0 -32 -16h8l96 16h8l8 -8h8q-12 -136 -64 -136l-40 -16v-32h48l16 -16v-24l-16 -16l-8 8v8l-24 -8v-16q0 -14 40 -24l-112 -584l-8 -8h-40l-8 8l-8 -8h-16l-8 8l-8 -8h-56l-8 8l-8 -8h-16l-8 8l-8 -8h-48l-8 8l-8 -8h-16l-8 8l-8 -8h-16l-16 16l40 40h32l8 -8l24 8 q0 24 -48 48q-32 -4 -32 -56h-40l-8 -8h-8q-24 54 -40 208l32 48v16q-26 0 -40 96l8 32v16l-32 -24l-16 80l8 8q-24 0 -24 80q-12 0 -16 104h8l128 -24l32 8q0 -28 24 -32t24 -32l24 16h8l16 -16l-8 -8v-8q24 0 40 -184q16 0 48 224l8 8h96v8h-96l-8 8l24 64q36 -16 104 -16 h64v8q-32 0 -32 24h8l8 -8h16v8l-32 8l-16 -16h-56l-56 -8v8l24 32h-8l-24 -24h-8q50 392 96 392l8 8l128 -16h16q0 32 -128 32h-32l-16 16q18 208 64 208l48 48l8 -8h8q0 24 160 184zM288 1524v-16l16 -16l8 8v24h-24zM208 1460v-8h16v-8q80 8 80 24v16h-48q-48 0 -48 -24z M840 1324v-16h64l16 16v8h-40zM464 1052l40 -192l-56 -16v-32q14 -32 32 -32l-72 -80l-128 16l-8 -8q-20 20 -32 160q178 184 216 184h8zM880 988l-40 -48h8l40 48h-8zM504 612l-24 -32h8l24 32h-8zM744 588v-8l56 -8l32 8v8l-32 8l-8 -8h-16l-8 8zM640 540l8 -8h32v8 l-16 16h-8zM432 540l-56 -64h8l56 64h-8zM488 516v-16h40v8l-8 8v8zM592 444l40 -8h16l40 8v8l-40 8h-40zM456 388l8 -8v-8l24 8v32z" />
<glyph unicode="W" horiz-adv-x="1496" d="M88 1728h256q20 0 24 -96l-16 -16h24v-32q-40 -56 -64 -56v-56l40 -8h16l8 8h8l32 -136l-40 -24h-8q-30 0 -64 40l-32 8q-58 -10 -88 -40l8 -8v-8l-24 -24h-16l-8 40v24l16 24v8l-16 24l80 88h-8l-80 -80h-8v8q36 128 56 128l-40 120h-16q-16 0 -16 -32l-8 -8h-8l-16 80z M616 1728h256q26 0 64 -360l-40 -16v-8h24l8 8h8q16 -26 32 -184l-168 -72v-8h16q78 16 152 56l40 -240l-8 -24q16 0 16 -48h8q0 56 32 56v16l-24 8q0 98 48 128l-32 8q22 192 48 192l8 -8h8q48 26 48 64v8q-72 8 -72 24q22 224 48 224l40 8l24 -8l48 16q0 46 -88 56h-8 l-8 -8h-8l-8 8q6 104 32 104h256v-8q0 -184 -64 -216l-32 -16v-8q24 0 24 -24q32 0 32 -16q-56 -392 -72 -408l-80 8h-56q14 -20 136 -56v-8l-152 -64v8l-24 -8v-24q152 -32 152 -48q0 -78 -24 -112l-128 16l-120 -16h-80v8l8 8v8q-48 0 -72 40q-104 58 -104 88v48h-8 q0 -58 -24 -64l8 -8v-32q0 -56 -32 -56h-16v-8q0 -16 24 -16l8 -8v-8l-8 -8h-112l-8 8l-8 -8h-328q-16 0 -56 272l40 8v8q-48 0 -48 32l-8 40q64 -6 64 -16q56 14 56 32v24l-16 16h-64l-40 -32h-8v8l-16 112l8 8q150 -32 240 -32v16l-56 8v16l64 16h8l56 -400l-8 -8l-80 24 v-8q86 -80 168 -80h16q-8 22 -88 64q16 152 32 152l256 -56l8 8h8l64 -8v24q-170 48 -336 48h-8q20 216 56 216q68 -16 176 -16h24l8 -8l48 8v8l-16 16h-16l-184 40v8l16 24q-4 18 -64 40v8q16 140 50 162q74 30 150 62v32l-80 16l-80 -16l-8 8zM1224 1504l-32 -40h8l56 16 v16zM1352 1488h32v-8l-8 -8v-8l-24 8v16zM784 1304v-8h32v8h-32zM160 1264h72v-16h-32l-40 8v8zM1216 1128h40v16h-24zM896 1048v-16l24 -24q48 4 48 48h-16zM1056 976l8 -8h16q0 16 24 16v8h-32zM792 816q0 -16 72 -64h-8q-80 0 -80 24v24zM576 768v-24h16v8zM1248 696 l8 -8v-8l-24 -144l-56 8v96l-16 -16v-64h-8q-112 96 -176 96h-16l-16 -16q0 -54 216 -168v-8l56 40h16q-54 -360 -72 -368h-24q0 -16 24 -16l8 -8v-8q0 -104 -56 -104h-24l-8 8l-8 -8h-40l-8 8l-8 -8h-40q-16 0 -16 24h-8q0 -24 -16 -24h-24q-2 0 -24 154q-28 220 -80 454 l-16 72l8 8h152l48 -8l40 8l8 -8l8 8h80q0 -32 32 -32zM712 688q-36 -360 -56 -360l8 -8l-16 -96l-96 16q0 -12 32 -24l-16 -88l8 -8q0 -70 -88 -120h-112q-18 0 -32 144l48 8v16q0 14 -56 24l-8 40q0 16 24 16v8q-48 0 -64 232l-8 8v8h8l24 -24l56 40h8l32 -24l32 16l-8 40 v48h-16q0 -36 -32 -56l-16 40q-50 -4 -80 -32q-24 0 -32 128l8 8h448zM416 640v-8l152 -32l8 8v16l-136 24zM856 648v-200h8v88h8l-8 8v104h-8zM912 568q0 -16 -32 -16v-24l16 -16h40l16 16v8zM488 480v-8l88 -16l8 8v8l-8 8h-88zM520 344l-16 -48q8 -56 24 -56l24 32v16 q0 44 -32 56zM1008 216v-8q72 6 72 24v8h-48zM632 216l16 -16l-16 -120h-16l-8 32l8 8h8l-16 88l8 8h16zM1016 128v-64h8v64h-8zM560 48h16v-40l-40 -8l-16 16zM616 48h8v-32h-16v8z" />
<glyph unicode="X" horiz-adv-x="1120" d="M192 1728l-16 -64l8 -40q18 0 32 72l-8 32h152q28 0 104 -272h-264q-32 16 -32 48l32 24l16 -16q50 0 120 56h-16q-40 0 -152 -40q-22 22 -88 192l8 8h104zM760 1728h264l16 -16q-76 -200 -96 -208q-40 0 -40 -48h-232l-16 16q82 234 104 256zM456 1432v-8 q-2 -16 -152 -88v-8h16q44 0 168 64q32 -52 56 -144q-56 -26 -56 -72v-32h8l8 8h8l8 -32h8l80 80l-24 56q52 176 72 176h64v-16q-32 0 -32 -16v-8l8 8h8l8 -8h8q0 12 32 24v16h56v-16q-24 0 -24 -16h16q48 0 48 32h72v-8q0 -50 -64 -120l8 -32q-30 -88 -48 -88l-16 16v-80 q0 -40 -184 -224l-144 -144h-8l8 48v24h-8q-6 -112 -32 -112h-8l-48 16v-16h-16l56 152l-56 160l160 48v32h-8l-152 -48h-8q-14 0 -152 368l8 8h248zM616 992v-8l48 -8q48 36 48 72v8h-40q-18 0 -40 -64h-16zM488 968v-32h8v32h-8zM472 872v-32h8v32h-8zM736 784v-8 q0 -22 -40 -40v8zM744 744h16l32 -120v-8h-16v16h-8q0 -52 -144 -200v-8h-8q-22 0 -40 104l80 96h24v-56h8v80q16 32 40 32v16l-24 -16l-16 16zM664 672h8v-8l-24 -24h-8v8zM800 576h24l80 -208q-28 -24 -120 -24l-8 8l8 8v176zM760 504v-40l8 -120q-30 -18 -120 -24l-16 48 v8l88 96h8v-64h8v88l8 8h16zM504 400v-8q-10 -56 -32 -56h-8v8q28 56 40 56zM472 312v-8q0 -70 -128 -184v16q82 130 128 176zM688 280q272 0 272 -48l80 -224l-8 -8h-56l-8 8l-8 -8h-64l-8 8l-8 -8h-56l-8 8l-8 -8h-32q-26 0 -112 272zM752 136v-8l24 -8l24 8v8h-48z M392 96v-8q-20 -88 -40 -88h-24l-16 16z" />
<glyph unicode="Y" horiz-adv-x="1096" d="M128 1728h80v-8l-8 -8v-8h8l56 8v-8l-144 -144q-18 0 -40 104q54 22 64 48h-16v16zM736 1728h264l8 -8h8q-40 -152 -112 -152l-144 -72q-50 24 -88 72l16 16h8l8 -24q88 26 88 48v24q0 16 -72 24l-16 -40h-16q30 112 48 112zM376 1592h16l16 -64l-136 -40zM664 1520 l160 -120v-88l-16 -16l-24 24l-64 -16v8q-48 -10 -48 -24v-8q0 -34 80 -56h8q42 0 48 24l-8 8l8 8h8l8 -8v-40q0 -68 -160 -496l8 -8v-8l-16 -16h-48q0 100 -144 136h-8q-64 0 -64 -32h-16l-136 416l40 8v16l-48 8l8 8v56h-8l-24 -8q-32 64 -32 104q46 0 240 88l96 -288 l-16 -16v-8q24 0 24 -80q34 -96 48 -96l32 -16l48 72l-8 8v8l24 80l-16 48h8l-48 144q0 42 56 176zM816 1488l8 -8v-8l-16 -16l-8 8v8zM432 1016v-8h32v16h-8zM416 680l96 -16l120 16h32l8 -56v-104l-8 -8l8 -8v-24l-8 -8l8 -8v-8l-8 -8l8 -8v-64l-8 -32l8 -32l-8 -32l8 -8 l-8 -24l8 -128v-48l-8 -8l8 -8v-40l-16 -16q-32 36 -40 144l8 24h-8q-24 0 -24 24q-48 -22 -48 -88l24 -96l-8 -8h-8v8l-8 -8h-80l-8 8l-8 -8h-32l-16 16v72l8 8l-8 8v560z" />
<glyph unicode="Z" horiz-adv-x="928" d="M168 1728q16 0 16 -48h8q0 48 16 48h120q58 -46 152 -208h16l-24 40q52 20 56 40l-8 8v8l-40 -16l-24 8v-16q-96 102 -96 136h472l16 -16v-232l-120 -312l-72 16l-16 -40h8l56 -32q-110 -304 -128 -304q-186 128 -208 160v16l40 -8h8v8q0 16 -32 16q0 36 176 464h-272 q0 16 -40 32v-32h-152l-16 16v16h8l-8 56v120l8 40l-8 8l8 8h80zM352 928l104 -80v-8h-40l-24 -16q0 -38 160 -88v-16q-12 -32 -24 -32h-40q-58 0 -64 24l-8 -8l-40 8h-72l-16 16l-8 -8h-16zM488 568l-120 -304l88 -64v8q-36 40 -56 40v16h72q14 0 24 -56l64 -16l96 32 l-8 24h8q26 -48 192 -112v-120l-16 -16h-48l-8 8l-8 -8h-104l-8 8l-8 -8h-96l-8 8l-8 -8h-88l-8 8l-8 -8h-8l-64 16l-24 -8l-248 264q0 32 64 104l-8 48q38 104 56 104l24 8l8 -8h8l32 8h8l16 -16l64 24l8 -8h8zM80 176h16l168 -168l-8 -8h-24l-8 8l-8 -8h-16l-32 8l-32 -8 v8l-8 -8h-40l-8 56h8l-8 8v32l8 8l-8 8v16l8 8l-8 8v32z" />
<glyph unicode="[" horiz-adv-x="600" d="M96 1820h408l16 -16v-40l-16 -24v-40l16 -24v-104l-16 -16h-72v8l8 8v8l-8 8q-44 -32 -88 -32v-680l-16 -16h-40v-16h-72v-8q128 0 128 -24v-16q-168 -186 -256 -256h-8v376q0 24 112 24v16h-96l-16 16v72l64 64v8l-56 -16l-8 8v40q0 16 48 32l24 -8v8l8 8v8l-8 64 l-64 -48h-8v592zM384 1676h8l96 56v8h-16q-72 -34 -88 -64zM192 1620v-16q0 -112 96 -112v64q0 66 -72 80h-8zM176 1124h8l152 32l-16 24v64h-8zM336 740l8 -8v-224l-16 -16l-80 8l-80 -8v-8h16v-8l8 8l40 -8l32 8v-8l8 8q72 -8 72 -24v-16l-16 -16h-24l-8 8l-8 -8h-8l-8 8 h-8l-24 -8l-24 8l-72 -8h-40l-24 24v32zM200 404h128l16 -16v-8q0 -14 -56 -48h-8v8l8 8v8q-88 16 -88 40v8zM336 324h8v-88q24 0 88 -80l-8 -8h-64v-16h-72v-32h96v8h-32v16h16l8 -8l8 8h40l16 -16l-16 -16l8 -24h-32v-16l40 8h24l40 -8l8 8l8 -8v-48l-16 -16q0 24 -16 24 h-48l8 -8v-8l-80 -8h-272l-16 16v184l8 8v8l8 -8h8q96 20 96 32h-104l-16 16v16l8 8v8l80 -16v16h48l8 8h8l8 -8v-8l-8 -8l32 -8zM144 316h24l8 -8l8 8h16v-16h-56v16zM232 308h32l-16 -16h-16v16zM368 252h24q16 0 16 -24h16l-8 8v8l8 8h80l16 -16v-80l-16 -16h-32l-16 16 v80h-8l-8 -56h-8l-64 64v8zM208 172v-8l48 -16h8v8l-48 16h-8zM160 148l-8 -8v-8l48 -8h8v8zM464 124l24 -24h-24l-16 16l8 8h8zM216 60v-8h56v8h-56zM344 28v-8h72v8h-72zM88 20v-8h32v8h-32zM464 4h8v-16h-24z" />
<glyph unicode="\" horiz-adv-x="1088" d="M80 1820h200q24 -8 24 -48l-48 -104l80 16q104 -230 104 -280q-38 -38 -144 -88l-8 -32l40 -8l32 8v-8l-24 -104h-8q-4 0 -72 176l-128 336l80 40v16h-8l-40 -8l-8 8l-16 -16h-16q-20 0 -40 88v8zM504 1268l136 -376q-28 0 -64 -64h-16q-224 226 -224 320l8 8h24v-72h8 q36 28 64 88h8l8 -8h8q16 18 16 96l8 8h16zM392 988h8q156 -164 176 -208v-8l-88 -16q-14 0 -96 232zM664 836l16 -40l-24 -16q0 -24 32 -24l64 -136l-8 -8h-8q-122 168 -144 176zM624 732l88 -104v-8h-32l-24 24l-8 -8h-8q-16 0 -16 32l-40 -16l-24 32v8q20 40 64 40z M800 484l208 -536l-8 -8h-136l-8 8l-8 -8h-48l-16 16v8l32 -8h8v8q-32 0 -32 24l8 32q-16 0 -16 -32h-16l-8 56l8 8q-20 0 -24 32q8 32 32 32v8q-24 0 -24 16l8 8h8l-8 40l16 40l-16 16l16 24v8l-16 24l80 40v16l-88 40q12 34 40 48l-8 8v16zM808 20v-8l64 -40h8v16 q0 24 -64 32h-8z" />
<glyph unicode="]" horiz-adv-x="600" d="M96 1828h72l16 -16l-64 -128h8q20 4 96 128l64 16h24l8 -8l8 8h24l8 -8l8 8h32l8 -8l8 8h24q32 -8 32 -88q-24 0 -24 -32l-24 -32h-16l8 -8v-8l-16 -24l8 -8v-24q0 -24 -40 -24l16 -24l-16 -24q24 0 24 -16l-24 -32q24 0 24 -16l-8 -8v-8l16 -16v-16l-8 -8v-8 q32 0 32 -64l8 8h8l8 -8l-8 -8v-24l24 16q40 -12 40 -48l-8 -8h24l-8 -952l-40 8h-72l-56 -8v-8h16v-8l8 8h104q48 0 48 -24v-40l-16 -24l16 -24v-72h-16v40h-8q0 -92 -32 -96h-72l-24 16h-40l8 -8v-16l-40 -48h8l40 40l40 -8v16l40 -16l16 16q48 0 48 -56h8l8 40h16v-40 l-16 -16l-112 16l-48 -8h-64l-8 8h-8l16 48l-16 40h-64v-8l64 -8l-16 -64l8 -8l-64 -16h-96l-16 16v32l8 8l-8 8v8l8 8l-8 8v56l16 16h8l8 -8l24 8v8q-32 0 -32 16h32q0 16 -32 16v16l88 8l-16 16h-80l-16 16l8 8h168v376q74 88 96 88v8h-64l-24 -16l-8 8v136h152v16l-8 -8 h-8l-32 8l-8 -8h-8l-40 8l-40 -8l-8 8v472l8 88l-8 64v64h-168v8q176 192 208 192l-8 8v8l-8 -8h-16l-8 8h-8l-16 -16l-8 32h-8q0 -78 -72 -120l-56 -56l-8 8v192zM152 1604v-16h24q42 0 80 40v8h-16zM352 1012l24 -88q26 0 40 96l-8 8v8l8 8l-24 104q-40 0 -40 -136z M440 980l-8 -80l8 -72h16l16 16v56l-24 80h-8zM304 756v-8h16l8 8v8zM376 756v-64h8v64h-8zM240 180v-8l40 -16h8v8l-40 16h-8zM360 148v-16h-8l-112 -16v-8l88 -8l128 8v16q-24 0 -24 24h-72zM112 60l-8 -8v-8h136v8h-120zM328 20v-8h96v8l-40 8zM176 12v-8h32v8h-32z" />
<glyph unicode="^" horiz-adv-x="712" d="M416 1988q16 0 120 -264h-8l-224 256l8 8h104zM296 1972l232 -272v-16q-34 0 -120 -48q-14 0 -48 88h-8q-6 -56 -40 -56l16 -16l-40 -72q-46 40 -80 40l-72 -16l-8 8v8q18 56 56 56l-8 8v8q46 172 120 280zM536 1628v-24h-16l-8 -24l8 -8v-16h-72q-32 16 -32 48l24 16 l40 -8zM568 1628h8q24 -4 24 -64v-8h-48v8h24l-8 8v56zM216 1604l16 -32h40l16 -16q-20 -52 -40 -56h-152l-8 8h-8q0 66 136 96zM512 1532l16 -16l-16 -16h-32v16zM608 1516h24v-16h-24v16z" />
<glyph unicode="_" horiz-adv-x="1496" d="M88 -80h264l16 -16l-184 -184h-80q-24 8 -24 48v96zM424 -80h216l16 -16l-192 -184h-248v8l136 136l8 -8l-8 -40q10 -80 32 -80l16 16l-8 8l8 40v16h-8q10 104 32 104zM1088 -80l16 -16l-96 -80h-8l-8 8q-48 -16 -144 -16v8l64 72l-56 -8h-88q-104 0 -104 24l8 8h416z M1200 -80h200l16 -16v-168l-16 -16h-24v8q0 20 32 24v8q-160 56 -288 72v8zM832 -248l80 -16v-16h-80l-16 16zM1312 -248l32 -16v-16h-192v16zM768 -256l8 -8v-8l-8 -8h-16v8zM1080 -264h32v-16h-32v16z" />
<glyph unicode="`" horiz-adv-x="544" d="M264 1960l8 -8h8l-8 -96v-56l-40 -8h-8l-8 8h-8q0 -24 -16 -24h-8q-40 46 -104 176l8 8h176zM312 1960q18 0 96 -248h-8q-42 30 -136 56v16q40 0 40 24l-16 16v88q6 48 24 48zM392 1656h16v-56l-8 -8l8 -24h8l8 40v32h16l24 -72l-8 -8h-152l-24 32q90 64 112 64z" />
<glyph unicode="a" horiz-adv-x="1096" d="M384 1724h336q20 0 56 -248l-216 -208l-16 16l-8 -8v8l-48 -8v-8h56v-16q-66 -96 -152 -96v-16q24 0 24 -16l-16 -16h-8l-40 8v-16q24 0 24 -16l-128 -128h-8v8q0 72 64 72v8l-48 8q0 64 40 104l-16 24q80 544 104 544zM768 1460h8l32 -200l-8 -8q14 0 32 -112l-40 -8v-8 q56 0 56 -104l8 -56l-184 24v16h32v16l-48 -16v-8h-16l-48 48v8h8l96 -8l24 8v8q-144 10 -144 56l-16 144zM728 1292l-8 -8v-8h56v8h-16v8l-8 -8h-8l-8 8h-8zM528 1220h8v-8q0 -96 -24 -96l-40 56zM704 1148v-8h32v8h-32zM392 1092q74 0 120 -48q-14 -148 -48 -224l16 -16 q-6 -88 -24 -88h-16q-36 32 -112 32h-40v-8q128 -22 128 -40l-8 -8v-8l48 -16v-16h152l16 -16v-80h16q0 52 48 72l16 32q-64 0 -64 24l-40 256h8q312 -294 312 -328l96 -608l-8 -8h-248q-24 0 -80 400h-264q-58 -390 -72 -400h-88l-16 16l48 32v8l-24 24h-16l-48 -16 l-96 104l128 736l192 -24v8q-70 24 -160 24h-16l-16 16q84 104 128 104v-8l40 8v8l-24 8l-8 -8h-16v8zM736 1060l40 -40l8 24l-24 32h-8zM456 980v-88l16 -16v104h-16zM688 964q144 -16 144 -32h-8q12 -32 24 -32h8v16h16v-8l-8 -8q16 -18 32 -152h-8l-168 168v8h16v8 q-56 0 -56 24zM488 548l8 -8v-8l32 8v8h-40zM520 412h24l56 8l-16 16h-16q-48 0 -48 -24zM96 108h8l96 -104l-8 -8h-96l-16 16z" />
<glyph unicode="b" horiz-adv-x="1040" d="M96 1724h240l8 -8h8l-8 -8v-152h16v144l24 24h152q48 0 48 -24l-32 -88h-16v32h-8q0 -62 -40 -160l8 -24h-96q-16 0 -16 48h-8l-8 -120v-160q0 -16 -40 -16l-8 -8v-8l32 -8l8 8l8 -8v-64q-64 -48 -64 -96l8 8h8q48 -32 96 -32l144 40q68 -152 104 -152v24l-72 120h80 l16 16q-6 26 -72 32v8q32 100 40 184h24v8q-48 0 -48 72l-40 64v24q0 68 72 176l8 24h-8l-56 -88v16q0 72 32 128q126 -50 160 -96l-136 -152h16v-8q24 0 112 56q56 12 56 32h-40l24 24h16q80 -142 80 -288v-48l-8 -8l8 -8v-16l-8 -8v-8l-96 32l-104 -8v-16l128 -24l8 8h8 l8 -8l8 8h24l16 -16q0 -118 -160 -240h-8v-8q68 0 88 -104l8 8h8q68 0 104 -296v-40q0 -316 -248 -432q-64 -40 -216 -40q-22 0 -88 80v8l8 32l-8 32h8q-16 32 -16 88v16l16 16q24 0 24 -104h8q0 88 32 100l104 28q54 -102 104 -136h8l8 32q-64 48 -64 88q20 0 24 32l-24 64 q32 120 48 120l8 -8v16q-40 0 -40 144q-38 128 -240 128h-48q0 -34 -32 -48l-16 24l8 48v8h-8q-6 -40 -24 -40h-24v16h-8q-44 -32 -80 -32l-8 8v96q0 16 24 16v8q-32 0 -32 24v192l-8 -8l-8 -24h-8l8 -8l-24 -304h-48v344q0 16 40 16l-8 8v8l-8 -8h-8l-16 16v208q0 16 32 16 v8q-32 0 -32 16v16q0 16 40 16v8q-40 0 -40 16v272zM456 1708v-72h8v72h-8zM224 1396l-16 -72l16 -16q-26 0 -32 -88q14 -64 24 -64l-8 -40v-144l-8 -8l8 -8v-80h16v192l8 8l-8 8v40q30 20 48 168h8v16q-40 0 -40 72l8 8l-8 8h-16zM672 1348l16 -16h8q112 0 112 32v8l-8 -8 h-8l-8 8zM792 1292l16 -16l32 8v16zM344 964v-8h32v8h-32zM232 796q80 76 80 120v16q-80 -88 -80 -136zM512 868l-16 -72v-16h16l16 88h-16zM624 844v-8h40l56 8v8h-40zM352 820v-8h56v16zM864 748v-24h16l8 24h-24zM120 708l8 -8v-16l-24 -24h-8l-16 16v8q0 14 40 24z M696 676v-40h-16v-8l40 -8q112 18 112 40h-16l-56 -8l-8 8v8l8 24h-8l-24 8zM728 476v-8q70 -24 160 -24h48l16 16l-72 16h-152zM704 412v-8l16 -16h48v24l-24 8zM240 420h24l96 -32v-16l-8 -8l8 -8v-8l-16 -48l8 -48l-8 -40l16 -16l-8 -40h16v-32h-8l-160 160q2 40 16 40 l-8 8zM176 204h16l176 -176v-16l-16 -16h-72q-18 0 -24 104h-8q-4 -104 -24 -104h-120l-24 24v136h8l40 -40q48 62 48 88z" />
<glyph unicode="c" horiz-adv-x="984" d="M504 1748q110 0 176 -56l-224 -216l-24 16q0 -24 -88 -80l8 -8q-4 -72 -16 -72l8 -8v-16l-8 -8l8 -8v-64l-32 -32h-8l-8 40l32 24v8l-72 16l-48 -32l-8 8h-8q0 -22 -40 -40q18 -48 56 -48v-16h-24l-32 24h-8l32 -40q0 -16 -32 -16l8 -8v-8l-8 -8l-40 8h-8q0 -12 56 -40 v-8l-24 -8v-8l16 -16l-16 -32l8 -24l-16 -16h16v-16h-8q-48 8 -48 24l16 16v8l-16 24v160q8 24 48 24l8 -8v16h-40l-16 16v136q0 218 232 344l24 -8v-56l16 -16h24l32 32v16l-32 40q0 40 128 40zM728 1668q20 0 72 -64q0 -16 -24 -16v-16l88 -48q40 -100 40 -160v-152h-16 q0 24 -16 24l-48 -16h-32l-8 8l-88 -16l-24 8v-16h-24l-16 16v48l16 16l8 -8l16 16h16l8 -8h8q0 24 32 24l8 8v16l-40 8h-32v-24h16v-16l-40 8l-8 -8l-16 96l40 48l-40 32l-64 -16l-24 8v16q170 184 192 184zM672 1468h8l8 8h8l16 -16l8 8v8l-16 16zM760 1284l8 -8v-8l-8 -8 h32l-8 24h-24zM728 1252v-8h32v8h-32zM88 924l56 -24v-16h-48l-16 16v8l8 8v8zM88 788l56 -8h48l40 8q84 -70 112 -120l-8 -8l8 -40v-40l-32 -32h-8q-98 84 -144 96q-26 -4 -72 -56l-8 8v176l8 8v8zM736 636h40q16 0 16 -24q26 0 56 24h40l16 -16v-24q0 -26 -144 -40h-8 l-16 72v8zM632 612h8q18 0 24 -56l-8 -56q0 -30 48 -56l16 16l184 -40v-48q0 -16 -24 -16l-40 8q0 -16 -64 -40l-40 -56l16 -16q-24 -24 -24 -56l-16 -16l16 -32l-8 -24q16 0 16 -40h16v-8q-94 -96 -224 -96h-56q-162 0 -256 120l24 8v8h-32v24l16 24q-128 30 -128 112 l208 200h24l16 -16l-8 -8v-8l8 -32l-8 -8l8 -40v-24l-8 -8v-8q24 0 80 -64l40 -8h56q84 0 120 128v232zM88 524l64 -24h80l16 -16l-112 -112l-56 56v8q0 16 64 16v8q-64 8 -64 24v24l8 8v8zM96 364h8l16 -16l-32 -24l-8 8v16zM352 172v-32h8v32h-8z" />
<glyph unicode="d" horiz-adv-x="984" d="M96 1724h40l-8 -88q22 -72 48 -88l24 32l8 8h8q0 -14 48 -24l48 -168l24 16h8v-88q0 -16 -40 -16v-16q32 0 32 -16v-8h-16l-32 8l-32 -8v-8q88 0 88 -16v-104q0 -16 -40 -16q0 -46 -48 -72h-32q-30 0 -64 40h-8q-28 0 -64 -32h-8v56q0 16 24 16v16q-24 0 -24 16v104 q0 16 80 16l-8 8v8l-8 -8h-24l-16 16l144 152h-48l-112 -104l-8 8v344zM152 1724h48q12 0 40 -104l-24 -16l-32 88l-8 -8h-8l-16 16v24zM512 1724q168 0 280 -136l-176 -176h-8q-56 34 -56 48l72 144q-10 40 -24 40q-64 -122 -64 -184l-8 -8h-168l-16 16v16l16 16 q-8 38 -48 72v16l24 24l-64 104l8 8h232zM400 1476l8 -8h24l16 56v16l-16 16q-22 0 -32 -80zM824 1540h16q64 -114 64 -256v-56l-40 -32h-120l-80 -24v-8l72 -32h56l8 -8l96 24l8 -8v-232l-16 -16h-8l-24 8l-152 -24q0 -24 88 -24h48l56 8l8 -8v-408q0 -326 -312 -432 q-68 -16 -176 -16h-168l-16 16l272 256q108 0 120 80q16 0 16 72q42 40 72 40h16l8 -8q88 14 88 32l-16 16l-8 -8l-40 8h-24v8l112 120h-24l-96 -88v8q78 96 104 96l-32 24q-48 -8 -48 -24v-8h24v-16h-16v-8l-80 16l-32 -32h-8v16l8 8l-8 8v64q0 14 56 24v8q-52 0 -56 24 v336l8 8v8l40 -8h16l24 24l-72 16l-8 -8l-8 8v120l16 16l8 -8h8v8q0 16 -24 16l-8 8v56q0 20 184 192zM768 1436l32 -24l8 8h8l8 -8h8q0 24 24 24v8l-40 8h-32zM168 1308v-16h96l-24 24l-8 -8h-16l-8 8zM280 1212v-8h32v8h-32zM336 1052h8v-264l-16 -24l16 -48v-40l-24 -24 l-8 8l16 56l-24 64h-32q0 -32 -24 -32h-8l8 8v8h-56q0 -24 -64 -24v8l-8 -8h-24l-16 16v112h16v-48zM664 1004v-8h40v8h-40zM104 980l64 -8v-8l-32 -32h-8q-42 0 -48 24v8q0 16 24 16zM96 916l8 -8v-8l-16 -16h-8v16zM80 676h88l48 -8l32 8l8 -8v-8l-8 -32l32 -24l24 16 q40 -10 40 -24v-168l-24 -32l24 -32v-72l-256 -256h-8v16l8 8l-8 8v192l32 32l-8 8v8q0 24 64 24l-16 40q18 56 56 56v8q-32 0 -32 16v8q24 40 48 40l88 -16l16 24v8q-92 32 -176 40q-8 56 -48 56l-24 48v16zM704 524h8l-24 -24v8zM184 404q0 -16 24 -16h16v8zM832 340 l16 -16h24v16h-40zM432 252h8l-48 -48v8zM344 164h8v-8l-152 -152h-16z" />
<glyph unicode="e" horiz-adv-x="904" d="M96 1724h80q12 0 40 -64h40l24 16l-8 8v24l16 16h344l192 -192v-56l-16 -16h-456v-104l-8 -8v-8l8 -8l-8 -8l-8 8l-64 -8v-8q80 0 80 -48l-8 -32l8 -40h-8l8 -8v-32l-8 -8l8 -8v-144h328l16 -16v-232l-16 -16h-336l8 -8v-8l-8 -8l8 -8v-80q0 -16 -80 -16v-8q80 0 80 -24 v-24l-264 -264h-8v248l8 8l-8 8v72l16 16l40 -8q0 16 24 16l24 -8q0 32 -40 32l-64 16v704q0 12 104 48q0 20 32 56v32q0 28 -88 40l-48 -16v160zM776 1724h32l16 -16v-8l-16 -16l-32 32v8zM504 1580v-8h96v8h-96zM296 1468v-64h24l8 40l-24 24h-8zM184 964v-32l40 -16 q64 14 64 32q-4 24 -64 24zM624 916v-8l40 -8l8 8v8h-48zM248 564v-8h80v8l-24 8zM336 300h16v-32h456l16 -16v-240l-16 -16h-712l-16 16v32zM368 172v-32h8v32h-8z" />
<glyph unicode="f" horiz-adv-x="904" d="M96 1724h560v-24l40 8h56v-16l-80 -80h-8v80h-8v-104l-120 -120l-32 -8h-120l-8 8l-32 -8v-216h-16l-248 248v216zM816 1708h8v-232l-16 -16h-24l-16 16v96q0 16 48 16v8q-48 0 -48 32v8h-8q0 -40 -24 -40v-8q24 0 24 -16v-96l-16 -16h-168v8zM184 1620l-16 -40l24 -32 q32 8 32 48v8q0 18 -40 24v-8zM408 1524v-40h8l8 32l-8 8h-8zM80 1348h8l256 -256v-96h72q16 0 16 -24h8v16h8l32 -24l16 16l56 -56l-24 -8q24 -30 24 -56v-8q0 -16 -24 -16l-8 -8v-24q0 -40 32 -40v-8l-24 -24h-128v8l8 8v8q-16 48 -32 48l-8 -8v16l32 16h24l72 -32v8 l-72 64v8l16 24q-32 0 -32 16v8l8 8v8h-8l-32 -8l-16 32l-8 -8h-24l-8 8h-8l-24 -24h-8l-8 8h-8l-8 -56l8 -24l-8 -8h-8q-8 24 -48 24l-40 -16q-80 8 -80 24v456zM168 1148l8 -8v-8l24 8v8h-32zM616 996h16q14 0 32 -48l8 8h8l16 -16v-32l-16 -16l-80 72v16zM584 860 l112 -120l-8 -8h-104l-16 16v8l8 72l-8 24l8 8h8zM264 844h16q56 0 56 -40l-8 -56l16 -16v-584l-120 -152h-128l-16 16v776l16 16h24v-16l-8 -8v-8h16l24 8l16 -32l80 40v40zM248 652v-8h40v8h-40zM216 516v-16l8 -8v-8q72 20 72 72q0 12 -32 24q-48 -16 -48 -64zM96 516v-8 q24 -48 48 -48l-16 -24q24 -28 32 -152q54 -122 104 -152l40 32l-8 40v16l8 8l-8 8l16 192l-72 48l-8 -8h-16z" />
<glyph unicode="g" horiz-adv-x="992" d="M504 1748q232 0 360 -232l-8 -8q32 0 48 -112l-264 -264l-8 8v104h16q6 -40 24 -40l64 72v24q0 26 -24 56l8 8v8h-8l-64 -64h-8q-10 134 -72 144v24l8 8v8h-8l-24 -16l-40 8l-56 -8l-24 8l-64 -80l-16 -72v-88l-56 -56h-24q-30 24 -56 24q0 -80 -64 -80l-40 24h-8l32 -40 v-8q-24 -18 -24 -56h-16l-8 40h8l-8 8v16l8 56l-8 72v56q0 328 312 432zM592 1524q0 -16 24 -16l56 16v16l-48 8zM776 1436l-8 -8v-16h8l8 24h-8zM904 1372l8 -8v-120l-16 -16h-128v8zM168 1292l16 -16q56 8 56 24l-8 8h-48zM744 1212h144v-8l-72 -72h-40l8 40h-8l-24 -8v8 l8 8v8l-24 -16l8 -40h-72v8zM96 1044l8 -8v-8l-8 -8h-8l-8 8v8l8 8h8zM704 996h120q0 -24 24 -24l8 -8v-16q0 -16 -48 -24l-8 8h-16v-8q22 0 40 -40q24 0 24 -24h8q0 104 48 104l8 -8v-136l-8 -8l8 -8v-192l-80 8q-48 -8 -48 -24l16 -16h72l24 16h16v-72l-16 -16 q-42 32 -88 32h-24q-62 0 -88 -48v-16q60 -64 144 -64l72 32v-32q0 -198 -112 -296q-184 170 -184 192l24 104h8q110 -80 144 -80l-8 8v24h40q0 16 -80 32l-112 96v32l8 8l-8 8v184h-128l-16 16v216l16 16q60 -72 120 -72l8 -8l8 8l8 32q-64 8 -64 24l8 8h8l8 -8 q68 10 96 40zM96 924q16 0 16 -24l-8 -24l16 -16l-8 -8v-8h8l24 8l16 -24v-8l-32 -32q-48 28 -48 72v48zM160 804h8q24 0 24 -32q24 0 24 -24h24v-16l-24 -24h-8l-72 72zM672 724v-16h16v-8l24 8v16h-40zM256 724h8q24 -8 24 -48h-8l-8 8h-8l-32 -8l-8 8v8zM320 636h24v-40 l-16 -16l-24 32v8zM80 476h8q282 -266 488 -488l-8 -8h-104q-256 0 -368 312q-16 34 -16 128l8 32zM664 348v-64l16 -16h16l8 40v24l-16 16h-24zM272 204h16l16 16v8z" />
<glyph unicode="h" horiz-adv-x="1000" d="M96 1724h56l16 -16v-16q-16 0 -80 -64h-8v80zM232 1724h96l16 -16v-96h-8l-104 104v8zM664 1724h24l24 -16h24l64 16h104l16 -16v-40l-16 -16l-80 24v8l-40 -8h-16l-48 8l-48 -16h-8l-16 16v24zM176 1692h8l160 -160v-24q-14 -32 -72 -32v-8q72 -2 72 -24v-16l-16 -16h-8 l-32 8l-32 -8h-16l-24 16q0 -18 -40 -24v-8l40 -8h112l16 -16v-248l-112 -120q48 0 48 -16l-24 -24h8l72 72h8v-40h208v-24l-8 -8l16 -64h16v16l-8 80h80v40l8 8l-8 8v40l8 8l-8 8v32h16l8 -80v-80l-8 -96l40 32h8q0 -52 -40 -128q32 0 32 -16v-72l8 -32l-8 -8v-8l24 -184h8 q16 144 32 144q0 -24 24 -24l8 -8v-48q22 0 80 -40l24 8l8 -8v-8l-8 -8l8 -8v-24h-16v-8q24 0 24 -16v-408l-16 -16h-240l-16 16v368l8 8l-8 8v144q0 16 24 16v8l-24 32v88l8 8l-8 8v8l8 8v8h-96l-32 32v16l8 8v8q-112 44 -200 40q-136 -6 -136 -48q18 -26 144 -56v-712 l-16 -16h-232l-16 16v288h32v8q-32 0 -32 16v56l16 16h144q0 24 -88 24v8l-48 -16h-24v576q0 16 24 16v8q-24 0 -24 16v32l16 24l-16 16l8 8l56 -8h88l48 16q0 48 -120 48v8l-72 -16l-8 8v216q0 16 24 16v8q-24 0 -24 16v176zM120 1612l8 -56l-8 -8h16l-16 -64l8 -24h16 l16 16v40l-8 8v8l64 64v32q0 16 -48 24q-48 -16 -48 -40zM912 1564l8 -8v-24l-48 -32v-8l48 -40v-24h-40l-8 8l-40 -16l24 -64v-8h-8l-136 -8v-8q112 -6 112 -24l-56 -16l16 -24l-56 -48q-80 58 -80 112h8l-8 8v8l8 32l-8 24l8 8v8l-8 48l8 8l-8 8v16l8 8l-8 8v16 q6 24 64 24h120zM664 1220l24 -32v-8l-32 -24l-8 56l8 8h8zM808 1020h24q88 0 88 -24v-288l-112 -40l-32 -48h-24v16l8 48l-8 32l32 16q0 24 -24 24v8l16 48q-24 8 -24 48v104zM872 852l8 -8v-8l24 8v8h-32zM848 724v-16h40l-16 16h-24zM720 396v-8h56v8h-56zM664 356v-16 h32v16h-32zM688 332v-8l24 -8h8v8l-24 8h-8zM760 252v-8h48v8h-48z" />
<glyph unicode="i" horiz-adv-x="424" d="M232 1724h104v-16h-104v16zM96 1700h40v-8l-48 -48l-8 8v32zM336 1612h8v-216l-8 -48l8 -40v-40l-16 -16h-120l-56 -8l-8 24h-16q0 -32 -24 -32h-8l8 -8v-8l8 8l136 -8h32l56 8l8 -8v-160q0 -16 -64 -16v-8q64 -8 64 -24v-304l-16 -16l-8 8q-80 -14 -80 -40 q0 -16 104 -40v-88l-8 -8v-8q-64 0 -64 64q-16 0 -16 -40l-8 -8h-8l-8 8h-8l-8 -8q-56 6 -56 16l-8 -8h-40l-32 32v312l8 8v8l88 -8l80 8v8l-16 16h-40l-72 8l-8 -8h-8l-32 16l8 8l-8 40v48l32 56q-32 0 -32 24v24q0 16 40 16v8q-40 0 -40 16v80l16 16l8 -8q56 20 56 32h-8 l-8 -8q-64 8 -64 24v40q74 104 160 104h16v16l-40 8v8zM208 1132v-8h40v8h-40zM272 828l8 -40h16l16 40q-16 0 -16 40q-16 0 -16 -40h-8zM336 428l8 -8v-408l-16 -16h-232l-16 16v64q0 16 24 16v24l-24 120v152l16 16l8 -8l8 8h32l8 -8z" />
<glyph unicode="j" horiz-adv-x="736" d="M640 1724l16 -16v-264l-16 -16l-80 104q80 20 80 32l-80 16l16 24q-28 24 -96 24l-32 -8l-8 8v16h96l56 16v24l-96 24h-32l-40 -8v8l-8 -8h-8l-16 16l8 8h240zM408 1652l32 -32v-16h-16l8 -8v-16h-24l-16 16v40zM416 1556l88 -16v-8q-8 -24 -48 -24v-8q132 0 168 -56v-24 h-40v-16q72 -6 72 -24v-8h-8l-224 8l-24 -8l-8 8v32q0 16 80 16v8q-80 0 -80 16v80zM408 1340l168 -8l72 8l8 -8v-88l-8 -8v-8l-96 8h-40v8l8 32l-8 24h-40l-8 8l-56 -24l-16 16v24zM592 980h8v-16l-112 -112q-16 0 -72 -72l-8 -8h-16v176h8l8 -8h8l-8 -56v-8l16 -16 q42 0 72 48v8q0 16 -64 16l16 16h16l8 -8l8 8h8l8 -8l8 8h56q0 18 32 32zM648 868h8v-248l-32 -8l-16 16q0 -16 -80 -24l-8 8l-40 -8h-88v8q48 64 96 64v8l-16 16l56 48h8v-16h8v8l-8 24zM392 756h16v-56h-16v56zM560 708v-16q18 0 24 -40h8v8l-24 48h-8zM400 548l184 -16 l8 8h8l24 -8l24 8v-16l-24 -32v-16l32 -40v-80l-216 -312h-8l-8 8l-96 -64l-104 -8l-16 16h-8l-16 -16q-104 14 -104 32q18 184 40 184l8 -8l24 24h24q136 0 192 88q24 38 24 80v152l8 8v8zM528 380l16 -32q56 6 56 56v8l-32 8q-32 0 -32 -40h-8zM400 220v-24l16 -24 q48 16 48 64l-8 8h-32z" />
<glyph unicode="k" horiz-adv-x="1064" d="M144 1724h184l16 -16v-136l-16 -16h-24l-96 96q0 16 88 16l8 8v8q-160 12 -160 32v8zM664 1724h24v-8l-40 -40l-8 8h-8q16 36 32 40zM704 1724h56q0 -44 -40 -64v8l-24 -8v-32q0 -38 -104 -168h-16q-14 0 -32 48l64 8v8l-48 16q52 136 144 136l8 8h8zM888 1724h16l24 -24 q-28 -56 -40 -56h-24l-24 24q34 56 48 56zM96 1668h24l-8 -40v-16q8 -24 48 -24l32 24l24 -32v-8l-8 -8v-8l32 -16h16v-16h-24v-8q80 0 80 -32l-136 -136h-80l-16 16v40q0 16 32 16v16q-32 0 -32 16v200zM872 1612l-160 -344h-16l-56 80v24q94 112 192 240h40zM528 1404 l8 -8l8 8l8 -8v-8l-24 -32l-8 -8h-8l-32 32q8 24 48 24zM336 1356h8v-72l-16 -16h-40q0 -32 -16 -32h-48v8zM448 1332h16q24 0 24 -32q-18 -46 -72 -96h-8l-8 32zM608 1316h16l56 -112l-8 -8h-8q-80 64 -80 88q12 32 24 32zM552 1236h8l32 -32v-8h-56v24zM96 972h32l32 -8 l8 8q88 -8 88 -24l-160 -240h-16v160q0 12 96 32v16q-96 8 -96 32v8zM384 940h16v16h80l8 -8l8 8q136 0 136 -56l16 -32q0 -16 -56 -16v-8q72 0 72 -16q-30 -60 -48 -64h-72l-24 16h-32l-40 -8v-8l24 -40h40l8 -8l8 8l56 -16q-88 -146 -104 -152q-20 0 -56 136 q-16 0 -80 -152h-16l-8 8l-8 -8h-8l-8 8q-32 -12 -32 -24l8 -8l8 8h16l8 -8l8 8h16l16 -16v-144q0 -22 -176 -288h-24v16h-8v-16l16 -16l-48 -64h-16v8l16 24v16q-24 0 -24 16v96h16v8l-16 24v208h16l32 -8l24 8v16h-16v8l-8 -8h-48v104q0 46 136 208h8l-8 8v8 q134 216 168 216v-16zM352 836q8 -48 96 -48q78 0 128 88q0 36 -96 48q-32 -24 -72 -24zM744 620h8l176 -440l-40 -72l-184 120l-8 -40l168 -112l32 8l8 -32h8q24 0 24 32l8 8h24l16 -48l-32 -48h-8l-40 40q0 -24 -32 -40h-168q-26 0 -144 344v16q164 254 184 264zM168 284 v-16l32 -8l16 48l-8 8h-8zM184 220l16 -16h24v16h-16v8z" />
<glyph unicode="l" horiz-adv-x="872" d="M96 1724h232l16 -16v-264l-16 -16h-96l-32 8l-48 -16v-8h176l16 -16v-128l-8 -96l8 -8l-8 -8l-40 8l-24 -8l-56 8h-120l-16 16v16l8 8v8l56 -8h72l40 8v8h-96l-16 16l8 8v8q0 24 -72 48v32l8 8l-8 8v248l8 32l-8 32l16 16h48v16h-48l-16 16zM152 1652l8 -24h8l8 56v32 q-16 0 -24 -64zM120 1580v-16l88 -24h24l24 24zM296 1004h16q0 -24 24 -24l8 -8v-576l-8 -216l8 -8h8q16 0 48 96h376l16 -16v-240l-16 -16h-536l-24 16l-16 -16h-104l-16 16v432l16 24l-16 64v80l112 80l8 32q-8 48 -80 48l-32 -8l-8 8v160l8 8v8l8 -8q98 18 152 48l24 -8 l16 16l8 -8v16zM208 868v-88l64 -24l8 8v24q-64 0 -64 48v32h-8zM192 572v-72l16 16v56h-16z" />
<glyph unicode="m" horiz-adv-x="1368" d="M96 1724h216v-8l-8 -8v-8l40 -8l8 32h24q0 -44 30 -50q50 -14 52 -16q30 -22 30 -102l24 -136l-8 -8h-88l-32 -16v-8l96 -8h32q20 0 40 -152l-8 -8l-336 32l8 -8v-8q0 -16 -32 -16q0 -24 168 -24v-8l8 8h32l8 -8l72 16q96 0 96 -56l16 -88l-48 -16v-24l40 -32l16 16 q40 -142 96 -488h8q116 650 136 648q296 -20 296 -40h-128l-176 -8v-16l192 -8l32 8l16 -16q0 18 80 24l-8 8v16q152 0 152 -32v-1088l-16 -16h-232l-16 16v472q24 0 24 24l40 8l8 -8h8l24 8v-24q-24 0 -24 -16q0 -22 72 -40l80 32l-16 24l40 16q0 10 -72 32q-20 48 -88 48 q-44 0 -88 -24l-8 8v472h-8q-82 -462 -104 -464q-96 -6 -96 -40q0 -12 80 -64v-8q0 -78 -40 -168l-64 8q-110 0 -152 -56v-8q0 -24 56 -24l16 -16l8 8h8l8 -8l8 8h48q48 0 48 -24q0 -64 -48 -64q-32 0 -32 -16q56 -18 56 -32q-6 -80 -24 -80h-192q-16 0 -160 640l24 48 q-46 0 -80 192q20 0 40 56l-8 8l8 8q-32 0 -32 16h8l-8 8v16h24q16 0 24 -48l8 8h8l8 -8h8q0 16 24 16v16q-34 24 -120 56l-216 80q0 16 -32 16l-8 8v8l-8 -8h-8l-24 24v280q0 16 64 24v32q-64 8 -64 24v56q0 12 56 40h48v16h-48l-8 8l-8 -8h-8l-32 8v40h56q0 14 -56 24v8z M1272 1724l16 -16v-328h-16q0 24 -40 24v8l8 40l-16 16v56q-40 0 -40 24l8 24q-96 -72 -96 -152h-8l8 -8l-16 -96l8 -56l-16 -16v-16q32 0 56 -48q42 44 152 48l8 -8v-56l-16 -16l-224 16v24l-8 40h-24v-40l-16 -16q-176 14 -176 32l80 440l16 48h40v8q-40 0 -40 16l8 8h344 zM1152 1652q0 -28 56 -40q48 16 48 32q-40 24 -80 24zM384 1588v-8h32v8h-32zM360 1548q0 -16 -24 -16q8 -32 48 -32q42 0 48 24q0 18 -72 24zM136 1532v-8h168v16h-48zM200 1436l80 -8l48 8v8l-56 8h-56zM168 1396v-16h72v8l-56 8h-16zM168 1340l96 -24v16l8 8l-8 8l-72 8 h-8zM1272 1348h16v-96l-16 -16l-64 8v16l16 24l-8 8v8q56 20 56 48zM432 1332v-8h88v8h-88zM952 1276v-8h32v8h-32zM1176 1060v-64l8 -8v-8l24 8v48zM824 1036v-32h8v32h-8zM96 964l32 -8l24 8l8 -8v-8l-64 -64v-24q0 -56 104 -56v-8l136 40l8 -8v-96q0 -16 -48 -16l-8 -40 q0 -20 56 -40v-256l-8 -8v-8l-72 24h-64l-40 -24q12 -56 136 -56l48 16v-312l-16 -16h-232l-16 16v936zM808 924v-8h8l8 32q-16 0 -16 -24zM536 940l-16 -24l8 -8l-8 -8l8 -8h56l16 16l-32 32l-24 -8zM912 924v-32h8v32h-8zM1216 740v-8h48v8l-24 8zM504 652v-8h40v16z M1152 316l-24 -40l24 -16h8l8 48l-8 8h-8zM1184 148q10 -88 56 -88q32 88 32 128l-24 96h-16q-40 -16 -48 -136z" />
<glyph unicode="n" horiz-adv-x="1056" d="M96 1728h272q12 0 64 -176l-344 -64l-8 8v216zM728 1728h56l104 -104v-8l-168 -24l-8 8v48h24v8l-24 32v24zM824 1728h136l16 -16v-24h-16v-16h16v-24l-24 -24h-32l-96 96v8zM960 1616l16 -16v-24h-8l-32 32l8 8h16zM912 1608l64 -72v-440q0 -20 -112 -32q0 -16 -48 -24 v-16q0 -20 88 -32l64 8l8 -8v-48q0 -24 -32 -24v-16q32 -4 32 -24v-176l-24 -24q-234 168 -240 184v152l16 24l-16 24v112l16 16h8l8 -8l24 8v8q-56 0 -56 16v352q0 20 200 40zM432 1536q80 -238 80 -280l-16 -48h8l8 8h8l40 -104l-8 -8l16 -16q0 -16 -24 -16l-8 8l-40 -8 h-16l-8 8h-8l-16 -16l-48 8h-8v-8q24 0 24 -32q36 -26 184 -48l16 -64q-86 -18 -136 -72h-16q-64 0 -80 128q-12 2 -32 96h-8v-208q0 -30 -96 -40l-32 8l-24 -8l-8 8q0 -24 -32 -24q0 -28 88 -40l96 16l8 -8v-352q0 -42 -24 -48h-16l-16 16v8l-8 -8h-48v-16l64 -8 q-56 -48 -56 -104v-16q18 -48 104 -64v-40q-4 -16 -40 -32v-8q0 -16 32 -16l8 -8v-64l-16 -16h-232l-16 16v96q0 14 48 32v8q-48 8 -48 24v1288q0 20 352 72zM424 1272v-8l40 -8l8 8v8l-24 8zM784 1088v-16l40 -8l40 8v16h-16v8l-8 -8h-8l-24 8zM104 984v-8h24q80 16 80 40 h-16q-88 -12 -88 -32zM896 880v-8h72l-16 16zM632 848q24 -36 64 -200q-56 -10 -56 -32v-8l48 -8l56 16q0 16 -24 16l-8 8v136l8 8v8l8 -8h8l56 8l152 -120l-128 -112l-16 16q-8 -40 -72 -96h-24l-8 8q-96 -18 -96 -56l8 -8l-8 -8q-60 0 -88 160l-64 192q104 18 104 40 l-16 16v8zM720 840l40 -32l-8 -8h-8q-18 0 -24 40zM480 744q0 -16 24 -16l24 8v8h-48zM112 656l-8 -8v-8h40v8zM512 648l16 -16h40l40 8v8l-56 8zM216 624q0 -16 40 -16v-8l8 8h48v16l-40 8zM672 400v-8q-18 -56 -64 -104q-32 50 -32 104l8 -8zM968 264h8v-160 q-32 0 -32 -16v-8l8 8h24v-72l-16 -16h-16q-86 0 -136 56l-24 -24l8 -24l-8 -8h-64v8zM928 56v-8l32 -16v8l-24 16h-8z" />
<glyph unicode="o" horiz-adv-x="984" d="M464 1752l16 -16l-8 -8h-16l-16 16l8 8h16zM512 1752h32v-16h-48zM392 1736l8 -8v-8l-72 -16v16zM608 1736q296 -126 296 -368v-16q0 -16 -72 -16v-8q72 0 72 -16v-32q0 -24 -64 -32l8 -8v-16h-16v-8q66 -6 72 -32l-120 -32h-56v-16q32 -2 32 -32l80 -16l56 8l8 -8v-56 q0 -18 -120 -40v24l8 8v8q-16 0 -160 160v48q0 16 64 24q0 20 64 32l-8 8v8q0 22 40 24v8q-50 0 -64 48l-8 -8h-8l-56 16v16l40 -8l-8 24l32 40l-8 24h8l24 -8h8v8q-40 4 -40 88q-24 14 -24 56q-22 0 -48 48q-24 0 -40 24h-8v8zM560 1728v-16h-56l-8 -120v-88l-16 -16h-24 l-16 16l8 64l-8 32l8 72v32q0 24 112 24zM392 1704l8 -8v-232l-64 -80l-24 8q-32 -12 -32 -24v-16h8l56 8v-72l-8 -8l8 -8v-104l-8 -8l8 -8v-40l-16 -16q-56 42 -88 96q-24 0 -48 40v8l40 8l8 -8l16 48l-56 16h-80l-40 40q42 360 312 360zM328 1648v-16h40v8zM152 1248 l40 -48v-8h-40v-8q86 0 160 -104l32 -32v-40l-8 -8l8 -8v-8l-24 -24v8l-112 -48v8l-112 -64h-16v16q24 28 24 120l-8 24l8 8l-24 112v32q0 16 24 16l8 8v8l-8 32zM656 1184v-8h32v8h-32zM632 1128h16q48 -72 48 -96h-40l-8 -8h-8l-8 8v96zM872 992h16l16 -16v-16l-16 -16 l-16 24v24zM848 928l48 -16v-16l-56 -56l-32 32v24q4 16 40 32zM896 768h8v-40l-16 -16l-16 24zM832 696h8v-40q26 0 56 24h8v-152h-8l-112 112v8q0 16 40 16l-8 8v8zM744 640q20 0 112 -104v-8h-16l-24 16h-24q-16 -16 -96 -24v-16l112 -16h96v-128q0 -146 -104 -224 q0 -24 -16 -24t-24 48h-8q0 -40 -16 -40t-16 24l-24 -16l-40 8v-16q0 -44 40 -56l16 56q32 -12 32 -24q-70 -96 -144 -96l-344 352v8l128 -88l8 8h8q42 -24 80 -24h8q144 0 144 184v40q16 0 16 40q56 24 56 40h16l-8 8v8q0 34 32 64zM216 568q4 -40 64 -40v-16q24 0 24 -16 l8 8h16l16 -16v-32l-16 -16h-104l-56 -8l-48 56zM96 472l56 -56l-16 -16v-8h40l16 -16l-48 -16q8 -32 48 -32h32v-16l-72 -56l8 -24l-8 -8h-24v8l8 8l-16 112h-16q0 -24 -16 -24h-8v128zM312 392q32 0 32 -40l40 -56v-8h-8l-120 88v8h16l8 -8zM272 288h8l288 -288v-16h-88 q-190 0 -296 152q0 26 -48 64q70 24 136 88zM536 248v-40q0 -48 80 -104h16l8 40q0 46 -64 96l-8 -8h-8z" />
<glyph unicode="p" horiz-adv-x="976" d="M96 1728h32q16 0 40 -104h-8l-80 80v8zM464 1728h56q224 -28 224 -88l-8 -8v-16h8v16h8q16 0 16 -32l24 16l8 -24l-8 -24h8l24 8q48 -60 48 -96l-24 -16l-56 8h-8l-40 -8v-16q0 -44 64 -80l80 32l8 -8v-32l-208 -24v8q32 42 32 72v56l8 8l-8 8v16l8 8v8h-8l-32 -8 q-10 40 -24 40q-40 -72 -72 -72v-24l8 -8v-8l-8 -8l-64 24h-168l-24 -16l-96 104v8h8l24 -24l8 8h8l8 -8h8l24 8l40 -8q18 48 32 48h16l8 -8h8v16l-8 40l24 8l8 -8h16v8l-32 8v16l8 8v8q-24 0 -24 16v8zM80 1608h8q184 -166 184 -200q0 -24 48 -24v-16q-18 -34 -64 -48 l-40 8q-82 0 -128 -16l-8 8v8l40 24h128l16 32q0 18 -72 40l-104 -24l-8 24l8 8l-8 40v136zM888 1288v-8l-48 -56h-24l8 8v8l-16 16v8zM336 1248l16 -48l-16 -16h-8l-8 8l-8 -8h-8l-32 8l-48 -8l-8 8v8q18 18 120 48zM656 1240h72v-16h-16l-8 8l-8 -8h-40v16zM104 1200h8 l16 -16v-8l-24 -24h-8l-16 16v8zM176 1152h8l-32 -144h-24v-8q24 0 40 -32v-8l-8 -8l24 -64v-8h-8q-96 0 -96 24v152zM232 1144l48 -8l64 8l8 -8v-40q0 -16 -40 -16v-8q32 0 32 -24h8l-8 -40l8 -56q-88 -8 -88 -24v-8l56 -8h24l-16 -80l8 -24q0 -34 -80 -40l-24 8l-24 -8 l-8 8v8l112 24v8h-32l-8 80h-8v-40l-56 8v8q24 36 24 72h8l-8 8v8l8 8v8l-8 40l8 24l-24 96l8 8h8zM680 1120l40 -8h24v-8l-32 -32l-40 40zM744 1048l24 -56q0 -68 -184 -80l-16 -24l16 -16l8 8h8l112 -24l8 -8h24l24 16h64v-8l-160 -168l-40 8l-32 -8q-36 26 -72 168h-8 q0 -48 -16 -48l8 -8v-24l-16 -16l-16 16l8 8l-8 40v64l-8 8v8l8 8h48v-16h8q0 20 64 56q0 16 88 16v8l-56 16l8 48h16l64 -56q6 64 24 64zM888 1016h8q0 -96 -32 -96l-48 16q0 22 72 80zM288 1000v-8h32v8h-32zM592 800v-8l40 -8l32 8v8h-72zM96 776h80v-8q0 -16 -32 -16 v-16l48 -40l24 8q0 -20 120 -64l16 -80h-8l8 -8v-80l-8 -8l8 -24l-8 -8v-8l8 -8v-8q0 -64 -96 -120l-56 24l-8 -8h-24l-24 16q0 -24 -32 -24l16 -32l-8 -8h-8l-32 40v136q64 46 64 88l-40 32l-8 -8h-8l-8 8v208zM88 624q0 -16 48 -16v-8l8 8h48v16l-40 8zM248 616l16 -16h32 l16 16v8l-40 8h-8zM192 480q0 -16 24 -16h16v8zM136 392v-8h40v32q-40 -10 -40 -24zM96 384v-8l8 -40h8v32zM80 248q30 0 80 -64l-72 -80q24 0 40 -96l-8 -8h-16l-24 24v224zM208 248h8v-8l-40 -40l-16 16v8z" />
<glyph unicode="q" horiz-adv-x="1032" d="M368 1728v-8q-122 -136 -144 -136v-8l-40 8h-8l24 -32l-88 -88h-8q0 100 200 240zM640 1728l40 -16v-16l-48 -48h-8v8zM856 1528q56 -74 56 -184l-16 -16l16 -16v-8l-8 -8v-8l-128 24l16 88h-8l-24 -16l-16 16v16zM360 1480h24l16 -16l-32 -32h-16l-24 24zM800 1376v-8 h40v8h-40zM264 1336h16l8 -8l8 8h16v-8l-96 -96h-88v16q32 64 136 64v24zM904 1280l8 -8v-32q0 -22 -96 -40l-32 8l-24 -8l-8 8l-24 -32q0 -38 88 -40q42 -2 88 24l8 -8v-8l-40 -32l8 -32h-48q-170 0 -192 -24l-8 8v24l8 8l-8 24l8 8v8l-8 24l8 48l-8 8v8q0 40 136 40 l32 -32h32q26 48 72 48zM144 1224h40v-16h-40v16zM160 1192l8 -8v-8l-8 -8h-16l-16 16zM112 1184h8l-16 -16h-8zM96 1144l8 -8v-16l-16 -16l-8 8v16zM704 1128v-8h32v8h-32zM656 1120l-8 -8v-8l40 -8l8 8v8zM648 1016h8v-24h-24v8zM336 1008l8 -8v-128l-16 -24l-40 8h-32 l16 -16l-8 -8v-24l40 -40q0 -22 -168 -32v8l-48 -16l-8 8v16l192 192l32 -8l24 8l-8 56l8 8h8zM648 952l80 -16v-8q0 -18 -88 -24v32l8 8v8zM872 912q32 -12 32 -24q0 -16 -72 -24l-8 8v8q0 16 48 32zM232 872h24v16h-8zM696 880h8l8 -8l8 8h16l16 -16l-80 -88h8l64 64h8 v-16q-8 -28 -88 -72q0 -40 -24 -40l-8 8v8l16 16l-8 8v16h16l-16 24v8q24 0 24 16q-32 0 -32 16t48 16zM208 840v-32h8v32h-8zM752 808l72 -80q72 10 72 32h16v-224l-8 -8v-8l-120 8h-32q0 24 -32 56l-8 -8h-8l-8 8h-8q0 -16 -24 -16l-8 -24q32 -4 32 -24l-8 -24l8 -8h8 l24 8l88 -8h48v-16h-8l-8 8h-8l-8 -8v-16l24 -8l32 16l-8 24h8l24 8l8 -8v-48q0 -16 -32 -16v-8q32 0 32 -24q0 -128 -80 -128l-80 -40q-10 40 -24 40v-8l8 -40l-96 -40l-56 64l40 56q-24 0 -24 16q24 0 40 112l-8 8v56l8 8l-8 8v24l8 8l-8 8v32q0 16 24 16l-24 32v64l32 40 l40 -8h8l8 24l-8 32zM344 696v-64q-40 -6 -40 -24v-8q40 0 40 -16v-16h-8l-24 16q-72 -20 -72 -48h-40q-14 0 -40 80q-48 16 -48 32l24 16h80q58 0 128 32zM344 552v-160l8 -56l-24 -8v-8q88 -20 88 -64l8 8h16q80 -24 80 -48l-8 -40l48 -16v-16q-200 -80 -200 -104v-16h64 l16 -16l-8 -8l8 -8l-8 -8q-116 12 -256 144q-80 126 -80 168h8l24 -8v8q0 56 48 56l24 -8v8l16 16v8l-16 24v8l8 8l-8 8v8q0 16 24 16l-8 8v8q0 30 72 40q0 48 56 48zM272 456v-56l16 -16l8 64l-8 24zM688 456l-24 -64l40 -8h40v8l-8 24h8l88 16l-24 24h-8q-26 0 -56 -24h-8 l-32 24h-16zM256 104l72 -40h16l24 56q-12 80 -56 80q-26 0 -56 -96zM864 184q24 -24 80 -24l8 -8v-152h-40l-8 -8l-24 24h-8q-48 0 -48 -64l-32 -16q-16 0 -120 88q-80 -40 -136 -40l-8 8v8q0 72 80 72l128 56l8 -48h16l16 16v16q-24 0 -24 16q0 22 112 56zM896 80l-16 -56 l32 -16q24 36 24 72h-40z" />
<glyph unicode="r" horiz-adv-x="1032" d="M96 1724h16l8 -8l8 8h264l8 -56h8q0 56 16 56h120v-16q-52 0 -56 -24v-48q16 -32 40 -32v-16l-72 -72h-8q-122 56 -152 56h-48q-18 -72 -40 -72l-8 56h-8q0 -72 -16 -72l-8 8l8 8v8q0 66 -96 72v128zM112 1436h8l16 -16l-24 -24l-16 16v8zM80 1404h16v-24h-16v24z M888 1132l16 -16l-16 -16l16 -16v-8q0 -120 -56 -120l-8 -8q0 -24 24 -24v-16q-120 10 -120 40q64 0 64 24l-8 8h-72q0 -32 -24 -32q-16 0 -16 -24h-32l-40 -8l-16 24v8q0 16 80 24v8h-40v8l48 32l40 -8h24q0 24 56 24l16 24q-24 0 -24 16l80 48zM80 940h8l32 -24l24 24h8 v-8l-16 -40h-16v16h-8l-24 -24q48 0 48 -40q40 0 40 -48l8 8h16l56 -48h8v16h16v-32l-16 -24l16 -16l-8 -8v-8l16 -16v-16l-8 -8v-8q12 0 40 -104l8 -8q0 -24 16 -24v-16h-8l8 -80v-64l-16 -16l-96 24q-96 -14 -96 -64q100 -40 152 -40l48 16l8 -8v-152h-8l-80 16l-88 -48 v-16h-8q6 -22 40 -40h48l64 16l16 -24l-8 -8h-8v8l-8 -8h-8l-8 8l-8 -8h-8l-32 8l-8 -8h-8l-40 8l-32 -8v8l-8 -8h-16l-8 8l-8 -8h-8l-24 8v936zM848 868v-8q-12 -42 -120 -136q6 -32 64 -80l8 -72l-80 -16q0 -16 24 -16l8 -8v-8l-16 -16l16 -32l32 24h-8l-24 -8v8l16 16h16 q64 0 64 -96l-216 -264l-40 152l96 56l-48 48l16 48v16q0 12 -32 24q-48 -14 -48 -72h-16l-32 144q80 8 80 24h-64l-8 -8h-8l-8 8v24h8l8 -8h8q0 24 56 56h8q16 0 16 -40q20 -24 48 -24l48 64q-24 80 -40 80h-16l-24 -16l-8 8v32l32 64l-16 16l8 8h8l24 -8zM128 748v-24h40 l8 -8l56 16v8l-24 24h-64zM104 684h72v16h-56zM144 476v-8l24 -8h16v8l-32 8h-8zM184 436v-40l32 8v24l-8 8v8zM232 388l16 -16h40v32h-40zM704 164h32q16 0 16 -24l8 8h16v-16l40 8h16l8 -8l40 16v-8l8 8h16q24 0 48 -144l-24 -8l-64 24l-40 -24h-24l-8 8l-8 -8h-16l-8 8 l-8 -8h-16l-8 8l-8 -8h-16l-8 8l-8 -8h-8q-16 0 -24 48l32 32l-32 32q14 36 48 56z" />
<glyph unicode="s" horiz-adv-x="1024" d="M512 1748q290 0 400 -272v-24l-8 -8l-96 8h-128q-16 0 -16 24l-40 -16q-42 48 -104 48q-108 0 -136 -152q-24 0 -24 -24l-40 -8l-8 8h-8l-8 -8h-8l-32 16q-56 -14 -56 -32l16 -16l-16 -24l24 -40l-104 -24v8l-8 48v96q0 268 272 376zM864 1420h48l16 -16l-16 -16h-48v32z M672 1412h32v-16l-24 -8l-8 8v16zM872 1372h48l16 -16q0 -24 -256 -48v8l-8 24l8 8h96zM368 1244h16l16 -16l-8 -8h-40v8zM416 1156h8q32 -16 32 -48h-24l-16 16v8h16zM176 1076l136 -24l8 8h56l8 -8l8 8h8q100 -98 264 -144q0 -20 32 -24q248 -256 248 -448v-32 q0 -312 -272 -416l-120 -16h-16l-24 24l8 24q-28 40 -48 40q-56 -20 -56 -72h-16q-122 0 -256 216l-8 32q100 96 160 96q96 -32 128 -72l-8 -56v-56l16 -16q32 46 40 88h64q96 20 96 56q40 28 40 104l8 8q0 16 24 16v16q-34 0 -48 104l-184 216q-8 64 -32 64h-8l-24 -16 l-88 88l40 -8h16v88l-24 24h-24q-24 0 -24 -88q-30 16 -96 112l8 8v8l-40 40v8zM448 1068h40l80 -72h-16l-104 64v8zM416 908v-24h16l-8 -40h8q104 0 104 -16q104 16 104 32v8l-64 8v16h24v16h-8q-40 0 -40 -32h-48v8l8 8q0 24 -32 24v8zM672 836v-8h32v8h-32zM704 820v-8 l16 -16h16v32zM600 820l-16 -48q6 -24 64 -24q0 24 32 24l8 8v8zM712 708v-8q64 0 64 -16v-64q0 -16 -56 -24l-16 -24q8 -32 48 -32h8q36 32 56 32q0 24 -24 24l-8 8v80l16 24h-88zM304 492l8 -8v-24q-40 -34 -64 -88l-24 -24q-144 0 -144 120l8 8h72l40 8v-8l8 8h80l8 8h8z M824 420v-8h64v8h-64zM744 228l16 -16h8l-16 16h-8z" />
<glyph unicode="t" horiz-adv-x="976" d="M96 1724h704q16 0 16 -40l48 -32q32 0 32 -16v-160l-16 -16h-48l-8 8l-8 -8h-200v-104l-8 -8l8 -8v-8l-16 -24l16 -24h-8l8 -8v-16h-48l-200 8l-8 -8l-8 8v96l8 32l-8 32v32h-256l-16 16v232zM144 1652v-8l24 -32q64 28 64 80l-8 8h-16q-44 0 -64 -48zM592 1548v-8 l24 -24h64l8 40l-64 16q-32 -12 -32 -24zM136 1540l-8 -32h40v8l-8 24h-24zM160 1492v-16h32v16h-32zM472 1348v-8h96l-16 16zM368 1252l232 -8l8 -8h8l-8 -8l8 -40v-168q-20 -48 -56 -56l-8 8h-8l-48 -16v8q14 112 48 112l-16 16q16 80 72 128h-16l-8 8l-8 -8l-8 -32h-40 v24l-8 -8h-8l8 -8v-16h-32q-128 0 -128 24v32zM496 1156l8 -8q-10 -64 -32 -64h-120v40l24 24h64zM368 1068l24 -24h16l32 24h24l8 -8h8l-112 -384h-16v376zM496 940v-16l-24 -80h-16q20 96 40 96zM448 772l16 -16l-8 -40q32 0 32 -40q24 0 24 -64h8q0 24 16 24l16 -16 l-8 -40v-16h8q0 48 56 64h8v-616l-16 -16h-16l-8 8l-8 -8h-16l-8 8l-8 -8h-40l-8 8l-8 -8h-16l-8 8l-8 -8h-32l-8 8l-8 -8h-16l-8 8h-8l-8 -8l-8 8v240l16 24l-16 16v184q40 34 40 64v16h-16v16q44 208 72 208zM520 428v-16l24 16l8 -8v-8l-8 -8h16l16 16l-8 32h-24z" />
<glyph unicode="u" horiz-adv-x="984" d="M96 1724h224v-8l-224 -232l32 -8l200 200h8v-416q0 -44 -40 -64h-24q-30 24 -56 24q0 -22 -40 -40v-8l8 -8v-8l-8 -8h-24l-32 24h-8l32 -40v-8q0 -16 -32 -16l8 -8v-16q0 -16 -24 -16v-8q24 0 24 -16l-24 -8l8 -40v-8l-8 -8l8 -8v-16l-8 -8v-8l32 -24l-16 -24 q16 0 16 -32q52 0 64 -72q28 0 64 -48q18 0 80 -80v-16l-16 -16l-16 16q-56 -40 -56 -72h-24q-38 32 -64 32l-24 -8l-16 16l-24 -40h-16v768q0 16 32 16v8q-32 0 -32 16v40q48 0 48 16v32h-8l-32 -24h-8v152l24 24l-24 40v48zM640 1724h248l16 -16l-40 -40l40 16v-648 q-40 -32 -80 -32q-60 0 -96 72q-64 6 -64 16l-8 -8h-32v8l8 8l-8 8v24l8 8l-8 8v32q0 46 32 72v24h-32v40l8 8l-8 8v8l8 8v8l-8 48v16l8 8l-8 8v272zM680 1708l-32 -40q40 -54 40 -80v-32l-16 -72l168 168q-72 0 -160 56zM720 1348l32 -32q64 0 72 64l-24 64zM672 1012v-16 l-8 -8l8 -8v-16q0 -24 -32 -24v-24l72 -16l32 16l48 -16h32l64 16l16 -16v-152q0 -18 -120 -32l-8 -8l-40 -16l-32 -32v-8q144 -36 144 -48l-72 -72v-8q30 0 40 -32v-16l-472 -472q-256 134 -256 320l-8 8v8h8l-8 8v16q0 104 16 144l104 -48v-8l-16 -24l16 -16l-8 -8h24 l-8 8v16h8l8 -8h8v16l-8 8v8l8 8h8l32 -16l8 8h40l16 -16v-8l-8 -8l16 -64l-24 -8v-8q40 -2 40 -24v-8h-56v-8q52 0 152 -48h32q2 -72 24 -72q16 66 104 144q6 64 16 64l-8 8v136l8 48l-8 40h8l-8 8v360q8 24 48 24zM672 700l-8 -8v-8l24 -8l24 8v8zM736 596v-8h32v8h-32z M640 444v-32h8q120 108 120 128l-8 8q-46 -32 -80 -32q0 -26 -40 -72zM328 548l8 -8v-48h-8l-24 24zM896 492h8v-128q0 -24 -40 -24v-8q32 0 32 -32q0 -110 -184 -256q-100 -64 -224 -64l-80 8v8l224 224q0 -24 48 -24v-40q128 64 128 144q24 44 24 88v32l-160 -152h-24v8 l176 176l16 -16zM656 260v-8l-16 -16l-8 8v8l8 8h16zM152 244v-8h48v8h-48zM272 212v-16h8l16 16v8z" />
<glyph unicode="v" horiz-adv-x="1136" d="M344 1724l16 -16v-16l-8 -8v-8q30 0 64 -312l8 -32q-96 -26 -96 -48v-8l40 -16l40 8v-8l8 8h8l16 -16v-16q-80 -96 -112 -96q-72 -28 -72 -64q0 -46 -40 -64q-16 30 -56 280q22 0 96 64v8q0 56 -120 72l-16 88l8 56q-26 0 -48 136l8 8h256zM808 1724h168v-16h-40l-8 8h-8 l-104 -104l-40 40q12 72 32 72zM1000 1724h24v-16h-24v16zM296 1676l-16 -16l-24 8l-80 -88l24 -8l-8 -8v-16l64 -8l80 120v8zM1048 1668h8q-104 -616 -120 -632h-8l8 -24q0 -88 -24 -88l8 -8v-24l-200 24q0 -18 56 -24v-8q-38 -56 -80 -56v-32l64 32l-8 8v8l40 40h8l16 -16 q-32 0 -32 -16h8l96 16h8l8 -8h8q-12 -136 -64 -136l-40 -16v-32h48l16 -16v-24l-16 -16l-8 8v8l-24 -8v-16q0 -14 40 -24l-112 -584l-8 -8h-40l-8 8l-8 -8h-16l-8 8l-8 -8h-56l-8 8l-8 -8h-16l-8 8l-8 -8h-48l-8 8l-8 -8h-16l-8 8l-8 -8h-16l-16 16l40 40h32l8 -8l24 8 q0 24 -48 48q-32 -4 -32 -56h-40l-8 -8h-8q-24 54 -40 208l32 48v16q-26 0 -40 96l8 32v16l-32 -24l-16 80l8 8q-24 0 -24 80q-12 0 -16 104h8l128 -24l32 8q0 -28 24 -32t24 -32l24 16h8l16 -16l-8 -8v-8q24 0 40 -184q16 0 48 224l8 8h96v8h-96l-8 8l24 64q36 -16 104 -16 h64v8q-32 0 -32 24h8l8 -8h16v8l-32 8l-16 -16h-56l-56 -8v8l24 32h-8l-24 -24h-8q50 392 96 392l8 8l128 -16h16q0 32 -128 32h-32l-16 16q18 208 64 208l48 48l8 -8h8q0 24 160 184zM288 1524v-16l16 -16l8 8v24h-24zM208 1460v-8h16v-8q80 8 80 24v16h-48q-48 0 -48 -24z M840 1324v-16h64l16 16v8h-40zM464 1052l40 -192l-56 -16v-32q14 -32 32 -32l-72 -80l-128 16l-8 -8q-20 20 -32 160q178 184 216 184h8zM880 988l-40 -48h8l40 48h-8zM504 612l-24 -32h8l24 32h-8zM744 588v-8l56 -8l32 8v8l-32 8l-8 -8h-16l-8 8zM640 540l8 -8h32v8 l-16 16h-8zM432 540l-56 -64h8l56 64h-8zM488 516v-16h40v8l-8 8v8zM592 444l40 -8h16l40 8v8l-40 8h-40zM456 388l8 -8v-8l24 8v32z" />
<glyph unicode="w" horiz-adv-x="1496" d="M88 1728h256q20 0 24 -96l-16 -16h24v-32q-40 -56 -64 -56v-56l40 -8h16l8 8h8l32 -136l-40 -24h-8q-30 0 -64 40l-32 8q-58 -10 -88 -40l8 -8v-8l-24 -24h-16l-8 40v24l16 24v8l-16 24l80 88h-8l-80 -80h-8v8q36 128 56 128l-40 120h-16q-16 0 -16 -32l-8 -8h-8l-16 80z M616 1728h256q26 0 64 -360l-40 -16v-8h24l8 8h8q16 -26 32 -184l-168 -72v-8h16q78 16 152 56l40 -240l-8 -24q16 0 16 -48h8q0 56 32 56v16l-24 8q0 98 48 128l-32 8q22 192 48 192l8 -8h8q48 26 48 64v8q-72 8 -72 24q22 224 48 224l40 8l24 -8l48 16q0 46 -88 56h-8 l-8 -8h-8l-8 8q6 104 32 104h256v-8q0 -184 -64 -216l-32 -16v-8q24 0 24 -24q32 0 32 -16q-56 -392 -72 -408l-80 8h-56q14 -20 136 -56v-8l-152 -64v8l-24 -8v-24q152 -32 152 -48q0 -78 -24 -112l-128 16l-120 -16h-80v8l8 8v8q-48 0 -72 40q-104 58 -104 88v48h-8 q0 -58 -24 -64l8 -8v-32q0 -56 -32 -56h-16v-8q0 -16 24 -16l8 -8v-8l-8 -8h-112l-8 8l-8 -8h-328q-16 0 -56 272l40 8v8q-48 0 -48 32l-8 40q64 -6 64 -16q56 14 56 32v24l-16 16h-64l-40 -32h-8v8l-16 112l8 8q150 -32 240 -32v16l-56 8v16l64 16h8l56 -400l-8 -8l-80 24 v-8q86 -80 168 -80h16q-8 22 -88 64q16 152 32 152l256 -56l8 8h8l64 -8v24q-170 48 -336 48h-8q20 216 56 216q68 -16 176 -16h24l8 -8l48 8v8l-16 16h-16l-184 40v8l16 24q-4 18 -64 40v8q16 140 50 162q74 30 150 62v32l-80 16l-80 -16l-8 8zM1224 1504l-32 -40h8l56 16 v16zM1352 1488h32v-8l-8 -8v-8l-24 8v16zM784 1304v-8h32v8h-32zM160 1264h72v-16h-32l-40 8v8zM1216 1128h40v16h-24zM896 1048v-16l24 -24q48 4 48 48h-16zM1056 976l8 -8h16q0 16 24 16v8h-32zM792 816q0 -16 72 -64h-8q-80 0 -80 24v24zM576 768v-24h16v8zM1248 696 l8 -8v-8l-24 -144l-56 8v96l-16 -16v-64h-8q-112 96 -176 96h-16l-16 -16q0 -54 216 -168v-8l56 40h16q-54 -360 -72 -368h-24q0 -16 24 -16l8 -8v-8q0 -104 -56 -104h-24l-8 8l-8 -8h-40l-8 8l-8 -8h-40q-16 0 -16 24h-8q0 -24 -16 -24h-24q-2 0 -24 154q-28 220 -80 454 l-16 72l8 8h152l48 -8l40 8l8 -8l8 8h80q0 -32 32 -32zM712 688q-36 -360 -56 -360l8 -8l-16 -96l-96 16q0 -12 32 -24l-16 -88l8 -8q0 -70 -88 -120h-112q-18 0 -32 144l48 8v16q0 14 -56 24l-8 40q0 16 24 16v8q-48 0 -64 232l-8 8v8h8l24 -24l56 40h8l32 -24l32 16l-8 40 v48h-16q0 -36 -32 -56l-16 40q-50 -4 -80 -32q-24 0 -32 128l8 8h448zM416 640v-8l152 -32l8 8v16l-136 24zM856 648v-200h8v88h8l-8 8v104h-8zM912 568q0 -16 -32 -16v-24l16 -16h40l16 16v8zM488 480v-8l88 -16l8 8v8l-8 8h-88zM520 344l-16 -48q8 -56 24 -56l24 32v16 q0 44 -32 56zM1008 216v-8q72 6 72 24v8h-48zM632 216l16 -16l-16 -120h-16l-8 32l8 8h8l-16 88l8 8h16zM1016 128v-64h8v64h-8zM560 48h16v-40l-40 -8l-16 16zM616 48h8v-32h-16v8z" />
<glyph unicode="x" horiz-adv-x="1120" d="M192 1728l-16 -64l8 -40q18 0 32 72l-8 32h152q28 0 104 -272h-264q-32 16 -32 48l32 24l16 -16q50 0 120 56h-16q-40 0 -152 -40q-22 22 -88 192l8 8h104zM760 1728h264l16 -16q-76 -200 -96 -208q-40 0 -40 -48h-232l-16 16q82 234 104 256zM456 1432v-8 q-2 -16 -152 -88v-8h16q44 0 168 64q32 -52 56 -144q-56 -26 -56 -72v-32h8l8 8h8l8 -32h8l80 80l-24 56q52 176 72 176h64v-16q-32 0 -32 -16v-8l8 8h8l8 -8h8q0 12 32 24v16h56v-16q-24 0 -24 -16h16q48 0 48 32h72v-8q0 -50 -64 -120l8 -32q-30 -88 -48 -88l-16 16v-80 q0 -40 -184 -224l-144 -144h-8l8 48v24h-8q-6 -112 -32 -112h-8l-48 16v-16h-16l56 152l-56 160l160 48v32h-8l-152 -48h-8q-14 0 -152 368l8 8h248zM616 992v-8l48 -8q48 36 48 72v8h-40q-18 0 -40 -64h-16zM488 968v-32h8v32h-8zM472 872v-32h8v32h-8zM736 784v-8 q0 -22 -40 -40v8zM744 744h16l32 -120v-8h-16v16h-8q0 -52 -144 -200v-8h-8q-22 0 -40 104l80 96h24v-56h8v80q16 32 40 32v16l-24 -16l-16 16zM664 672h8v-8l-24 -24h-8v8zM800 576h24l80 -208q-28 -24 -120 -24l-8 8l8 8v176zM760 504v-40l8 -120q-30 -18 -120 -24l-16 48 v8l88 96h8v-64h8v88l8 8h16zM504 400v-8q-10 -56 -32 -56h-8v8q28 56 40 56zM472 312v-8q0 -70 -128 -184v16q82 130 128 176zM688 280q272 0 272 -48l80 -224l-8 -8h-56l-8 8l-8 -8h-64l-8 8l-8 -8h-56l-8 8l-8 -8h-32q-26 0 -112 272zM752 136v-8l24 -8l24 8v8h-48z M392 96v-8q-20 -88 -40 -88h-24l-16 16z" />
<glyph unicode="y" horiz-adv-x="1096" d="M128 1728h80v-8l-8 -8v-8h8l56 8v-8l-144 -144q-18 0 -40 104q54 22 64 48h-16v16zM736 1728h264l8 -8h8q-40 -152 -112 -152l-144 -72q-50 24 -88 72l16 16h8l8 -24q88 26 88 48v24q0 16 -72 24l-16 -40h-16q30 112 48 112zM376 1592h16l16 -64l-136 -40zM664 1520 l160 -120v-88l-16 -16l-24 24l-64 -16v8q-48 -10 -48 -24v-8q0 -34 80 -56h8q42 0 48 24l-8 8l8 8h8l8 -8v-40q0 -68 -160 -496l8 -8v-8l-16 -16h-48q0 100 -144 136h-8q-64 0 -64 -32h-16l-136 416l40 8v16l-48 8l8 8v56h-8l-24 -8q-32 64 -32 104q46 0 240 88l96 -288 l-16 -16v-8q24 0 24 -80q34 -96 48 -96l32 -16l48 72l-8 8v8l24 80l-16 48h8l-48 144q0 42 56 176zM816 1488l8 -8v-8l-16 -16l-8 8v8zM432 1016v-8h32v16h-8zM416 680l96 -16l120 16h32l8 -56v-104l-8 -8l8 -8v-24l-8 -8l8 -8v-8l-8 -8l8 -8v-64l-8 -32l8 -32l-8 -32l8 -8 l-8 -24l8 -128v-48l-8 -8l8 -8v-40l-16 -16q-32 36 -40 144l8 24h-8q-24 0 -24 24q-48 -22 -48 -88l24 -96l-8 -8h-8v8l-8 -8h-80l-8 8l-8 -8h-32l-16 16v72l8 8l-8 8v560z" />
<glyph unicode="z" horiz-adv-x="928" d="M168 1728q16 0 16 -48h8q0 48 16 48h120q58 -46 152 -208h16l-24 40q52 20 56 40l-8 8v8l-40 -16l-24 8v-16q-96 102 -96 136h472l16 -16v-232l-120 -312l-72 16l-16 -40h8l56 -32q-110 -304 -128 -304q-186 128 -208 160v16l40 -8h8v8q0 16 -32 16q0 36 176 464h-272 q0 16 -40 32v-32h-152l-16 16v16h8l-8 56v120l8 40l-8 8l8 8h80zM352 928l104 -80v-8h-40l-24 -16q0 -38 160 -88v-16q-12 -32 -24 -32h-40q-58 0 -64 24l-8 -8l-40 8h-72l-16 16l-8 -8h-16zM488 568l-120 -304l88 -64v8q-36 40 -56 40v16h72q14 0 24 -56l64 -16l96 32 l-8 24h8q26 -48 192 -112v-120l-16 -16h-48l-8 8l-8 -8h-104l-8 8l-8 -8h-96l-8 8l-8 -8h-88l-8 8l-8 -8h-8l-64 16l-24 -8l-248 264q0 32 64 104l-8 48q38 104 56 104l24 8l8 -8h8l32 8h8l16 -16l64 24l8 -8h8zM80 176h16l168 -168l-8 -8h-24l-8 8l-8 -8h-16l-32 8l-32 -8 v8l-8 -8h-40l-8 56h8l-8 8v32l8 8l-8 8v16l8 8l-8 8v32z" />
<glyph unicode="{" horiz-adv-x="728" d="M488 1848l64 -80q-168 12 -176 48q0 24 112 32zM632 1752l16 -16v-24h-8l-24 24zM296 1720l152 -160l-8 -56v-112l-40 8q-40 -82 -40 -152v-32q0 -26 80 -48v-48q0 -100 -112 -192v-8q112 -76 112 -176v-144h-16l-8 24q-72 -24 -72 -72l16 -16h16q28 0 56 32h8v-224 l8 -40l-160 -40v-24h72l88 16h8q18 -72 128 -72v-16l-40 -80l-8 8h-8q-48 -8 -48 -24q0 -40 32 -48l48 24q56 -4 56 -48h8l8 64h16v-56l-16 -16h-48l-8 8l-8 -8q-256 0 -328 200l-24 128l8 8l-8 40v264l8 32q0 104 -48 168l24 32l-32 8l-8 -8h-8l-56 48v-8l8 -40l-8 -8h-8 l-8 8v128h8l96 -96l-8 -8l32 -16h8q0 16 96 112v8h-32l-88 -88h-8v8l40 80q-24 0 -48 32v8q40 38 40 120v224l8 8l-8 8v96l8 32l-8 8q0 192 80 192zM424 1312h16v-112h-32l16 104v8zM336 1112l-16 -16l-32 8h-8v-8q40 -32 80 -32h40q12 0 24 32q-56 0 -88 16zM624 184 l24 -24v-72h-16l-24 88l8 8h8z" />
<glyph unicode="|" horiz-adv-x="416" d="M96 2272h224l16 -16v-2032h-176v-8l40 -8l8 8h40q88 0 88 -24v-256h-8l-32 40q-22 0 -96 88l80 8v8l-64 8l-32 -8q-48 22 -48 88h-8v-24h-8l-24 16v-40l8 -40h-8l-16 16v208l8 8l-8 8v32l8 8l-8 8v8l8 8l-8 8v64l8 8l-8 8v184l8 8l-8 8v248l8 8l-8 8v8l8 8v8 q100 -72 176 -72h24q-44 80 -72 88q0 32 -40 32q0 18 -88 72l-8 32v680l8 8l-8 8v32l8 8l-8 8v8l8 24l-8 40v328zM248 1656v-48h8v48h-8zM208 840v-40h8v40h-8zM152 336v-32l40 -8h16l32 32v32l-24 8q-64 -10 -64 -32zM96 72l8 -8l8 8h8l80 -80l-16 -24q88 0 88 -96h8v24h16 l24 -24v-8h-224l-16 16v8l8 8l-8 8v40l8 32l-8 32v48z" />
<glyph unicode="}" horiz-adv-x="728" d="M104 1856h8l16 -16l-32 -24h-8v24zM152 1848h64l8 -8h8l-8 -40v-32l8 -40q-52 -64 -80 -64q-60 30 -64 48v72zM280 1704h8l-48 -48h-8zM488 1656q24 -36 24 -160v-80h-8l-24 8q0 -16 24 -16l8 -8v-96q0 -16 -80 -24l8 -8v-8l-8 -8v-8l16 -16h-24l-32 8l-8 -8h-8l-40 8 q-8 -32 -48 -32v232l16 16h24l56 -40q0 32 56 32v8q-18 0 -80 56v8zM456 1224h32l24 -24v-8q0 -146 64 -200q-38 -90 -56 -208l8 -8l-16 -112v-352h-16l-112 192l8 40q-72 0 -104 112v40q0 152 120 216q-120 96 -120 224v24h8q128 0 128 -24l32 8v8q-24 0 -24 16t32 16l8 24 zM360 1024l24 -24v-8q26 0 64 64l-8 8h-32q-48 0 -48 -40zM632 992l16 -16v-112l-16 -16h-8l-16 16l24 24v8h-16v80zM488 888v-8h40v8h-40zM288 488h8q44 0 128 -160q24 -12 80 -112q-52 -176 -136 -176l-144 144q64 26 64 144v160zM96 168h40l152 -152v-16l-192 -16l-16 16 v152z" />
<glyph unicode="~" horiz-adv-x="992" d="M296 2024l16 -64v-40l-32 -40l48 -8v136l16 16q52 0 312 -128h16q28 4 104 80l136 -104v-16q-114 -144 -248 -144q-86 0 -176 64q40 4 40 88h-8q-20 0 -32 -64v-24l-176 64l-72 -40v8q0 26 24 56v8h-40q-24 0 -24 120zM160 1960h8l8 -56v-40l-40 -8h-40l-16 16v8z M136 1832h16l32 -32v-8zM736 1792l8 -24h8v24h-16z" />
<glyph unicode="&#xa0;" />
<glyph unicode="&#xa1;" />
<glyph unicode="&#xa2;" />
<glyph unicode="&#xa3;" />
<glyph unicode="&#xa4;" />
<glyph unicode="&#xa5;" />
<glyph unicode="&#xa6;" />
<glyph unicode="&#xa7;" />
<glyph unicode="&#xa8;" />
<glyph unicode="&#xa9;" />
<glyph unicode="&#xaa;" />
<glyph unicode="&#xab;" />
<glyph unicode="&#xac;" />
<glyph unicode="&#xad;" horiz-adv-x="936" d="M96 988h136v-16h-16v-24l8 -8l24 -8v-8q88 8 152 40v-112l8 -40l8 8l8 24h8l-8 8v8l8 8l-8 8v56q0 40 16 40l24 -8v8l16 16h360l16 -16v-240l-16 -16h-120l-8 8h-8l8 40v24l-16 136h-8l-8 -80l8 -120l-8 -8h-496q-16 0 -24 56l8 8q-88 0 -88 32v96q16 32 48 32v8h-8 l-32 -16l-8 8v32zM680 948v-16h8q56 0 88 -16l64 8v8l-88 24zM328 844v-8h32v8h-32zM720 756q12 -32 24 -32l16 72l-8 24q-24 -4 -24 -64h-8z" />
<glyph unicode="&#xae;" />
<glyph unicode="&#xaf;" />
<glyph unicode="&#xb0;" />
<glyph unicode="&#xb1;" />
<glyph unicode="&#xb2;" />
<glyph unicode="&#xb3;" />
<glyph unicode="&#xb4;" />
<glyph unicode="&#xb5;" />
<glyph unicode="&#xb6;" />
<glyph unicode="&#xb7;" />
<glyph unicode="&#xb8;" />
<glyph unicode="&#xb9;" />
<glyph unicode="&#xba;" />
<glyph unicode="&#xbb;" />
<glyph unicode="&#xbc;" />
<glyph unicode="&#xbd;" />
<glyph unicode="&#xbe;" />
<glyph unicode="&#xbf;" />
<glyph unicode="&#xc0;" />
<glyph unicode="&#xc1;" />
<glyph unicode="&#xc2;" />
<glyph unicode="&#xc3;" />
<glyph unicode="&#xc4;" />
<glyph unicode="&#xc5;" />
<glyph unicode="&#xc6;" />
<glyph unicode="&#xc7;" />
<glyph unicode="&#xc8;" />
<glyph unicode="&#xc9;" />
<glyph unicode="&#xca;" />
<glyph unicode="&#xcb;" />
<glyph unicode="&#xcc;" />
<glyph unicode="&#xcd;" />
<glyph unicode="&#xce;" />
<glyph unicode="&#xcf;" />
<glyph unicode="&#xd0;" />
<glyph unicode="&#xd1;" />
<glyph unicode="&#xd2;" />
<glyph unicode="&#xd3;" />
<glyph unicode="&#xd4;" />
<glyph unicode="&#xd5;" />
<glyph unicode="&#xd6;" />
<glyph unicode="&#xd7;" />
<glyph unicode="&#xd8;" />
<glyph unicode="&#xd9;" />
<glyph unicode="&#xda;" />
<glyph unicode="&#xdb;" />
<glyph unicode="&#xdc;" />
<glyph unicode="&#xdd;" />
<glyph unicode="&#xde;" />
<glyph unicode="&#xdf;" />
<glyph unicode="&#xe0;" />
<glyph unicode="&#xe1;" />
<glyph unicode="&#xe2;" />
<glyph unicode="&#xe3;" />
<glyph unicode="&#xe4;" />
<glyph unicode="&#xe5;" />
<glyph unicode="&#xe6;" />
<glyph unicode="&#xe7;" />
<glyph unicode="&#xe8;" />
<glyph unicode="&#xe9;" />
<glyph unicode="&#xea;" />
<glyph unicode="&#xeb;" />
<glyph unicode="&#xec;" />
<glyph unicode="&#xed;" />
<glyph unicode="&#xee;" />
<glyph unicode="&#xef;" />
<glyph unicode="&#xf0;" />
<glyph unicode="&#xf1;" />
<glyph unicode="&#xf2;" />
<glyph unicode="&#xf3;" />
<glyph unicode="&#xf4;" />
<glyph unicode="&#xf5;" />
<glyph unicode="&#xf6;" />
<glyph unicode="&#xf7;" />
<glyph unicode="&#xf8;" />
<glyph unicode="&#xf9;" />
<glyph unicode="&#xfa;" />
<glyph unicode="&#xfb;" />
<glyph unicode="&#xfc;" />
<glyph unicode="&#xfd;" />
<glyph unicode="&#xfe;" />
<glyph unicode="&#xff;" />
<glyph unicode="&#x152;" />
<glyph unicode="&#x153;" />
<glyph unicode="&#x178;" />
<glyph unicode="&#x2c6;" />
<glyph unicode="&#x2dc;" />
<glyph unicode="&#x2000;" horiz-adv-x="1136" />
<glyph unicode="&#x2001;" horiz-adv-x="2272" />
<glyph unicode="&#x2002;" horiz-adv-x="1136" />
<glyph unicode="&#x2003;" horiz-adv-x="2272" />
<glyph unicode="&#x2004;" horiz-adv-x="757" />
<glyph unicode="&#x2005;" horiz-adv-x="568" />
<glyph unicode="&#x2006;" horiz-adv-x="378" />
<glyph unicode="&#x2007;" horiz-adv-x="378" />
<glyph unicode="&#x2008;" horiz-adv-x="284" />
<glyph unicode="&#x2009;" horiz-adv-x="454" />
<glyph unicode="&#x200a;" horiz-adv-x="126" />
<glyph unicode="&#x2010;" horiz-adv-x="936" d="M96 988h136v-16h-16v-24l8 -8l24 -8v-8q88 8 152 40v-112l8 -40l8 8l8 24h8l-8 8v8l8 8l-8 8v56q0 40 16 40l24 -8v8l16 16h360l16 -16v-240l-16 -16h-120l-8 8h-8l8 40v24l-16 136h-8l-8 -80l8 -120l-8 -8h-496q-16 0 -24 56l8 8q-88 0 -88 32v96q16 32 48 32v8h-8 l-32 -16l-8 8v32zM680 948v-16h8q56 0 88 -16l64 8v8l-88 24zM328 844v-8h32v8h-32zM720 756q12 -32 24 -32l16 72l-8 24q-24 -4 -24 -64h-8z" />
<glyph unicode="&#x2011;" horiz-adv-x="936" d="M96 988h136v-16h-16v-24l8 -8l24 -8v-8q88 8 152 40v-112l8 -40l8 8l8 24h8l-8 8v8l8 8l-8 8v56q0 40 16 40l24 -8v8l16 16h360l16 -16v-240l-16 -16h-120l-8 8h-8l8 40v24l-16 136h-8l-8 -80l8 -120l-8 -8h-496q-16 0 -24 56l8 8q-88 0 -88 32v96q16 32 48 32v8h-8 l-32 -16l-8 8v32zM680 948v-16h8q56 0 88 -16l64 8v8l-88 24zM328 844v-8h32v8h-32zM720 756q12 -32 24 -32l16 72l-8 24q-24 -4 -24 -64h-8z" />
<glyph unicode="&#x2012;" horiz-adv-x="936" d="M96 988h136v-16h-16v-24l8 -8l24 -8v-8q88 8 152 40v-112l8 -40l8 8l8 24h8l-8 8v8l8 8l-8 8v56q0 40 16 40l24 -8v8l16 16h360l16 -16v-240l-16 -16h-120l-8 8h-8l8 40v24l-16 136h-8l-8 -80l8 -120l-8 -8h-496q-16 0 -24 56l8 8q-88 0 -88 32v96q16 32 48 32v8h-8 l-32 -16l-8 8v32zM680 948v-16h8q56 0 88 -16l64 8v8l-88 24zM328 844v-8h32v8h-32zM720 756q12 -32 24 -32l16 72l-8 24q-24 -4 -24 -64h-8z" />
<glyph unicode="&#x2013;" />
<glyph unicode="&#x2014;" />
<glyph unicode="&#x2018;" />
<glyph unicode="&#x2019;" />
<glyph unicode="&#x201a;" />
<glyph unicode="&#x201c;" />
<glyph unicode="&#x201d;" />
<glyph unicode="&#x201e;" />
<glyph unicode="&#x2022;" />
<glyph unicode="&#x2026;" />
<glyph unicode="&#x202f;" horiz-adv-x="454" />
<glyph unicode="&#x2039;" />
<glyph unicode="&#x203a;" />
<glyph unicode="&#x205f;" horiz-adv-x="568" />
<glyph unicode="&#x20ac;" />
<glyph unicode="&#x2122;" />
<glyph unicode="&#x25fc;" horiz-adv-x="1730" d="M0 1730h1730v-1730h-1730v1730z" />
</font>
</defs>
</svg>
