<?xml version="1.0" encoding="UTF-8"?>
<svg width="152px" height="68px" viewBox="0 0 152 68" version="1.1" xmlns="http://www.w3.org/2000/svg" xmlns:xlink="http://www.w3.org/1999/xlink">
    <!-- Generator: Sketch 52.4 (67378) - http://www.bohemiancoding.com/sketch -->
    <title>footer-logo</title>
    <desc>Created with Sketch.</desc>
    <g id="oxygen" stroke="none" stroke-width="1" fill="none" fill-rule="evenodd">
        <g id="Oxygen" transform="translate(-644.000000, -1517.000000)">
            <g id="Footer" transform="translate(0.000000, 1407.000000)">
                <g id="footer-logo" transform="translate(645.000000, 110.000000)">
                    <g id="O2-logo-Copy" transform="translate(54.000000, 0.000000)" fill="#FFFFFF">
                        <path d="M21,5 C29.8,5 37,12.2 37,21 C37,29.8 29.8,37 21,37 C12.2,37 5,29.8 5,21 C5,12.2 12.2,5 21,5 L21,5 Z M0,21 C0,32.6 9.4,42 21,42 C26.044346,42 30.6726698,40.2224509 34.2929015,37.2594228 C38.9977702,33.4086585 42,27.555654 42,21 C42,9.4 32.6,0 21,0 C9.4,0 0,9.4 0,21 Z" id="Shape"></path>
                    </g>
                    <path d="M0,67 L150,67" id="Line" stroke="#3BA4A7" stroke-width="2" stroke-linecap="square"></path>
                </g>
            </g>
        </g>
    </g>
</svg>