<?xml version="1.0" encoding="UTF-8" standalone="no"?>
<!DOCTYPE svg PUBLIC "-//W3C//DTD SVG 1.1//EN" "http://www.w3.org/Graphics/SVG/1.1/DTD/svg11.dtd">
<svg width="100%" height="100%" viewBox="0 0 663 406" version="1.1" xmlns="http://www.w3.org/2000/svg" xmlns:xlink="http://www.w3.org/1999/xlink" xml:space="preserve" xmlns:serif="http://www.serif.com/" style="fill-rule:evenodd;clip-rule:evenodd;stroke-linejoin:round;stroke-miterlimit:2;">
    <g id="ArtBoard1" transform="matrix(0.939582,0,0,0.679957,-1025,-401.433)">
        <rect x="1090.91" y="590.38" width="705.589" height="596.256" style="fill:none;"/>
        <g id="Isolation-Mode" serif:id="Isolation Mode" transform="matrix(4.4346,0,0,6.12784,1181.59,777.016)">
            <g transform="matrix(1,0,0,1,44.8575,27.6408)">
                <path d="M0,6.449L0,0L2.752,0C3.979,0 4.592,0.515 4.592,1.547C4.592,2.386 3.992,3.007 2.793,3.41L5.008,6.449L3.906,6.449L1.854,3.549L1.854,3.004C3.088,2.808 3.703,2.334 3.703,1.583C3.703,0.987 3.361,0.689 2.676,0.689L0.835,0.689L0.835,6.449L0,6.449Z" style="fill:rgb(24,28,33);fill-rule:nonzero;"/>
            </g>
            <g transform="matrix(1,0,0,1,54.961,34.0896)">
                <path d="M0,-6.449L0,-5.773L-3.383,-5.773L-3.383,-3.607L-0.157,-3.607L-0.157,-2.931L-3.383,-2.931L-3.383,-0.676L0.068,-0.676L0.068,0L-4.217,0L-4.217,-6.449L0,-6.449Z" style="fill:rgb(24,28,33);fill-rule:nonzero;"/>
            </g>
            <g transform="matrix(1,0,0,1,56.504,27.6408)">
                <path d="M0,6.449L-0.865,6.449L1.872,0L2.797,0L5.549,6.449L4.623,6.449L3.789,4.42L1.656,4.42L1.886,3.744L3.51,3.744L2.305,0.82L0,6.449Z" style="fill:rgb(24,28,33);fill-rule:nonzero;"/>
            </g>
            <g transform="matrix(1,0,0,1,63.7657,34.0896)">
                <path d="M0,-6.449L0,-0.676L3.375,-0.676L3.375,0L-0.834,0L-0.834,-6.449L0,-6.449Z" style="fill:rgb(24,28,33);fill-rule:nonzero;"/>
            </g>
            <g transform="matrix(1,0,0,1,74.6056,34.0896)">
                <path d="M0,-6.449L0,-5.773L-3.383,-5.773L-3.383,-3.607L-0.158,-3.607L-0.158,-2.931L-3.383,-2.931L-3.383,-0.676L0.067,-0.676L0.067,0L-4.218,0L-4.218,-6.449L0,-6.449Z" style="fill:rgb(24,28,33);fill-rule:nonzero;"/>
            </g>
            <g transform="matrix(1,0,0,1,75.8458,27.8652)">
                <path d="M0,6L0,5.232C0.676,5.474 1.407,5.594 2.191,5.594C3.301,5.594 3.856,5.188 3.856,4.376C3.856,3.684 3.447,3.338 2.629,3.338L1.799,3.338C0.449,3.338 -0.226,2.752 -0.226,1.579C-0.226,0.347 0.639,-0.27 2.367,-0.27C3.119,-0.27 3.818,-0.18 4.465,0L4.465,0.768C3.818,0.527 3.119,0.406 2.367,0.406C1.195,0.406 0.609,0.797 0.609,1.579C0.609,2.271 1.006,2.617 1.799,2.617L2.629,2.617C4.004,2.617 4.691,3.203 4.691,4.376C4.691,5.639 3.857,6.27 2.191,6.27C1.407,6.27 0.676,6.18 0,6" style="fill:rgb(24,28,33);fill-rule:nonzero;"/>
            </g>
            <g transform="matrix(1,0,0,1,86.1075,34.0896)">
                <path d="M0,-6.449L0,-5.773L-2.03,-5.773L-2.03,0L-2.865,0L-2.865,-5.773L-4.895,-5.773L-4.895,-6.449L0,-6.449Z" style="fill:rgb(24,28,33);fill-rule:nonzero;"/>
            </g>
            <g transform="matrix(1,0,0,1,86.6349,27.6408)">
                <path d="M0,6.449L-0.867,6.449L1.871,0L2.796,0L5.547,6.449L4.623,6.449L3.788,4.42L1.654,4.42L1.885,3.744L3.508,3.744L2.305,0.82L0,6.449Z" style="fill:rgb(24,28,33);fill-rule:nonzero;"/>
            </g>
            <g transform="matrix(1,0,0,1,96.7384,34.0896)">
                <path d="M0,-6.449L0,-5.773L-2.029,-5.773L-2.029,0L-2.864,0L-2.864,-5.773L-4.895,-5.773L-4.895,-6.449L0,-6.449Z" style="fill:rgb(24,28,33);fill-rule:nonzero;"/>
            </g>
            <g transform="matrix(1,0,0,1,101.947,34.0896)">
                <path d="M0,-6.449L0,-5.773L-3.383,-5.773L-3.383,-3.607L-0.158,-3.607L-0.158,-2.931L-3.383,-2.931L-3.383,-0.676L0.068,-0.676L0.068,0L-4.217,0L-4.217,-6.449L0,-6.449Z" style="fill:rgb(24,28,33);fill-rule:nonzero;"/>
            </g>
            <g transform="matrix(1,0,0,1,42.1095,38.8767)">
                <path d="M0,-1.988L0.49,-1.031L0.989,-1.988L1.406,-1.988L0.684,-0.694L0.684,0L0.301,0L0.301,-0.7L-0.42,-1.988L0,-1.988Z" style="fill:rgb(24,28,33);fill-rule:nonzero;"/>
            </g>
            <g transform="matrix(1,0,0,1,44.9981,37.8828)">
                <path d="M0,0C0,0.086 0.012,0.169 0.037,0.249C0.062,0.33 0.099,0.4 0.146,0.462C0.193,0.523 0.252,0.573 0.321,0.61C0.391,0.648 0.469,0.666 0.557,0.666C0.646,0.666 0.725,0.647 0.793,0.609C0.861,0.57 0.919,0.52 0.965,0.457C1.012,0.393 1.048,0.322 1.072,0.242C1.096,0.162 1.108,0.082 1.108,0C1.108,-0.086 1.096,-0.169 1.069,-0.25C1.043,-0.33 1.006,-0.4 0.959,-0.463C0.91,-0.523 0.854,-0.572 0.785,-0.609C0.717,-0.646 0.64,-0.664 0.554,-0.664C0.465,-0.664 0.385,-0.645 0.317,-0.606C0.249,-0.568 0.191,-0.518 0.144,-0.455C0.096,-0.393 0.061,-0.322 0.035,-0.242C0.012,-0.163 0,-0.082 0,0M0.551,1.008C0.411,1.008 0.283,0.979 0.168,0.923C0.052,0.865 -0.048,0.79 -0.131,0.695C-0.214,0.602 -0.277,0.494 -0.322,0.373C-0.367,0.251 -0.391,0.127 -0.391,0C-0.391,-0.133 -0.366,-0.26 -0.318,-0.381C-0.271,-0.502 -0.205,-0.609 -0.119,-0.703C-0.035,-0.797 0.065,-0.871 0.182,-0.926C0.297,-0.98 0.424,-1.008 0.56,-1.008C0.699,-1.008 0.827,-0.979 0.943,-0.92C1.059,-0.861 1.158,-0.784 1.24,-0.689C1.322,-0.594 1.386,-0.485 1.43,-0.364C1.475,-0.242 1.498,-0.119 1.498,0.006C1.498,0.139 1.474,0.265 1.426,0.385C1.379,0.506 1.312,0.611 1.229,0.704C1.145,0.797 1.045,0.871 0.93,0.926C0.813,0.98 0.687,1.008 0.551,1.008" style="fill:rgb(24,28,33);fill-rule:nonzero;"/>
            </g>
            <g transform="matrix(1,0,0,1,48.753,37.2308)">
                <path d="M0,1.318C0.092,1.318 0.169,1.3 0.231,1.262C0.294,1.225 0.345,1.176 0.382,1.117C0.421,1.057 0.448,0.988 0.464,0.911C0.479,0.834 0.487,0.754 0.487,0.672L0.487,-0.342L0.871,-0.342L0.871,0.672C0.871,0.808 0.854,0.935 0.822,1.055C0.79,1.175 0.738,1.279 0.668,1.369C0.599,1.459 0.508,1.529 0.397,1.582C0.288,1.634 0.156,1.66 0.003,1.66C-0.155,1.66 -0.29,1.632 -0.401,1.578C-0.513,1.523 -0.603,1.45 -0.672,1.359C-0.741,1.269 -0.791,1.164 -0.821,1.045C-0.853,0.924 -0.868,0.8 -0.868,0.672L-0.868,-0.342L-0.481,-0.342L-0.481,0.672C-0.481,0.756 -0.474,0.836 -0.458,0.914C-0.442,0.992 -0.415,1.06 -0.376,1.12C-0.339,1.179 -0.288,1.228 -0.227,1.263C-0.165,1.3 -0.089,1.318 0,1.318" style="fill:rgb(24,28,33);fill-rule:nonzero;"/>
            </g>
            <g transform="matrix(1,0,0,1,51.5177,37.8951)">
                <path d="M0,-0.024L0.484,-0.024C0.52,-0.024 0.553,-0.032 0.584,-0.049C0.614,-0.065 0.641,-0.088 0.663,-0.118C0.686,-0.146 0.703,-0.18 0.717,-0.219C0.729,-0.258 0.736,-0.301 0.736,-0.346C0.736,-0.392 0.729,-0.435 0.714,-0.475C0.699,-0.514 0.679,-0.547 0.653,-0.577C0.629,-0.606 0.6,-0.628 0.566,-0.644C0.533,-0.66 0.501,-0.668 0.467,-0.668L0,-0.668L0,-0.024ZM-0.387,0.982L-0.387,-1.006L0.492,-1.006C0.584,-1.006 0.668,-0.987 0.746,-0.95C0.823,-0.911 0.891,-0.86 0.946,-0.797C1.002,-0.735 1.046,-0.665 1.078,-0.585C1.109,-0.506 1.125,-0.426 1.125,-0.346C1.125,-0.217 1.094,-0.1 1.029,0.005C0.965,0.111 0.877,0.187 0.768,0.234L1.234,0.982L0.798,0.982L0.381,0.316L0,0.316L0,0.982L-0.387,0.982Z" style="fill:rgb(24,28,33);fill-rule:nonzero;"/>
            </g>
            <g transform="matrix(1,0,0,1,57.337,38.5375)">
                <path d="M0,-1.31L-0.633,-1.31L-0.633,0.339L-1.02,0.339L-1.02,-1.31L-1.655,-1.31L-1.655,-1.649L0,-1.649L0,-1.31Z" style="fill:rgb(24,28,33);fill-rule:nonzero;"/>
            </g>
            <g transform="matrix(1,0,0,1,59.2618,38.4596)">
                <path d="M0,-1.154L-0.286,-0.35L0.276,-0.35L0,-1.154ZM-0.941,0.417L-0.158,-1.571L0.156,-1.571L0.937,0.417L0.529,0.417L0.347,-0.079L-0.351,-0.079L-0.533,0.417L-0.941,0.417Z" style="fill:rgb(24,28,33);fill-rule:nonzero;"/>
            </g>
            <g transform="matrix(1,0,0,1,62.8653,37.1133)">
                <path d="M0,1.539C-0.153,1.698 -0.33,1.777 -0.529,1.777C-0.656,1.777 -0.775,1.75 -0.889,1.693C-1,1.638 -1.098,1.562 -1.181,1.469C-1.264,1.374 -1.329,1.266 -1.377,1.143C-1.424,1.018 -1.448,0.891 -1.448,0.758C-1.448,0.622 -1.424,0.494 -1.377,0.373C-1.329,0.253 -1.263,0.147 -1.178,0.057C-1.093,-0.033 -0.993,-0.106 -0.879,-0.159C-0.764,-0.213 -0.639,-0.238 -0.504,-0.238C-0.323,-0.238 -0.168,-0.199 -0.039,-0.121C0.09,-0.043 0.187,0.062 0.252,0.195L-0.037,0.408C-0.085,0.309 -0.152,0.233 -0.236,0.182C-0.322,0.129 -0.416,0.103 -0.518,0.103C-0.601,0.103 -0.675,0.121 -0.74,0.156C-0.807,0.191 -0.863,0.24 -0.91,0.302C-0.957,0.363 -0.994,0.435 -1.02,0.515C-1.046,0.595 -1.059,0.68 -1.059,0.769C-1.059,0.863 -1.045,0.95 -1.017,1.031C-0.988,1.112 -0.949,1.184 -0.899,1.242C-0.849,1.303 -0.789,1.35 -0.721,1.385C-0.653,1.419 -0.578,1.435 -0.496,1.435C-0.312,1.435 -0.147,1.346 0,1.164L0,1.024L-0.4,1.024L-0.4,0.741L0.318,0.741L0.318,1.764L0,1.764L0,1.539Z" style="fill:rgb(24,28,33);fill-rule:nonzero;"/>
            </g>
            <g transform="matrix(1,0,0,1,64.6378,36.8889)">
                <path d="M0,1.988L0,0L0.387,0L0.387,1.649L1.4,1.649L1.4,1.988L0,1.988Z" style="fill:rgb(24,28,33);fill-rule:nonzero;"/>
            </g>
            <g transform="matrix(1,0,0,1,0,36.8674)">
                <rect x="67.407" y="0.023" width="0.387" height="1.986" style="fill:rgb(24,28,33);"/>
            </g>
            <g transform="matrix(1,0,0,1,69.7149,38.1625)">
                <path d="M0,-0.56L0,0.714L-0.387,0.714L-0.387,-1.274L-0.086,-1.274L0.949,0.031L0.949,-1.272L1.336,-1.272L1.336,0.714L1.022,0.714L0,-0.56Z" style="fill:rgb(24,28,33);fill-rule:nonzero;"/>
            </g>
            <g transform="matrix(1,0,0,1,73.9669,37.2281)">
                <path d="M0,1.31L0,1.649L-1.381,1.649L-1.381,-0.339L-0.025,-0.339L-0.025,-0.001L-0.994,-0.001L-0.994,0.478L-0.157,0.478L-0.157,0.791L-0.994,0.791L-0.994,1.31L0,1.31Z" style="fill:rgb(24,28,33);fill-rule:nonzero;"/>
            </g>
            <g transform="matrix(1,0,0,1,78.3751,38.3641)">
                <path d="M0,-0.954C-0.014,-0.968 -0.037,-0.985 -0.072,-1.008C-0.106,-1.03 -0.148,-1.052 -0.197,-1.073C-0.247,-1.095 -0.301,-1.113 -0.359,-1.128C-0.416,-1.143 -0.476,-1.151 -0.535,-1.151C-0.642,-1.151 -0.721,-1.132 -0.773,-1.093C-0.826,-1.053 -0.852,-0.997 -0.852,-0.927C-0.852,-0.886 -0.842,-0.851 -0.822,-0.825C-0.803,-0.798 -0.774,-0.774 -0.736,-0.753C-0.699,-0.732 -0.652,-0.714 -0.596,-0.697C-0.539,-0.681 -0.473,-0.663 -0.398,-0.643C-0.301,-0.618 -0.213,-0.59 -0.133,-0.559C-0.055,-0.53 0.014,-0.493 0.068,-0.448C0.123,-0.403 0.166,-0.35 0.195,-0.287C0.226,-0.224 0.24,-0.147 0.24,-0.056C0.24,0.051 0.221,0.142 0.18,0.218C0.141,0.293 0.086,0.355 0.02,0.401C-0.048,0.447 -0.127,0.482 -0.216,0.503C-0.306,0.525 -0.398,0.535 -0.496,0.535C-0.646,0.535 -0.793,0.513 -0.938,0.468C-1.084,0.423 -1.215,0.36 -1.33,0.277L-1.16,-0.056C-1.143,-0.039 -1.113,-0.017 -1.068,0.01C-1.025,0.037 -0.973,0.064 -0.913,0.091C-0.854,0.118 -0.787,0.142 -0.715,0.159C-0.642,0.179 -0.566,0.189 -0.49,0.189C-0.277,0.189 -0.172,0.12 -0.172,-0.017C-0.172,-0.061 -0.184,-0.099 -0.207,-0.128C-0.232,-0.159 -0.267,-0.184 -0.311,-0.207C-0.355,-0.229 -0.41,-0.25 -0.474,-0.268C-0.537,-0.287 -0.607,-0.308 -0.687,-0.327C-0.781,-0.353 -0.864,-0.382 -0.934,-0.413C-1.004,-0.444 -1.062,-0.479 -1.109,-0.52C-1.156,-0.561 -1.191,-0.61 -1.215,-0.667C-1.238,-0.722 -1.25,-0.788 -1.25,-0.865C-1.25,-0.966 -1.23,-1.056 -1.193,-1.134C-1.156,-1.212 -1.104,-1.278 -1.038,-1.33C-0.972,-1.382 -0.895,-1.422 -0.807,-1.449C-0.719,-1.475 -0.625,-1.489 -0.523,-1.489C-0.384,-1.489 -0.256,-1.468 -0.138,-1.424C-0.02,-1.38 0.082,-1.328 0.17,-1.268L0,-0.954Z" style="fill:rgb(24,28,33);fill-rule:nonzero;"/>
            </g>
            <g transform="matrix(1,0,0,1,80.4161,37.8951)">
                <path d="M0,-0.024L0.448,-0.024C0.52,-0.024 0.578,-0.052 0.626,-0.11C0.674,-0.169 0.697,-0.247 0.697,-0.346C0.697,-0.396 0.689,-0.442 0.675,-0.481C0.66,-0.522 0.641,-0.555 0.616,-0.584C0.592,-0.612 0.563,-0.633 0.531,-0.647C0.498,-0.661 0.465,-0.668 0.432,-0.668L0,-0.668L0,-0.024ZM-0.387,0.982L-0.387,-1.006L0.457,-1.006C0.548,-1.006 0.633,-0.987 0.71,-0.95C0.787,-0.911 0.854,-0.86 0.91,-0.797C0.967,-0.735 1.01,-0.665 1.042,-0.585C1.074,-0.506 1.09,-0.426 1.09,-0.346C1.09,-0.262 1.074,-0.18 1.045,-0.1C1.015,-0.021 0.973,0.049 0.918,0.111C0.864,0.172 0.799,0.222 0.723,0.259C0.646,0.296 0.562,0.316 0.471,0.316L0,0.316L0,0.982L-0.387,0.982Z" style="fill:rgb(24,28,33);fill-rule:nonzero;"/>
            </g>
            <g transform="matrix(1,0,0,1,83.4864,38.4596)">
                <path d="M0,-1.154L-0.286,-0.35L0.276,-0.35L0,-1.154ZM-0.941,0.417L-0.158,-1.571L0.156,-1.571L0.937,0.417L0.529,0.417L0.347,-0.079L-0.351,-0.079L-0.533,0.417L-0.941,0.417Z" style="fill:rgb(24,28,33);fill-rule:nonzero;"/>
            </g>
            <g transform="matrix(1,0,0,1,85.6388,37.9011)">
                <path d="M0,-0.032C0,-0.153 0.021,-0.274 0.064,-0.392C0.107,-0.511 0.17,-0.617 0.251,-0.71C0.332,-0.803 0.432,-0.88 0.549,-0.936C0.667,-0.995 0.801,-1.024 0.953,-1.024C1.13,-1.024 1.283,-0.983 1.413,-0.903C1.543,-0.823 1.639,-0.719 1.7,-0.59L1.403,-0.386C1.381,-0.441 1.352,-0.489 1.316,-0.526C1.281,-0.565 1.242,-0.595 1.2,-0.618C1.158,-0.639 1.115,-0.657 1.07,-0.667C1.025,-0.677 0.982,-0.682 0.941,-0.682C0.85,-0.682 0.77,-0.663 0.7,-0.624C0.631,-0.585 0.574,-0.534 0.528,-0.47C0.482,-0.408 0.447,-0.337 0.424,-0.259C0.401,-0.178 0.39,-0.099 0.39,-0.021C0.39,0.067 0.402,0.152 0.43,0.232C0.457,0.314 0.496,0.385 0.545,0.447C0.594,0.508 0.654,0.558 0.723,0.595C0.792,0.632 0.867,0.652 0.949,0.652C0.992,0.652 1.037,0.646 1.082,0.634C1.126,0.622 1.17,0.605 1.211,0.581C1.254,0.557 1.293,0.526 1.328,0.488C1.363,0.448 1.393,0.403 1.414,0.349L1.73,0.53C1.701,0.605 1.658,0.671 1.601,0.728C1.544,0.784 1.479,0.833 1.406,0.872C1.334,0.911 1.257,0.941 1.177,0.962C1.096,0.982 1.018,0.992 0.938,0.992C0.801,0.992 0.674,0.962 0.559,0.904C0.444,0.843 0.346,0.765 0.262,0.669C0.18,0.573 0.115,0.464 0.068,0.341C0.023,0.219 0,0.095 0,-0.032" style="fill:rgb(24,28,33);fill-rule:nonzero;"/>
            </g>
            <g transform="matrix(1,0,0,1,90.1349,37.2281)">
                <path d="M0,1.31L0,1.649L-1.381,1.649L-1.381,-0.339L-0.025,-0.339L-0.025,-0.001L-0.994,-0.001L-0.994,0.478L-0.157,0.478L-0.157,0.791L-0.994,0.791L-0.994,1.31L0,1.31Z" style="fill:rgb(24,28,33);fill-rule:nonzero;"/>
            </g>
            <g transform="matrix(1,0,0,1,95.0274,38.8767)">
                <path d="M0,-1.988L0,0L-0.385,0L-0.385,-0.848L-1.286,-0.848L-1.286,0L-1.673,0L-1.673,-1.988L-1.286,-1.988L-1.286,-1.184L-0.385,-1.184L-0.385,-1.988L0,-1.988Z" style="fill:rgb(24,28,33);fill-rule:nonzero;"/>
            </g>
            <g transform="matrix(1,0,0,1,97.9415,37.2281)">
                <path d="M0,1.31L0,1.649L-1.381,1.649L-1.381,-0.339L-0.024,-0.339L-0.024,-0.001L-0.994,-0.001L-0.994,0.478L-0.156,0.478L-0.156,0.791L-0.994,0.791L-0.994,1.31L0,1.31Z" style="fill:rgb(24,28,33);fill-rule:nonzero;"/>
            </g>
            <g transform="matrix(1,0,0,1,99.7599,37.8951)">
                <path d="M0,-0.024L0.484,-0.024C0.52,-0.024 0.553,-0.032 0.584,-0.049C0.615,-0.065 0.641,-0.088 0.664,-0.118C0.686,-0.146 0.703,-0.18 0.717,-0.219C0.73,-0.258 0.736,-0.301 0.736,-0.346C0.736,-0.392 0.729,-0.435 0.715,-0.475C0.699,-0.514 0.68,-0.547 0.654,-0.577C0.629,-0.606 0.6,-0.628 0.566,-0.644C0.534,-0.66 0.502,-0.668 0.468,-0.668L0,-0.668L0,-0.024ZM-0.387,0.982L-0.387,-1.006L0.492,-1.006C0.584,-1.006 0.669,-0.987 0.746,-0.95C0.824,-0.911 0.891,-0.86 0.947,-0.797C1.002,-0.735 1.047,-0.665 1.078,-0.585C1.109,-0.506 1.126,-0.426 1.126,-0.346C1.126,-0.217 1.094,-0.1 1.029,0.005C0.965,0.111 0.877,0.187 0.768,0.234L1.234,0.982L0.799,0.982L0.381,0.316L0,0.316L0,0.982L-0.387,0.982Z" style="fill:rgb(24,28,33);fill-rule:nonzero;"/>
            </g>
            <g transform="matrix(1,0,0,1,103.762,37.2281)">
                <path d="M0,1.31L0,1.649L-1.381,1.649L-1.381,-0.339L-0.025,-0.339L-0.025,-0.001L-0.994,-0.001L-0.994,0.478L-0.156,0.478L-0.156,0.791L-0.994,0.791L-0.994,1.31L0,1.31Z" style="fill:rgb(24,28,33);fill-rule:nonzero;"/>
            </g>
            <g transform="matrix(1,0,0,1,7.3214,-0.0001)">
                <path d="M0,38.297L0,25.473L22.465,9.065L28.659,13.59L34.865,9.057L22.465,0L-7.321,21.754L-7.321,38.297L0,38.297Z" style="fill:rgb(24,28,33);fill-rule:nonzero;"/>
            </g>
            <g transform="matrix(1,0,0,1,31.5821,-0.0001)">
                <path d="M0,38.297L0,25.473L22.466,9.065L34.866,9.057L22.466,0L-7.32,21.754L-7.32,38.297L0,38.297Z" style="fill:rgb(24,28,33);fill-rule:nonzero;"/>
            </g>
        </g>
    </g>
</svg>
